<svg width="2000px" height="227px"
 viewBox="0.00 0.00 4781.38 542.56" xmlns="http://www.w3.org/2000/svg" xmlns:xlink="http://www.w3.org/1999/xlink">
<g id="graph0" class="graph" transform="scale(1.0 1.0) rotate(0) translate(4 538.56)">
<title>ContextMapGraph</title>
<polygon fill="white" stroke="transparent" points="-4,4 -4,-538.56 4777.38,-538.56 4777.38,4 -4,4"/>
<!-- AlmacenamientoContexto -->
<g id="node1" class="node">
<title>AlmacenamientoContexto</title>
<polygon fill="none" stroke="black" stroke-width="2" points="46.43,-363.83 39.65,-361.49 33.32,-359.09 27.47,-356.64 22.12,-354.16 17.31,-351.66 13.04,-349.14 9.35,-346.61 6.24,-344.09 3.73,-341.57 1.84,-339.08 0.57,-336.61 -0.06,-334.17 -0.07,-331.78 0.56,-329.44 1.83,-327.15 3.72,-324.93 6.24,-322.77 9.37,-320.69 13.09,-318.68 17.4,-316.75 22.28,-314.9 27.7,-313.14 33.64,-311.47 40.08,-309.9 46.99,-308.41 54.34,-307.02 62.11,-305.73 70.25,-304.53 78.74,-303.42 87.55,-302.42 96.63,-301.51 105.96,-300.69 115.49,-299.97 125.2,-299.34 135.04,-298.81 144.99,-298.37 155,-298.01 165.05,-297.75 175.09,-297.58 185.09,-297.49 195.03,-297.49 204.88,-297.58 214.59,-297.75 224.15,-298.01 233.54,-298.34 242.71,-298.76 251.66,-299.27 260.36,-299.85 268.79,-300.52 276.94,-301.26 284.78,-302.09 292.3,-303 299.5,-303.99 306.35,-305.06 312.86,-306.21 319,-307.43 324.78,-308.74 330.19,-310.13 335.22,-311.59 339.87,-313.13 344.14,-314.75 348.03,-316.43 351.54,-318.2 354.66,-320.03 357.4,-321.93 359.76,-323.9 361.74,-325.92 363.34,-328.01 364.56,-330.15 365.41,-332.34 365.88,-334.58 365.99,-336.86 365.72,-339.17 365.09,-341.52 364.09,-343.88 362.73,-346.26 361.01,-348.65 358.93,-351.04 356.48,-353.42 353.68,-355.79 350.52,-358.13 347.01,-360.45 343.14,-362.72 338.93,-364.94 334.36,-367.11 329.45,-369.21 324.2,-371.23 318.6,-373.18 312.68,-375.02 306.43,-376.77 299.85,-378.41 292.97,-379.94 285.77,-381.34 278.29,-382.62 270.52,-383.75 262.48,-384.75 254.19,-385.6 245.65,-386.3 236.89,-386.85 227.93,-387.24 218.78,-387.47 209.48,-387.54 200.03,-387.44 190.47,-387.19 180.82,-386.77 171.1,-386.2 161.36,-385.46 151.62,-384.58 141.9,-383.54 132.25,-382.35 122.69,-381.02 113.26,-379.56 103.99,-377.97 94.91,-376.25 86.07,-374.42 77.48,-372.49 69.19,-370.45 61.23,-368.32 53.64,-366.11 46.43,-363.83"/>
<text text-anchor="middle" x="195.07" y="-335.24" font-family="sans-serif" font-size="16.00">AlmacenamientoContexto</text>
</g>
<!-- StockContexto -->
<g id="node2" class="node">
<title>StockContexto</title>
<polygon fill="none" stroke="black" stroke-width="2" points="97.34,-169.35 101.18,-166.89 105.26,-164.51 109.58,-162.22 114.11,-160.02 118.84,-157.94 123.75,-155.97 128.82,-154.12 134.05,-152.4 139.4,-150.83 144.87,-149.39 150.43,-148.11 156.07,-146.98 161.78,-146.01 167.54,-145.2 173.32,-144.56 179.12,-144.08 184.93,-143.76 190.72,-143.61 196.48,-143.62 202.21,-143.8 207.88,-144.13 213.48,-144.62 219.01,-145.27 224.44,-146.06 229.78,-146.99 235,-148.06 240.11,-149.26 245.08,-150.59 249.92,-152.03 254.6,-153.58 259.13,-155.23 263.5,-156.97 267.69,-158.8 271.71,-160.7 275.54,-162.67 279.17,-164.7 282.61,-166.79 285.84,-168.91 288.86,-171.07 291.66,-173.26 294.23,-175.47 296.58,-177.69 298.69,-179.92 300.56,-182.15 302.19,-184.38 303.56,-186.59 304.68,-188.78 305.54,-190.95 306.14,-193.09 306.47,-195.21 306.53,-197.29 306.31,-199.33 305.82,-201.33 305.05,-203.28 303.99,-205.19 302.65,-207.06 301.03,-208.87 299.13,-210.64 296.94,-212.35 294.47,-214.01 291.72,-215.61 288.7,-217.16 285.4,-218.66 281.83,-220.09 278.01,-221.47 273.93,-222.79 269.6,-224.06 265.03,-225.26 260.24,-226.4 255.22,-227.48 250,-228.49 244.59,-229.44 239,-230.32 233.25,-231.13 227.34,-231.86 221.31,-232.53 215.16,-233.11 208.92,-233.62 202.59,-234.04 196.21,-234.38 189.8,-234.63 183.37,-234.79 176.94,-234.85 170.53,-234.81 164.18,-234.68 157.89,-234.44 151.7,-234.09 145.61,-233.63 139.66,-233.07 133.87,-232.39 128.25,-231.59 122.82,-230.68 117.61,-229.65 112.62,-228.5 107.89,-227.24 103.43,-225.85 99.25,-224.35 95.36,-222.74 91.78,-221.02 88.53,-219.18 85.61,-217.24 83.03,-215.2 80.8,-213.06 78.93,-210.84 77.42,-208.52 76.28,-206.13 75.5,-203.67 75.09,-201.14 75.05,-198.56 75.38,-195.93 76.07,-193.27 77.12,-190.58 78.51,-187.87 80.25,-185.16 82.33,-182.45 84.73,-179.76 87.44,-177.09 90.45,-174.46 93.76,-171.87 97.34,-169.35"/>
<text text-anchor="middle" x="195.07" y="-188.53" font-family="sans-serif" font-size="16.00">StockContexto</text>
</g>
<!-- AlmacenamientoContexto&#45;&gt;StockContexto -->
<g id="edge1" class="edge">
<title>AlmacenamientoContexto&#45;&gt;StockContexto</title>
<path fill="none" stroke="black" stroke-width="2" d="M195.07,-297.34C195.07,-277.7 195.07,-254.17 195.07,-234.47"/>
<text text-anchor="middle" x="251.07" y="-262.59" font-family="sans-serif" font-size="12.00">Customer/Supplier</text>
<polygon fill="white" stroke="transparent" points="188.07,-225.47 188.07,-242.47 202.07,-242.47 202.07,-225.47 188.07,-225.47"/>
<text text-anchor="start" x="190.07" y="-230.87" font-family="sans-serif" font-size="12.00">D</text>
<polygon fill="white" stroke="transparent" points="188.07,-288.34 188.07,-305.34 202.07,-305.34 202.07,-288.34 188.07,-288.34"/>
<text text-anchor="start" x="190.07" y="-293.74" font-family="sans-serif" font-size="12.00">U</text>
</g>
<!-- ProveedoresContexto -->
<g id="node3" class="node">
<title>ProveedoresContexto</title>
<polygon fill="none" stroke="black" stroke-width="2" points="348.06,-48.5 347.92,-51.39 347.36,-54.25 346.38,-57.08 344.98,-59.86 343.16,-62.6 340.94,-65.26 338.3,-67.85 335.27,-70.35 331.84,-72.75 328.03,-75.06 323.85,-77.25 319.31,-79.32 314.41,-81.26 309.18,-83.07 303.63,-84.75 297.77,-86.29 291.62,-87.68 285.2,-88.92 278.52,-90.02 271.6,-90.97 264.47,-91.77 257.14,-92.41 249.64,-92.91 241.98,-93.27 234.19,-93.48 226.29,-93.55 218.3,-93.48 210.24,-93.29 202.14,-92.96 194.03,-92.51 185.91,-91.94 177.83,-91.26 169.8,-90.47 161.83,-89.58 153.97,-88.6 146.22,-87.52 138.62,-86.36 131.17,-85.13 123.91,-83.82 116.86,-82.45 110.02,-81.02 103.43,-79.53 97.1,-77.99 91.04,-76.4 85.28,-74.78 79.83,-73.11 74.71,-71.41 69.92,-69.68 65.49,-67.93 61.42,-66.15 57.72,-64.34 54.4,-62.52 51.48,-60.68 48.95,-58.82 46.83,-56.95 45.12,-55.07 43.82,-53.17 42.94,-51.27 42.48,-49.35 42.43,-47.43 42.8,-45.5 43.59,-43.56 44.78,-41.63 46.39,-39.69 48.4,-37.75 50.8,-35.81 53.59,-33.87 56.77,-31.95 60.31,-30.03 64.22,-28.12 68.47,-26.24 73.07,-24.37 77.98,-22.53 83.21,-20.71 88.74,-18.93 94.55,-17.19 100.63,-15.5 106.95,-13.86 113.51,-12.27 120.29,-10.75 127.26,-9.3 134.42,-7.93 141.73,-6.64 149.18,-5.44 156.76,-4.33 164.44,-3.33 172.19,-2.44 180.02,-1.67 187.88,-1.02 195.76,-0.5 203.64,-0.12 211.5,0.13 219.32,0.24 227.07,0.19 234.74,-0 242.31,-0.35 249.76,-0.85 257.07,-1.51 264.21,-2.33 271.17,-3.31 277.93,-4.44 284.47,-5.73 290.78,-7.16 296.83,-8.75 302.62,-10.48 308.12,-12.35 313.32,-14.35 318.2,-16.47 322.75,-18.72 326.96,-21.07 330.82,-23.53 334.31,-26.08 337.43,-28.71 340.16,-31.41 342.49,-34.17 344.43,-36.99 345.96,-39.84 347.08,-42.72 347.78,-45.61 348.06,-48.5"/>
<text text-anchor="middle" x="195.07" y="-43.43" font-family="sans-serif" font-size="16.00">ProveedoresContexto</text>
</g>
<!-- StockContexto&#45;&gt;ProveedoresContexto -->
<g id="edge2" class="edge">
<title>StockContexto&#45;&gt;ProveedoresContexto</title>
<path fill="none" stroke="black" stroke-width="2" d="M195.07,-143.28C195.07,-127.04 195.07,-108.99 195.07,-93.01"/>
<text text-anchor="middle" x="229.57" y="-115.87" font-family="sans-serif" font-size="12.00">Partnership</text>
</g>
<!-- AlmacenesContext -->
<g id="node4" class="node">
<title>AlmacenesContext</title>
<polygon fill="none" stroke="black" stroke-width="2" points="677.43,-356.69 673.91,-359.34 670.06,-361.92 665.9,-364.43 661.43,-366.85 656.68,-369.18 651.66,-371.4 646.39,-373.51 640.89,-375.5 635.16,-377.35 629.24,-379.07 623.13,-380.64 616.86,-382.06 610.45,-383.33 603.9,-384.45 597.25,-385.4 590.5,-386.18 583.68,-386.81 576.8,-387.27 569.88,-387.56 562.94,-387.69 556,-387.66 549.06,-387.47 542.15,-387.13 535.28,-386.63 528.47,-385.98 521.73,-385.2 515.08,-384.28 508.53,-383.23 502.09,-382.05 495.79,-380.76 489.63,-379.36 483.62,-377.86 477.78,-376.27 472.13,-374.59 466.66,-372.83 461.41,-371 456.37,-369.12 451.55,-367.17 446.98,-365.18 442.65,-363.16 438.59,-361.1 434.79,-359.01 431.28,-356.91 428.05,-354.79 425.11,-352.66 422.49,-350.54 420.18,-348.42 418.18,-346.3 416.52,-344.2 415.19,-342.12 414.21,-340.05 413.56,-338.01 413.27,-336 413.34,-334.01 413.76,-332.05 414.54,-330.13 415.68,-328.23 417.19,-326.38 419.05,-324.56 421.28,-322.78 423.87,-321.03 426.81,-319.33 430.11,-317.67 433.75,-316.05 437.73,-314.47 442.04,-312.94 446.67,-311.45 451.62,-310.02 456.87,-308.62 462.4,-307.29 468.21,-306 474.28,-304.77 480.6,-303.6 487.15,-302.48 493.9,-301.44 500.84,-300.45 507.96,-299.54 515.23,-298.71 522.62,-297.95 530.12,-297.27 537.71,-296.68 545.35,-296.18 553.03,-295.78 560.73,-295.47 568.41,-295.27 576.05,-295.17 583.64,-295.19 591.14,-295.31 598.52,-295.56 605.77,-295.93 612.87,-296.42 619.78,-297.04 626.49,-297.78 632.97,-298.66 639.2,-299.67 645.17,-300.8 650.84,-302.07 656.22,-303.47 661.27,-304.99 665.98,-306.64 670.34,-308.42 674.33,-310.31 677.95,-312.32 681.18,-314.43 684.01,-316.66 686.44,-318.97 688.46,-321.38 690.06,-323.87 691.25,-326.44 692.02,-329.07 692.37,-331.75 692.3,-334.48 691.82,-337.25 690.93,-340.04 689.64,-342.85 687.95,-345.66 685.88,-348.45 683.43,-351.23 680.61,-353.98 677.43,-356.69"/>
<text text-anchor="middle" x="550.07" y="-335.24" font-family="sans-serif" font-size="16.00">AlmacenesContext</text>
</g>
<!-- AnalisisYReporteContext -->
<g id="node5" class="node">
<title>AnalisisYReporteContext</title>
<polygon fill="none" stroke="black" stroke-width="2" points="1635.1,-236.35 1623.94,-236.62 1612.81,-236.75 1601.76,-236.77 1590.83,-236.66 1580.06,-236.42 1569.51,-236.06 1559.2,-235.58 1549.18,-234.97 1539.48,-234.24 1530.14,-233.38 1521.19,-232.41 1512.65,-231.33 1504.56,-230.12 1496.95,-228.81 1489.82,-227.4 1483.19,-225.88 1477.09,-224.26 1471.53,-222.54 1466.51,-220.74 1462.04,-218.86 1458.12,-216.9 1454.75,-214.86 1451.94,-212.76 1449.67,-210.6 1447.94,-208.39 1446.75,-206.13 1446.07,-203.83 1445.89,-201.5 1446.21,-199.14 1447,-196.76 1448.25,-194.38 1449.93,-191.98 1452.04,-189.6 1454.54,-187.22 1457.42,-184.86 1460.67,-182.53 1464.25,-180.22 1468.14,-177.96 1472.34,-175.74 1476.82,-173.57 1481.56,-171.46 1486.54,-169.41 1491.74,-167.44 1497.16,-165.53 1502.78,-163.71 1508.57,-161.97 1514.53,-160.33 1520.66,-158.77 1526.92,-157.32 1533.33,-155.96 1539.86,-154.71 1546.52,-153.57 1553.29,-152.54 1560.17,-151.62 1567.15,-150.82 1574.23,-150.13 1581.41,-149.56 1588.67,-149.11 1596.01,-148.77 1603.44,-148.56 1610.94,-148.46 1618.5,-148.49 1626.13,-148.63 1633.82,-148.89 1641.55,-149.26 1649.32,-149.75 1657.12,-150.34 1664.94,-151.05 1672.77,-151.87 1680.59,-152.79 1688.38,-153.81 1696.14,-154.94 1703.83,-156.16 1711.45,-157.47 1718.97,-158.87 1726.37,-160.35 1733.63,-161.92 1740.72,-163.56 1747.61,-165.28 1754.29,-167.06 1760.71,-168.91 1766.86,-170.82 1772.71,-172.78 1778.22,-174.8 1783.37,-176.85 1788.13,-178.95 1792.47,-181.09 1796.37,-183.25 1799.8,-185.44 1802.74,-187.64 1805.15,-189.86 1807.03,-192.09 1808.35,-194.32 1809.09,-196.55 1809.24,-198.77 1808.78,-200.98 1807.7,-203.17 1806.01,-205.34 1803.68,-207.47 1800.73,-209.57 1797.15,-211.63 1792.95,-213.64 1788.13,-215.6 1782.72,-217.5 1776.71,-219.34 1770.14,-221.12 1763.02,-222.82 1755.37,-224.44 1747.23,-225.98 1738.62,-227.43 1729.58,-228.8 1720.14,-230.07 1710.34,-231.23 1700.21,-232.3 1689.81,-233.26 1679.17,-234.11 1668.33,-234.85 1657.34,-235.47 1646.25,-235.97 1635.1,-236.35"/>
<text text-anchor="middle" x="1622.07" y="-188.53" font-family="sans-serif" font-size="16.00">AnalisisYReporteContext</text>
</g>
<!-- AutenticacionContexto -->
<g id="node6" class="node">
<title>AutenticacionContexto</title>
<polygon fill="none" stroke="black" stroke-width="2" points="2219.7,-442.7 2230.07,-443.24 2240.29,-443.89 2250.32,-444.66 2260.11,-445.53 2269.62,-446.52 2278.82,-447.61 2287.67,-448.8 2296.13,-450.09 2304.18,-451.47 2311.78,-452.95 2318.91,-454.51 2325.54,-456.15 2331.65,-457.87 2337.23,-459.66 2342.26,-461.52 2346.72,-463.44 2350.62,-465.42 2353.93,-467.45 2356.66,-469.53 2358.81,-471.65 2360.38,-473.8 2361.37,-475.98 2361.8,-478.19 2361.67,-480.42 2361,-482.65 2359.81,-484.9 2358.1,-487.15 2355.91,-489.39 2353.24,-491.62 2350.13,-493.84 2346.59,-496.03 2342.65,-498.2 2338.33,-500.33 2333.67,-502.43 2328.67,-504.48 2323.38,-506.49 2317.81,-508.44 2312,-510.33 2305.95,-512.15 2299.71,-513.91 2293.29,-515.6 2286.71,-517.2 2280,-518.73 2273.17,-520.16 2266.25,-521.51 2259.24,-522.76 2252.18,-523.92 2245.06,-524.97 2237.92,-525.92 2230.75,-526.76 2223.57,-527.5 2216.38,-528.12 2209.21,-528.63 2202.05,-529.02 2194.92,-529.3 2187.81,-529.46 2180.73,-529.5 2173.7,-529.42 2166.71,-529.22 2159.77,-528.9 2152.88,-528.46 2146.05,-527.9 2139.28,-527.23 2132.58,-526.44 2125.95,-525.54 2119.4,-524.52 2112.94,-523.4 2106.57,-522.17 2100.31,-520.84 2094.15,-519.4 2088.13,-517.88 2082.24,-516.26 2076.49,-514.55 2070.92,-512.75 2065.52,-510.89 2060.31,-508.94 2055.32,-506.93 2050.56,-504.86 2046.04,-502.73 2041.8,-500.56 2037.84,-498.33 2034.2,-496.07 2030.89,-493.78 2027.93,-491.47 2025.34,-489.14 2023.14,-486.8 2021.36,-484.45 2020.01,-482.11 2019.11,-479.77 2018.68,-477.45 2018.73,-475.16 2019.28,-472.9 2020.34,-470.67 2021.92,-468.48 2024.03,-466.35 2026.67,-464.27 2029.86,-462.25 2033.58,-460.3 2037.84,-458.42 2042.63,-456.62 2047.95,-454.91 2053.79,-453.28 2060.13,-451.75 2066.96,-450.31 2074.25,-448.97 2082,-447.74 2090.16,-446.62 2098.73,-445.61 2107.66,-444.71 2116.92,-443.92 2126.49,-443.26 2136.32,-442.71 2146.38,-442.29 2156.62,-441.98 2167.02,-441.8 2177.51,-441.74 2188.07,-441.8 2198.65,-441.98 2209.21,-442.28 2219.7,-442.7"/>
<text text-anchor="middle" x="2187.07" y="-481.92" font-family="sans-serif" font-size="16.00">AutenticacionContexto</text>
</g>
<!-- AutorizacionContexto -->
<g id="node7" class="node">
<title>AutorizacionContexto</title>
<polygon fill="none" stroke="black" stroke-width="2" points="2304.27,-367.51 2297.81,-369.7 2291.07,-371.8 2284.07,-373.81 2276.84,-375.7 2269.4,-377.47 2261.79,-379.12 2254.03,-380.64 2246.14,-382.02 2238.16,-383.25 2230.1,-384.34 2222,-385.27 2213.88,-386.05 2205.76,-386.66 2197.66,-387.12 2189.62,-387.41 2181.64,-387.54 2173.75,-387.51 2165.97,-387.31 2158.32,-386.95 2150.81,-386.44 2143.46,-385.77 2136.29,-384.95 2129.3,-383.99 2122.51,-382.89 2115.93,-381.65 2109.58,-380.28 2103.46,-378.79 2097.58,-377.19 2091.95,-375.49 2086.58,-373.68 2081.46,-371.79 2076.62,-369.81 2072.06,-367.76 2067.77,-365.64 2063.77,-363.47 2060.06,-361.25 2056.64,-359 2053.52,-356.71 2050.7,-354.4 2048.19,-352.07 2045.99,-349.74 2044.09,-347.41 2042.52,-345.09 2041.26,-342.78 2040.32,-340.5 2039.72,-338.24 2039.44,-336.01 2039.49,-333.82 2039.88,-331.67 2040.61,-329.57 2041.68,-327.51 2043.09,-325.52 2044.85,-323.57 2046.96,-321.69 2049.41,-319.87 2052.22,-318.11 2055.37,-316.42 2058.88,-314.8 2062.73,-313.24 2066.93,-311.75 2071.46,-310.34 2076.34,-308.99 2081.55,-307.71 2087.08,-306.51 2092.92,-305.38 2099.08,-304.32 2105.52,-303.33 2112.26,-302.42 2119.26,-301.58 2126.51,-300.82 2134.01,-300.13 2141.72,-299.52 2149.64,-298.99 2157.73,-298.53 2165.98,-298.16 2174.37,-297.86 2182.86,-297.65 2191.44,-297.52 2200.08,-297.48 2208.74,-297.53 2217.4,-297.67 2226.04,-297.9 2234.62,-298.22 2243.11,-298.63 2251.48,-299.15 2259.7,-299.76 2267.74,-300.47 2275.58,-301.28 2283.17,-302.19 2290.5,-303.21 2297.53,-304.33 2304.24,-305.55 2310.6,-306.87 2316.59,-308.3 2322.18,-309.83 2327.35,-311.46 2332.08,-313.18 2336.35,-315.01 2340.15,-316.92 2343.47,-318.92 2346.28,-321.01 2348.58,-323.17 2350.36,-325.41 2351.62,-327.72 2352.35,-330.09 2352.55,-332.51 2352.22,-334.99 2351.37,-337.5 2350,-340.05 2348.12,-342.61 2345.73,-345.2 2342.86,-347.79 2339.51,-350.37 2335.7,-352.94 2331.45,-355.49 2326.78,-358 2321.7,-360.47 2316.24,-362.88 2310.42,-365.23 2304.27,-367.51"/>
<text text-anchor="middle" x="2187.07" y="-335.24" font-family="sans-serif" font-size="16.00">AutorizacionContexto</text>
</g>
<!-- AutenticacionContexto&#45;&gt;AutorizacionContexto -->
<g id="edge3" class="edge">
<title>AutenticacionContexto&#45;&gt;AutorizacionContexto</title>
<path fill="none" stroke="black" stroke-width="2" d="M2187.07,-441.7C2187.07,-424.71 2187.07,-405.12 2187.07,-387.7"/>
<text text-anchor="middle" x="2262.57" y="-409.29" font-family="sans-serif" font-size="12.00"> &#160;&#160;&#160;&#160;&#160;&#160;&#160;&#160;&#160;&#160;&#160;&#160;&#160;&#160;&#160;&#160;&#160;&#160;&#160;&#160;&#160;&#160;&#160;&#160;&#160;&#160;&#160;&#160;&#160;&#160;&#160;&#160;&#160;&#160;&#160;&#160;&#160;&#160;&#160;</text>
<polygon fill="white" stroke="transparent" points="2180.07,-378.7 2180.07,-395.7 2194.07,-395.7 2194.07,-378.7 2180.07,-378.7"/>
<text text-anchor="start" x="2182.07" y="-384.1" font-family="sans-serif" font-size="12.00">D</text>
<polygon fill="white" stroke="transparent" points="2180.07,-432.7 2180.07,-449.7 2194.07,-449.7 2194.07,-432.7 2180.07,-432.7"/>
<text text-anchor="start" x="2182.07" y="-438.1" font-family="sans-serif" font-size="12.00">U</text>
</g>
<!-- CalidadContexto -->
<g id="node8" class="node">
<title>CalidadContexto</title>
<polygon fill="none" stroke="black" stroke-width="2" points="245.01,-525.89 237.51,-527.07 229.91,-528.12 222.25,-529.05 214.56,-529.85 206.86,-530.53 199.2,-531.07 191.59,-531.47 184.07,-531.73 176.65,-531.85 169.38,-531.83 162.26,-531.66 155.32,-531.35 148.59,-530.9 142.08,-530.3 135.82,-529.56 129.81,-528.69 124.07,-527.68 118.61,-526.54 113.45,-525.27 108.6,-523.87 104.06,-522.36 99.83,-520.73 95.92,-518.99 92.34,-517.16 89.09,-515.23 86.15,-513.21 83.55,-511.11 81.26,-508.94 79.29,-506.71 77.63,-504.41 76.28,-502.07 75.23,-499.69 74.47,-497.28 74,-494.85 73.81,-492.4 73.9,-489.94 74.24,-487.48 74.85,-485.04 75.7,-482.61 76.79,-480.21 78.12,-477.84 79.68,-475.5 81.46,-473.22 83.45,-470.99 85.66,-468.81 88.06,-466.7 90.67,-464.66 93.48,-462.7 96.48,-460.81 99.67,-459.01 103.05,-457.3 106.61,-455.68 110.35,-454.15 114.27,-452.72 118.38,-451.38 122.65,-450.15 127.1,-449.02 131.73,-447.99 136.52,-447.07 141.47,-446.25 146.59,-445.54 151.87,-444.94 157.29,-444.43 162.87,-444.04 168.58,-443.74 174.43,-443.56 180.41,-443.47 186.49,-443.48 192.69,-443.6 198.97,-443.81 205.33,-444.13 211.76,-444.53 218.24,-445.04 224.74,-445.63 231.27,-446.32 237.78,-447.1 244.28,-447.96 250.73,-448.91 257.11,-449.95 263.4,-451.07 269.58,-452.27 275.62,-453.54 281.5,-454.9 287.2,-456.33 292.69,-457.83 297.94,-459.4 302.94,-461.04 307.66,-462.74 312.07,-464.5 316.16,-466.33 319.9,-468.21 323.27,-470.14 326.26,-472.12 328.85,-474.15 331.01,-476.22 332.75,-478.33 334.03,-480.47 334.87,-482.64 335.24,-484.83 335.13,-487.04 334.56,-489.27 333.51,-491.5 331.99,-493.74 329.99,-495.97 327.54,-498.19 324.62,-500.4 321.25,-502.59 317.45,-504.74 313.23,-506.86 308.61,-508.94 303.59,-510.97 298.22,-512.94 292.5,-514.85 286.46,-516.69 280.13,-518.45 273.53,-520.13 266.69,-521.72 259.63,-523.22 252.4,-524.61 245.01,-525.89"/>
<text text-anchor="middle" x="195.07" y="-481.92" font-family="sans-serif" font-size="16.00">CalidadContexto</text>
</g>
<!-- CalidadContexto&#45;&gt;AlmacenamientoContexto -->
<g id="edge4" class="edge">
<title>CalidadContexto&#45;&gt;AlmacenamientoContexto</title>
<path fill="none" stroke="black" stroke-width="2" d="M195.07,-443.65C195.07,-426.1 195.07,-405.52 195.07,-387.34"/>
<text text-anchor="middle" x="229.57" y="-409.29" font-family="sans-serif" font-size="12.00">Partnership</text>
</g>
<!-- CatalogoInternoContexto -->
<g id="node9" class="node">
<title>CatalogoInternoContexto</title>
<polygon fill="none" stroke="black" stroke-width="2" points="2762.83,-195.87 2762.08,-198.73 2760.85,-201.55 2759.15,-204.34 2756.98,-207.07 2754.35,-209.75 2751.27,-212.35 2747.74,-214.88 2743.77,-217.31 2739.37,-219.64 2734.57,-221.86 2729.36,-223.96 2723.76,-225.94 2717.79,-227.8 2711.47,-229.51 2704.8,-231.09 2697.82,-232.52 2690.54,-233.81 2682.98,-234.94 2675.15,-235.93 2667.09,-236.76 2658.81,-237.45 2650.34,-237.98 2641.7,-238.36 2632.92,-238.6 2624.01,-238.69 2615.01,-238.64 2605.93,-238.46 2596.81,-238.14 2587.67,-237.7 2578.53,-237.13 2569.42,-236.44 2560.36,-235.65 2551.39,-234.75 2542.51,-233.75 2533.77,-232.66 2525.18,-231.48 2516.77,-230.22 2508.56,-228.88 2500.57,-227.48 2492.82,-226.02 2485.35,-224.5 2478.16,-222.92 2471.27,-221.31 2464.71,-219.65 2458.5,-217.95 2452.64,-216.22 2447.16,-214.46 2442.08,-212.68 2437.39,-210.87 2433.13,-209.05 2429.3,-207.21 2425.9,-205.35 2422.96,-203.49 2420.47,-201.61 2418.44,-199.73 2416.88,-197.84 2415.8,-195.94 2415.19,-194.04 2415.06,-192.14 2415.4,-190.24 2416.22,-188.33 2417.52,-186.43 2419.28,-184.53 2421.51,-182.63 2424.19,-180.74 2427.33,-178.86 2430.9,-176.99 2434.91,-175.13 2439.34,-173.28 2444.17,-171.45 2449.4,-169.65 2455.01,-167.87 2460.99,-166.12 2467.31,-164.4 2473.97,-162.72 2480.94,-161.09 2488.2,-159.5 2495.74,-157.97 2503.53,-156.5 2511.55,-155.1 2519.78,-153.77 2528.2,-152.51 2536.78,-151.34 2545.51,-150.27 2554.36,-149.29 2563.3,-148.41 2572.31,-147.65 2581.36,-147 2590.44,-146.48 2599.51,-146.08 2608.55,-145.82 2617.54,-145.69 2626.46,-145.7 2635.27,-145.86 2643.96,-146.17 2652.5,-146.63 2660.87,-147.24 2669.04,-148 2676.99,-148.92 2684.71,-149.99 2692.17,-151.21 2699.34,-152.58 2706.22,-154.1 2712.78,-155.76 2719,-157.55 2724.87,-159.49 2730.37,-161.54 2735.49,-163.72 2740.2,-166.01 2744.51,-168.41 2748.39,-170.9 2751.83,-173.47 2754.83,-176.12 2757.38,-178.84 2759.46,-181.61 2761.09,-184.42 2762.24,-187.27 2762.91,-190.13 2763.11,-193 2762.83,-195.87"/>
<text text-anchor="middle" x="2589.07" y="-188.53" font-family="sans-serif" font-size="16.00">CatalogoInternoContexto</text>
</g>
<!-- CatalogoProductosContext -->
<g id="node10" class="node">
<title>CatalogoProductosContext</title>
<polygon fill="none" stroke="black" stroke-width="2" points="1348.59,-529.71 1336.66,-529.87 1324.78,-529.91 1313.01,-529.83 1301.38,-529.62 1289.94,-529.29 1278.75,-528.83 1267.84,-528.26 1257.25,-527.56 1247.03,-526.75 1237.2,-525.81 1227.8,-524.77 1218.87,-523.61 1210.42,-522.34 1202.5,-520.96 1195.11,-519.49 1188.27,-517.91 1182.01,-516.24 1176.33,-514.49 1171.24,-512.65 1166.75,-510.73 1162.86,-508.74 1159.57,-506.68 1156.87,-504.56 1154.77,-502.39 1153.25,-500.17 1152.3,-497.9 1151.9,-495.61 1152.06,-493.28 1152.73,-490.93 1153.92,-488.57 1155.59,-486.21 1157.73,-483.84 1160.32,-481.48 1163.33,-479.13 1166.75,-476.81 1170.54,-474.51 1174.68,-472.25 1179.17,-470.02 1183.96,-467.85 1189.04,-465.73 1194.39,-463.67 1200,-461.67 1205.83,-459.75 1211.87,-457.9 1218.12,-456.13 1224.54,-454.45 1231.13,-452.87 1237.88,-451.37 1244.77,-449.98 1251.79,-448.68 1258.93,-447.5 1266.19,-446.42 1273.55,-445.45 1281.01,-444.6 1288.57,-443.86 1296.21,-443.24 1303.93,-442.73 1311.73,-442.35 1319.61,-442.08 1327.55,-441.93 1335.55,-441.91 1343.61,-442 1351.72,-442.21 1359.87,-442.53 1368.05,-442.97 1376.26,-443.53 1384.48,-444.19 1392.71,-444.97 1400.93,-445.85 1409.13,-446.84 1417.28,-447.93 1425.38,-449.12 1433.4,-450.4 1441.33,-451.78 1449.14,-453.24 1456.81,-454.79 1464.32,-456.41 1471.63,-458.12 1478.73,-459.89 1485.58,-461.73 1492.15,-463.63 1498.43,-465.58 1504.37,-467.59 1509.95,-469.65 1515.14,-471.74 1519.91,-473.88 1524.23,-476.04 1528.07,-478.23 1531.41,-480.44 1534.22,-482.67 1536.47,-484.9 1538.15,-487.14 1539.23,-489.38 1539.7,-491.61 1539.53,-493.82 1538.73,-496.02 1537.27,-498.19 1535.14,-500.33 1532.36,-502.44 1528.91,-504.51 1524.8,-506.52 1520.03,-508.49 1514.62,-510.4 1508.57,-512.25 1501.91,-514.03 1494.65,-515.74 1486.82,-517.37 1478.44,-518.92 1469.54,-520.38 1460.16,-521.75 1450.33,-523.03 1440.09,-524.21 1429.48,-525.29 1418.54,-526.26 1407.32,-527.12 1395.86,-527.87 1384.21,-528.51 1372.41,-529.03 1360.52,-529.43 1348.59,-529.71"/>
<text text-anchor="middle" x="1341.07" y="-481.92" font-family="sans-serif" font-size="16.00">CatalogoProductosContext</text>
</g>
<!-- LogisticayEnviosContext -->
<g id="node11" class="node">
<title>LogisticayEnviosContext</title>
<polygon fill="none" stroke="black" stroke-width="2" points="1200.02,-363.83 1193.59,-361.49 1187.58,-359.09 1182.03,-356.64 1176.96,-354.16 1172.39,-351.66 1168.34,-349.14 1164.83,-346.61 1161.88,-344.09 1159.51,-341.57 1157.71,-339.08 1156.51,-336.61 1155.9,-334.17 1155.9,-331.78 1156.5,-329.44 1157.7,-327.15 1159.5,-324.93 1161.89,-322.77 1164.85,-320.69 1168.39,-318.68 1172.48,-316.75 1177.11,-314.9 1182.25,-313.14 1187.89,-311.47 1194,-309.9 1200.55,-308.41 1207.53,-307.02 1214.9,-305.73 1222.63,-304.53 1230.68,-303.42 1239.04,-302.42 1247.66,-301.51 1256.51,-300.69 1265.56,-299.97 1274.77,-299.34 1284.11,-298.81 1293.55,-298.37 1303.05,-298.01 1312.58,-297.75 1322.11,-297.58 1331.6,-297.49 1341.04,-297.49 1350.37,-297.58 1359.59,-297.75 1368.67,-298.01 1377.57,-298.34 1386.28,-298.76 1394.77,-299.27 1403.03,-299.85 1411.03,-300.52 1418.76,-301.26 1426.2,-302.09 1433.34,-303 1440.17,-303.99 1446.67,-305.06 1452.84,-306.21 1458.67,-307.43 1464.15,-308.74 1469.28,-310.13 1474.06,-311.59 1478.47,-313.13 1482.53,-314.75 1486.22,-316.43 1489.55,-318.2 1492.51,-320.03 1495.11,-321.93 1497.35,-323.9 1499.22,-325.92 1500.74,-328.01 1501.9,-330.15 1502.71,-332.34 1503.16,-334.58 1503.26,-336.86 1503.01,-339.17 1502.41,-341.52 1501.46,-343.88 1500.17,-346.26 1498.53,-348.65 1496.56,-351.04 1494.24,-353.42 1491.58,-355.79 1488.58,-358.13 1485.25,-360.45 1481.58,-362.72 1477.58,-364.94 1473.25,-367.11 1468.59,-369.21 1463.6,-371.23 1458.29,-373.18 1452.67,-375.02 1446.74,-376.77 1440.5,-378.41 1433.97,-379.94 1427.14,-381.34 1420.04,-382.62 1412.67,-383.75 1405.04,-384.75 1397.17,-385.6 1389.07,-386.3 1380.76,-386.85 1372.25,-387.24 1363.57,-387.47 1354.74,-387.54 1345.77,-387.44 1336.7,-387.19 1327.54,-386.77 1318.33,-386.2 1309.08,-385.46 1299.84,-384.58 1290.62,-383.54 1281.46,-382.35 1272.39,-381.02 1263.44,-379.56 1254.64,-377.97 1246.03,-376.25 1237.63,-374.42 1229.49,-372.49 1221.62,-370.45 1214.07,-368.32 1206.86,-366.11 1200.02,-363.83"/>
<text text-anchor="middle" x="1341.07" y="-335.24" font-family="sans-serif" font-size="16.00">LogisticayEnviosContext</text>
</g>
<!-- CatalogoProductosContext&#45;&gt;LogisticayEnviosContext -->
<g id="edge5" class="edge">
<title>CatalogoProductosContext&#45;&gt;LogisticayEnviosContext</title>
<path fill="none" stroke="black" stroke-width="2" d="M1341.07,-441.7C1341.07,-424.63 1341.07,-404.93 1341.07,-387.44"/>
<text text-anchor="middle" x="1383.07" y="-409.29" font-family="sans-serif" font-size="12.00">Shared Kernel</text>
</g>
<!-- LogisticayEnviosContext&#45;&gt;AnalisisYReporteContext -->
<g id="edge6" class="edge">
<title>LogisticayEnviosContext&#45;&gt;AnalisisYReporteContext</title>
<path fill="none" stroke="black" stroke-width="2" d="M1413.8,-300.58C1453.15,-280.32 1501.83,-255.25 1542.23,-234.44"/>
<text text-anchor="middle" x="1565.57" y="-262.59" font-family="sans-serif" font-size="12.00"> &#160;&#160;&#160;&#160;&#160;&#160;&#160;&#160;&#160;&#160;&#160;&#160;&#160;&#160;&#160;&#160;&#160;&#160;&#160;&#160;&#160;&#160;&#160;&#160;&#160;&#160;&#160;&#160;&#160;&#160;&#160;&#160;&#160;&#160;&#160;&#160;&#160;&#160;&#160;</text>
<polygon fill="white" stroke="transparent" points="1535.23,-225.44 1535.23,-242.44 1549.23,-242.44 1549.23,-225.44 1535.23,-225.44"/>
<text text-anchor="start" x="1537.23" y="-230.84" font-family="sans-serif" font-size="12.00">D</text>
<polygon fill="white" stroke="transparent" points="1406.8,-291.58 1406.8,-308.58 1420.8,-308.58 1420.8,-291.58 1406.8,-291.58"/>
<text text-anchor="start" x="1408.8" y="-296.98" font-family="sans-serif" font-size="12.00">U</text>
</g>
<!-- ClienteContext -->
<g id="node12" class="node">
<title>ClienteContext</title>
<polygon fill="none" stroke="black" stroke-width="2" points="2874.18,-442.23 2881.65,-441.72 2889.13,-441.33 2896.58,-441.07 2903.98,-440.94 2911.3,-440.93 2918.5,-441.05 2925.57,-441.31 2932.47,-441.69 2939.18,-442.2 2945.68,-442.84 2951.94,-443.6 2957.95,-444.49 2963.68,-445.5 2969.12,-446.64 2974.25,-447.89 2979.07,-449.25 2983.56,-450.72 2987.7,-452.3 2991.51,-453.98 2994.95,-455.76 2998.05,-457.62 3000.79,-459.57 3003.17,-461.59 3005.19,-463.69 3006.87,-465.85 3008.19,-468.08 3009.18,-470.35 3009.83,-472.66 3010.16,-475.01 3010.17,-477.39 3009.88,-479.8 3009.29,-482.21 3008.41,-484.63 3007.27,-487.05 3005.87,-489.46 3004.21,-491.86 3002.33,-494.23 3000.21,-496.57 2997.89,-498.87 2995.37,-501.12 2992.66,-503.33 2989.77,-505.48 2986.71,-507.56 2983.49,-509.57 2980.12,-511.51 2976.61,-513.37 2972.96,-515.14 2969.19,-516.82 2965.29,-518.41 2961.28,-519.9 2957.16,-521.29 2952.93,-522.58 2948.6,-523.75 2944.17,-524.82 2939.64,-525.78 2935.02,-526.62 2930.31,-527.35 2925.52,-527.96 2920.64,-528.46 2915.68,-528.83 2910.64,-529.1 2905.53,-529.24 2900.35,-529.27 2895.11,-529.19 2889.8,-528.99 2884.45,-528.68 2879.05,-528.26 2873.61,-527.73 2868.14,-527.09 2862.66,-526.35 2857.16,-525.51 2851.67,-524.57 2846.2,-523.53 2840.76,-522.39 2835.36,-521.17 2830.03,-519.86 2824.77,-518.46 2819.62,-516.99 2814.57,-515.44 2809.66,-513.81 2804.9,-512.12 2800.31,-510.36 2795.92,-508.53 2791.74,-506.66 2787.79,-504.72 2784.1,-502.74 2780.68,-500.72 2777.55,-498.66 2774.73,-496.56 2772.25,-494.43 2770.11,-492.28 2768.33,-490.1 2766.93,-487.91 2765.92,-485.71 2765.31,-483.5 2765.11,-481.3 2765.34,-479.1 2765.98,-476.91 2767.06,-474.73 2768.57,-472.58 2770.52,-470.45 2772.89,-468.36 2775.69,-466.3 2778.91,-464.28 2782.54,-462.32 2786.57,-460.41 2790.98,-458.56 2795.77,-456.77 2800.91,-455.06 2806.38,-453.42 2812.17,-451.86 2818.25,-450.39 2824.59,-449.01 2831.18,-447.72 2837.98,-446.53 2844.96,-445.45 2852.11,-444.48 2859.38,-443.61 2866.74,-442.86 2874.18,-442.23"/>
<text text-anchor="middle" x="2893.07" y="-481.92" font-family="sans-serif" font-size="16.00">ClienteContext</text>
</g>
<!-- ServicioClienteContext -->
<g id="node13" class="node">
<title>ServicioClienteContext</title>
<polygon fill="none" stroke="black" stroke-width="2" points="3482.08,-370.45 3474.64,-372.49 3466.94,-374.42 3458.99,-376.25 3450.84,-377.97 3442.52,-379.56 3434.05,-381.02 3425.47,-382.35 3416.8,-383.54 3408.08,-384.58 3399.33,-385.46 3390.58,-386.2 3381.87,-386.77 3373.2,-387.19 3364.62,-387.44 3356.13,-387.54 3347.78,-387.47 3339.56,-387.24 3331.52,-386.85 3323.65,-386.3 3315.99,-385.6 3308.54,-384.75 3301.32,-383.75 3294.35,-382.62 3287.63,-381.34 3281.17,-379.94 3274.99,-378.41 3269.09,-376.77 3263.47,-375.02 3258.15,-373.18 3253.13,-371.23 3248.42,-369.21 3244.01,-367.11 3239.91,-364.94 3236.12,-362.72 3232.65,-360.45 3229.5,-358.13 3226.66,-355.79 3224.14,-353.42 3221.95,-351.04 3220.08,-348.65 3218.53,-346.26 3217.31,-343.88 3216.41,-341.52 3215.85,-339.17 3215.61,-336.86 3215.7,-334.58 3216.13,-332.34 3216.89,-330.15 3217.99,-328.01 3219.43,-325.92 3221.2,-323.9 3223.32,-321.93 3225.78,-320.03 3228.58,-318.2 3231.73,-316.43 3235.22,-314.75 3239.06,-313.13 3243.24,-311.59 3247.75,-310.13 3252.61,-308.74 3257.8,-307.43 3263.31,-306.21 3269.15,-305.06 3275.31,-303.99 3281.77,-303 3288.52,-302.09 3295.56,-301.26 3302.88,-300.52 3310.45,-299.85 3318.26,-299.27 3326.29,-298.76 3334.53,-298.34 3342.95,-298.01 3351.54,-297.75 3360.26,-297.58 3369.1,-297.49 3378.02,-297.49 3387.01,-297.58 3396.02,-297.75 3405.04,-298.01 3414.03,-298.37 3422.96,-298.81 3431.8,-299.34 3440.52,-299.97 3449.08,-300.69 3457.45,-301.51 3465.61,-302.42 3473.51,-303.42 3481.14,-304.53 3488.45,-305.73 3495.42,-307.02 3502.02,-308.41 3508.22,-309.9 3514,-311.47 3519.34,-313.14 3524.21,-314.9 3528.58,-316.75 3532.45,-318.68 3535.8,-320.69 3538.61,-322.77 3540.87,-324.93 3542.57,-327.15 3543.7,-329.44 3544.27,-331.78 3544.27,-334.17 3543.69,-336.61 3542.56,-339.08 3540.86,-341.57 3538.61,-344.09 3535.82,-346.61 3532.5,-349.14 3528.67,-351.66 3524.34,-354.16 3519.55,-356.64 3514.29,-359.09 3508.61,-361.49 3502.52,-363.83 3496.05,-366.11 3489.23,-368.32 3482.08,-370.45"/>
<text text-anchor="middle" x="3369.07" y="-335.24" font-family="sans-serif" font-size="16.00">ServicioClienteContext</text>
</g>
<!-- ClienteContext&#45;&gt;ServicioClienteContext -->
<g id="edge7" class="edge">
<title>ClienteContext&#45;&gt;ServicioClienteContext</title>
<path fill="none" stroke="black" stroke-width="2" d="M2986.05,-451.45C3000.73,-446.43 3015.78,-441.42 3030.07,-436.89 3103.88,-413.48 3187.52,-389.56 3253.25,-371.34"/>
<text text-anchor="middle" x="3165.07" y="-409.29" font-family="sans-serif" font-size="12.00">Shared Kernel</text>
</g>
<!-- DevolucionesContext -->
<g id="node14" class="node">
<title>DevolucionesContext</title>
<polygon fill="none" stroke="black" stroke-width="2" points="495.43,-445.96 504.42,-444.69 513.53,-443.54 522.73,-442.51 531.98,-441.61 541.25,-440.84 550.5,-440.2 559.7,-439.7 568.82,-439.35 577.82,-439.14 586.67,-439.07 595.34,-439.15 603.81,-439.38 612.05,-439.75 620.04,-440.27 627.75,-440.94 635.16,-441.74 642.26,-442.69 649.03,-443.77 655.46,-444.99 661.54,-446.33 667.25,-447.79 672.58,-449.38 677.54,-451.07 682.12,-452.88 686.32,-454.78 690.13,-456.77 693.55,-458.85 696.6,-461 699.27,-463.22 701.57,-465.51 703.49,-467.84 705.06,-470.22 706.28,-472.63 707.15,-475.08 707.68,-477.54 707.88,-480.01 707.75,-482.48 707.32,-484.94 706.58,-487.4 705.54,-489.82 704.22,-492.22 702.61,-494.59 700.73,-496.9 698.58,-499.17 696.16,-501.38 693.49,-503.53 690.57,-505.61 687.39,-507.62 683.98,-509.55 680.32,-511.4 676.42,-513.17 672.29,-514.84 667.93,-516.42 663.33,-517.91 658.51,-519.3 653.46,-520.59 648.19,-521.78 642.69,-522.87 636.98,-523.85 631.06,-524.74 624.92,-525.51 618.58,-526.19 612.04,-526.76 605.31,-527.22 598.4,-527.59 591.31,-527.85 584.06,-528.01 576.66,-528.07 569.11,-528.03 561.45,-527.89 553.67,-527.65 545.81,-527.32 537.88,-526.9 529.89,-526.38 521.88,-525.77 513.86,-525.06 505.86,-524.27 497.9,-523.4 490.01,-522.43 482.23,-521.39 474.57,-520.26 467.07,-519.05 459.75,-517.76 452.65,-516.39 445.79,-514.95 439.21,-513.43 432.94,-511.85 426.99,-510.19 421.41,-508.47 416.22,-506.69 411.44,-504.85 407.1,-502.95 403.23,-500.99 399.84,-498.98 396.95,-496.93 394.58,-494.83 392.76,-492.7 391.48,-490.53 390.76,-488.33 390.61,-486.1 391.04,-483.86 392.04,-481.6 393.62,-479.33 395.77,-477.07 398.49,-474.8 401.77,-472.55 405.59,-470.31 409.95,-468.1 414.82,-465.92 420.19,-463.77 426.04,-461.67 432.33,-459.63 439.05,-457.64 446.17,-455.71 453.65,-453.87 461.47,-452.1 469.6,-450.42 477.99,-448.83 486.61,-447.34 495.43,-445.96"/>
<text text-anchor="middle" x="561.07" y="-481.92" font-family="sans-serif" font-size="16.00">DevolucionesContext</text>
</g>
<!-- DevolucionesContext&#45;&gt;AlmacenesContext -->
<g id="edge9" class="edge">
<title>DevolucionesContext&#45;&gt;AlmacenesContext</title>
<path fill="none" stroke="black" stroke-width="2" d="M557.65,-439.74C556.39,-423.23 554.97,-404.49 553.7,-387.75"/>
<text text-anchor="middle" x="598.07" y="-409.29" font-family="sans-serif" font-size="12.00">Shared Kernel</text>
</g>
<!-- SeguimientoPedidosContext -->
<g id="node15" class="node">
<title>SeguimientoPedidosContext</title>
<polygon fill="none" stroke="black" stroke-width="2" points="826.56,-300.99 837.34,-299.5 848.33,-298.12 859.47,-296.86 870.73,-295.73 882.06,-294.73 893.42,-293.86 904.77,-293.13 916.07,-292.55 927.27,-292.11 938.35,-291.83 949.26,-291.69 959.96,-291.7 970.44,-291.87 980.65,-292.19 990.58,-292.66 1000.18,-293.28 1009.45,-294.04 1018.35,-294.95 1026.88,-296 1035.01,-297.19 1042.73,-298.51 1050.03,-299.96 1056.9,-301.53 1063.33,-303.21 1069.32,-305 1074.86,-306.9 1079.95,-308.89 1084.59,-310.96 1088.79,-313.11 1092.54,-315.33 1095.85,-317.62 1098.73,-319.95 1101.17,-322.33 1103.2,-324.75 1104.8,-327.19 1106,-329.65 1106.79,-332.12 1107.18,-334.59 1107.19,-337.06 1106.82,-339.51 1106.08,-341.94 1104.96,-344.34 1103.49,-346.7 1101.66,-349.02 1099.47,-351.29 1096.94,-353.5 1094.07,-355.65 1090.86,-357.73 1087.31,-359.75 1083.43,-361.68 1079.22,-363.54 1074.68,-365.32 1069.81,-367.01 1064.62,-368.61 1059.1,-370.11 1053.26,-371.53 1047.1,-372.85 1040.63,-374.07 1033.84,-375.2 1026.75,-376.23 1019.35,-377.16 1011.66,-377.99 1003.68,-378.72 995.42,-379.36 986.88,-379.9 978.09,-380.33 969.06,-380.68 959.8,-380.92 950.33,-381.07 940.66,-381.12 930.82,-381.08 920.83,-380.95 910.72,-380.72 900.5,-380.4 890.22,-379.99 879.89,-379.49 869.56,-378.91 859.24,-378.23 848.99,-377.47 838.82,-376.62 828.79,-375.68 818.92,-374.66 809.25,-373.56 799.82,-372.37 790.67,-371.1 781.84,-369.76 773.36,-368.33 765.28,-366.83 757.62,-365.25 750.42,-363.6 743.73,-361.88 737.56,-360.09 731.95,-358.24 726.93,-356.32 722.53,-354.34 718.76,-352.31 715.65,-350.22 713.22,-348.09 711.48,-345.91 710.45,-343.69 710.12,-341.44 710.52,-339.16 711.63,-336.86 713.46,-334.54 716.01,-332.21 719.25,-329.88 723.2,-327.55 727.81,-325.23 733.09,-322.93 739.01,-320.66 745.53,-318.42 752.65,-316.21 760.32,-314.06 768.51,-311.96 777.19,-309.93 786.32,-307.97 795.86,-306.09 805.78,-304.29 816.02,-302.59 826.56,-300.99"/>
<text text-anchor="middle" x="924.07" y="-335.24" font-family="sans-serif" font-size="16.00">SeguimientoPedidosContext</text>
</g>
<!-- DevolucionesContext&#45;&gt;SeguimientoPedidosContext -->
<g id="edge8" class="edge">
<title>DevolucionesContext&#45;&gt;SeguimientoPedidosContext</title>
<path fill="none" stroke="black" stroke-width="2" d="M616.58,-439.98C635.86,-425.12 655.33,-411.03 666.07,-405.89 699.11,-390.05 736.41,-377.71 772.18,-368.22"/>
<text text-anchor="middle" x="708.07" y="-409.29" font-family="sans-serif" font-size="12.00">Shared Kernel</text>
</g>
<!-- EnviosContext -->
<g id="node16" class="node">
<title>EnviosContext</title>
<polygon fill="none" stroke="black" stroke-width="2" points="977.84,-500.43 975.45,-503.14 972.79,-505.78 969.85,-508.36 966.65,-510.87 963.21,-513.28 959.52,-515.59 955.62,-517.8 951.49,-519.89 947.17,-521.85 942.66,-523.69 937.98,-525.38 933.13,-526.93 928.14,-528.33 923.02,-529.58 917.78,-530.67 912.43,-531.6 907,-532.36 901.48,-532.97 895.91,-533.41 890.29,-533.7 884.63,-533.82 878.95,-533.78 873.27,-533.59 867.59,-533.25 861.93,-532.76 856.31,-532.13 850.73,-531.36 845.22,-530.46 839.77,-529.44 834.41,-528.29 829.15,-527.04 823.99,-525.69 818.96,-524.23 814.06,-522.69 809.3,-521.07 804.69,-519.37 800.25,-517.61 795.99,-515.79 791.91,-513.92 788.03,-512 784.35,-510.05 780.89,-508.06 777.65,-506.05 774.64,-504.02 771.88,-501.98 769.36,-499.93 767.1,-497.88 765.1,-495.82 763.37,-493.78 761.91,-491.74 760.74,-489.71 759.85,-487.7 759.25,-485.71 758.94,-483.74 758.93,-481.79 759.22,-479.86 759.81,-477.96 760.7,-476.08 761.9,-474.24 763.39,-472.42 765.18,-470.64 767.27,-468.88 769.65,-467.16 772.32,-465.48 775.27,-463.82 778.5,-462.21 782.01,-460.63 785.77,-459.1 789.79,-457.6 794.05,-456.15 798.55,-454.75 803.26,-453.4 808.19,-452.09 813.32,-450.85 818.62,-449.66 824.09,-448.53 829.72,-447.48 835.48,-446.49 841.36,-445.57 847.34,-444.74 853.4,-443.99 859.53,-443.32 865.71,-442.75 871.91,-442.28 878.12,-441.91 884.32,-441.64 890.49,-441.49 896.62,-441.46 902.67,-441.54 908.63,-441.74 914.49,-442.08 920.23,-442.54 925.82,-443.13 931.24,-443.86 936.49,-444.72 941.55,-445.71 946.4,-446.85 951.02,-448.11 955.4,-449.52 959.53,-451.05 963.4,-452.71 966.99,-454.5 970.29,-456.41 973.3,-458.44 976,-460.58 978.39,-462.83 980.47,-465.17 982.22,-467.61 983.64,-470.13 984.74,-472.72 985.51,-475.37 985.95,-478.08 986.05,-480.84 985.83,-483.63 985.29,-486.44 984.42,-489.26 983.23,-492.08 981.74,-494.89 979.94,-497.68 977.84,-500.43"/>
<text text-anchor="middle" x="871.07" y="-481.92" font-family="sans-serif" font-size="16.00">EnviosContext</text>
</g>
<!-- EnviosContext&#45;&gt;AlmacenesContext -->
<g id="edge11" class="edge">
<title>EnviosContext&#45;&gt;AlmacenesContext</title>
<path fill="none" stroke="black" stroke-width="2" d="M823.95,-448.54C803.31,-433.88 778.3,-417.67 754.07,-405.89 748.81,-403.33 699.49,-387.4 650.67,-371.84"/>
<text text-anchor="middle" x="820.07" y="-409.29" font-family="sans-serif" font-size="12.00">Shared Kernel</text>
</g>
<!-- EnviosContext&#45;&gt;SeguimientoPedidosContext -->
<g id="edge10" class="edge">
<title>EnviosContext&#45;&gt;SeguimientoPedidosContext</title>
<path fill="none" stroke="black" stroke-width="2" d="M886.97,-441.31C893.98,-422.17 902.18,-399.79 909.09,-380.94"/>
<text text-anchor="middle" x="942.07" y="-409.29" font-family="sans-serif" font-size="12.00">Shared Kernel</text>
</g>
<!-- GestionDeProductosContexto -->
<g id="node17" class="node">
<title>GestionDeProductosContexto</title>
<polygon fill="none" stroke="black" stroke-width="2" points="2506.68,-379.05 2494.86,-377.89 2483.35,-376.62 2472.19,-375.26 2461.42,-373.8 2451.09,-372.26 2441.23,-370.63 2431.9,-368.93 2423.13,-367.15 2414.95,-365.31 2407.39,-363.4 2400.48,-361.44 2394.24,-359.43 2388.7,-357.38 2383.87,-355.29 2379.76,-353.16 2376.39,-351.01 2373.76,-348.84 2371.87,-346.66 2370.72,-344.46 2370.3,-342.26 2370.61,-340.07 2371.64,-337.87 2373.36,-335.69 2375.76,-333.52 2378.82,-331.38 2382.52,-329.26 2386.82,-327.17 2391.71,-325.12 2397.14,-323.1 2403.09,-321.13 2409.53,-319.2 2416.41,-317.33 2423.71,-315.51 2431.39,-313.75 2439.41,-312.05 2447.75,-310.41 2456.35,-308.85 2465.19,-307.36 2474.23,-305.95 2483.45,-304.62 2492.8,-303.36 2502.26,-302.2 2511.79,-301.12 2521.38,-300.14 2530.99,-299.25 2540.6,-298.45 2550.18,-297.76 2559.72,-297.16 2569.19,-296.67 2578.58,-296.29 2587.88,-296.01 2597.06,-295.85 2606.12,-295.79 2615.04,-295.84 2623.82,-296.01 2632.44,-296.29 2640.91,-296.69 2649.2,-297.2 2657.32,-297.82 2665.27,-298.56 2673.03,-299.4 2680.6,-300.37 2687.98,-301.44 2695.16,-302.62 2702.15,-303.91 2708.92,-305.3 2715.48,-306.79 2721.82,-308.38 2727.93,-310.07 2733.8,-311.84 2739.43,-313.7 2744.81,-315.65 2749.92,-317.67 2754.75,-319.76 2759.29,-321.91 2763.52,-324.13 2767.43,-326.4 2771.01,-328.71 2774.23,-331.07 2777.08,-333.45 2779.54,-335.86 2781.59,-338.29 2783.22,-340.73 2784.41,-343.17 2785.13,-345.61 2785.37,-348.03 2785.12,-350.43 2784.36,-352.8 2783.07,-355.13 2781.24,-357.42 2778.85,-359.66 2775.91,-361.84 2772.39,-363.95 2768.3,-365.98 2763.63,-367.94 2758.38,-369.81 2752.54,-371.58 2746.14,-373.26 2739.17,-374.83 2731.64,-376.29 2723.56,-377.64 2714.97,-378.88 2705.86,-379.98 2696.28,-380.97 2686.24,-381.83 2675.77,-382.56 2664.91,-383.15 2653.68,-383.62 2642.14,-383.95 2630.31,-384.15 2618.24,-384.21 2605.98,-384.14 2593.57,-383.94 2581.06,-383.61 2568.5,-383.15 2555.94,-382.57 2543.42,-381.86 2531.01,-381.04 2518.74,-380.1 2506.68,-379.05"/>
<text text-anchor="middle" x="2589.07" y="-335.24" font-family="sans-serif" font-size="16.00">GestionDeProductosContexto</text>
</g>
<!-- GestionDeProductosContexto&#45;&gt;CatalogoInternoContexto -->
<g id="edge12" class="edge">
<title>GestionDeProductosContexto&#45;&gt;CatalogoInternoContexto</title>
<path fill="none" stroke="black" stroke-width="2" d="M2589.07,-295.79C2589.07,-277.61 2589.07,-256.33 2589.07,-237.89"/>
<text text-anchor="middle" x="2631.07" y="-262.59" font-family="sans-serif" font-size="12.00">Shared Kernel</text>
</g>
<!-- LocalizacionContexto -->
<g id="node18" class="node">
<title>LocalizacionContexto</title>
<polygon fill="none" stroke="black" stroke-width="2" points="4204.65,-516.51 4197.56,-514.48 4190.81,-512.38 4184.43,-510.22 4178.46,-508 4172.92,-505.73 4167.82,-503.43 4163.2,-501.09 4159.07,-498.73 4155.45,-496.35 4152.36,-493.97 4149.8,-491.58 4147.8,-489.21 4146.35,-486.85 4145.46,-484.51 4145.14,-482.2 4145.38,-479.92 4146.18,-477.68 4147.53,-475.49 4149.44,-473.35 4151.88,-471.26 4154.84,-469.23 4158.32,-467.27 4162.28,-465.37 4166.71,-463.54 4171.6,-461.78 4176.91,-460.09 4182.63,-458.48 4188.72,-456.95 4195.16,-455.51 4201.92,-454.14 4208.97,-452.85 4216.29,-451.65 4223.83,-450.53 4231.58,-449.5 4239.5,-448.56 4247.55,-447.7 4255.72,-446.93 4263.97,-446.24 4272.27,-445.64 4280.59,-445.13 4288.91,-444.71 4297.2,-444.38 4305.44,-444.13 4313.6,-443.98 4321.65,-443.92 4329.59,-443.94 4337.38,-444.06 4345.02,-444.26 4352.48,-444.56 4359.75,-444.96 4366.81,-445.44 4373.66,-446.02 4380.28,-446.69 4386.66,-447.45 4392.8,-448.31 4398.69,-449.26 4404.31,-450.3 4409.68,-451.44 4414.77,-452.67 4419.6,-454 4424.15,-455.41 4428.43,-456.91 4432.43,-458.5 4436.15,-460.18 4439.59,-461.94 4442.76,-463.78 4445.64,-465.7 4448.24,-467.69 4450.56,-469.75 4452.6,-471.88 4454.35,-474.07 4455.81,-476.31 4456.99,-478.61 4457.88,-480.95 4458.47,-483.32 4458.77,-485.73 4458.78,-488.16 4458.48,-490.61 4457.87,-493.07 4456.96,-495.52 4455.74,-497.97 4454.19,-500.4 4452.33,-502.81 4450.15,-505.19 4447.64,-507.52 4444.8,-509.8 4441.62,-512.02 4438.12,-514.18 4434.28,-516.25 4430.1,-518.25 4425.59,-520.14 4420.75,-521.94 4415.58,-523.63 4410.08,-525.21 4404.27,-526.66 4398.14,-527.99 4391.72,-529.18 4384.99,-530.23 4377.99,-531.14 4370.73,-531.91 4363.21,-532.53 4355.46,-532.99 4347.5,-533.3 4339.34,-533.45 4331.01,-533.45 4322.53,-533.3 4313.94,-532.99 4305.24,-532.52 4296.49,-531.91 4287.69,-531.15 4278.88,-530.25 4270.11,-529.2 4261.38,-528.02 4252.75,-526.72 4244.24,-525.29 4235.88,-523.74 4227.71,-522.08 4219.76,-520.32 4212.06,-518.46 4204.65,-516.51"/>
<text text-anchor="middle" x="4314.07" y="-481.92" font-family="sans-serif" font-size="16.00">LocalizacionContexto</text>
</g>
<!-- TraduccionContexto -->
<g id="node19" class="node">
<title>TraduccionContexto</title>
<polygon fill="none" stroke="black" stroke-width="2" points="4273.1,-296.94 4282.18,-296.09 4291.32,-295.36 4300.47,-294.76 4309.61,-294.29 4318.7,-293.95 4327.71,-293.73 4336.59,-293.66 4345.32,-293.72 4353.86,-293.91 4362.2,-294.24 4370.29,-294.71 4378.11,-295.31 4385.64,-296.05 4392.86,-296.92 4399.74,-297.92 4406.28,-299.05 4412.45,-300.3 4418.24,-301.66 4423.63,-303.15 4428.63,-304.74 4433.23,-306.44 4437.41,-308.24 4441.19,-310.13 4444.55,-312.11 4447.5,-314.17 4450.04,-316.3 4452.18,-318.5 4453.92,-320.76 4455.27,-323.07 4456.25,-325.42 4456.85,-327.81 4457.09,-330.22 4456.98,-332.65 4456.53,-335.1 4455.75,-337.54 4454.66,-339.98 4453.27,-342.41 4451.59,-344.82 4449.63,-347.2 4447.4,-349.55 4444.91,-351.85 4442.18,-354.11 4439.22,-356.3 4436.03,-358.44 4432.62,-360.51 4429.01,-362.51 4425.19,-364.43 4421.18,-366.26 4416.97,-368.01 4412.59,-369.67 4408.02,-371.23 4403.28,-372.69 4398.38,-374.06 4393.3,-375.32 4388.06,-376.47 4382.66,-377.51 4377.1,-378.45 4371.38,-379.28 4365.52,-379.99 4359.51,-380.59 4353.35,-381.08 4347.06,-381.46 4340.64,-381.73 4334.08,-381.89 4327.41,-381.94 4320.63,-381.88 4313.75,-381.71 4306.78,-381.44 4299.73,-381.06 4292.62,-380.58 4285.45,-380 4278.25,-379.32 4271.03,-378.55 4263.81,-377.68 4256.61,-376.72 4249.46,-375.67 4242.37,-374.53 4235.36,-373.31 4228.47,-372.01 4221.71,-370.63 4215.11,-369.17 4208.7,-367.64 4202.51,-366.05 4196.56,-364.38 4190.88,-362.66 4185.49,-360.87 4180.43,-359.03 4175.71,-357.13 4171.37,-355.19 4167.42,-353.2 4163.9,-351.17 4160.81,-349.1 4158.19,-347 4156.05,-344.88 4154.4,-342.72 4153.27,-340.55 4152.66,-338.37 4152.59,-336.17 4153.05,-333.98 4154.06,-331.78 4155.62,-329.59 4157.73,-327.41 4160.38,-325.25 4163.57,-323.11 4167.29,-321 4171.53,-318.93 4176.27,-316.9 4181.5,-314.91 4187.2,-312.98 4193.34,-311.11 4199.91,-309.31 4206.87,-307.57 4214.2,-305.91 4221.87,-304.34 4229.84,-302.85 4238.09,-301.46 4246.57,-300.17 4255.26,-298.98 4264.11,-297.9 4273.1,-296.94"/>
<text text-anchor="middle" x="4314.07" y="-335.24" font-family="sans-serif" font-size="16.00">TraduccionContexto</text>
</g>
<!-- LocalizacionContexto&#45;&gt;TraduccionContexto -->
<g id="edge13" class="edge">
<title>LocalizacionContexto&#45;&gt;TraduccionContexto</title>
<path fill="none" stroke="black" stroke-width="2" d="M4314.07,-443.65C4314.07,-424.35 4314.07,-401.37 4314.07,-381.97"/>
<text text-anchor="middle" x="4348.57" y="-409.29" font-family="sans-serif" font-size="12.00">Partnership</text>
</g>
<!-- OrdenesContexto -->
<g id="node20" class="node">
<title>OrdenesContexto</title>
<polygon fill="none" stroke="black" stroke-width="2" points="4750.84,-507.38 4746.72,-509.89 4742.32,-512.32 4737.64,-514.66 4732.7,-516.92 4727.53,-519.06 4722.14,-521.1 4716.55,-523.01 4710.77,-524.79 4704.84,-526.44 4698.76,-527.94 4692.55,-529.3 4686.24,-530.5 4679.83,-531.55 4673.36,-532.43 4666.83,-533.15 4660.27,-533.71 4653.69,-534.1 4647.11,-534.33 4640.54,-534.39 4633.99,-534.3 4627.5,-534.04 4621.06,-533.62 4614.7,-533.05 4608.42,-532.33 4602.24,-531.47 4596.17,-530.47 4590.23,-529.34 4584.43,-528.08 4578.77,-526.71 4573.26,-525.22 4567.93,-523.64 4562.77,-521.95 4557.8,-520.19 4553.03,-518.34 4548.46,-516.42 4544.1,-514.44 4539.97,-512.4 4536.07,-510.32 4532.4,-508.2 4528.98,-506.05 4525.82,-503.88 4522.91,-501.69 4520.27,-499.49 4517.91,-497.29 4515.82,-495.09 4514.02,-492.9 4512.52,-490.73 4511.31,-488.57 4510.41,-486.44 4509.81,-484.33 4509.53,-482.26 4509.56,-480.21 4509.92,-478.21 4510.59,-476.24 4511.6,-474.32 4512.93,-472.44 4514.58,-470.61 4516.57,-468.82 4518.89,-467.08 4521.53,-465.39 4524.49,-463.75 4527.78,-462.16 4531.38,-460.63 4535.29,-459.14 4539.51,-457.71 4544.02,-456.34 4548.82,-455.02 4553.9,-453.76 4559.25,-452.56 4564.85,-451.41 4570.69,-450.33 4576.76,-449.31 4583.04,-448.36 4589.51,-447.48 4596.16,-446.66 4602.97,-445.92 4609.92,-445.25 4616.98,-444.66 4624.14,-444.16 4631.38,-443.73 4638.66,-443.4 4645.98,-443.16 4653.3,-443.01 4660.6,-442.96 4667.85,-443.01 4675.04,-443.17 4682.14,-443.43 4689.12,-443.81 4695.96,-444.29 4702.64,-444.89 4709.13,-445.61 4715.41,-446.45 4721.46,-447.41 4727.25,-448.49 4732.78,-449.69 4738.01,-451.02 4742.93,-452.46 4747.53,-454.02 4751.78,-455.69 4755.68,-457.48 4759.21,-459.38 4762.37,-461.38 4765.13,-463.49 4767.49,-465.69 4769.46,-467.98 4771.01,-470.36 4772.15,-472.81 4772.88,-475.32 4773.19,-477.9 4773.09,-480.53 4772.59,-483.2 4771.67,-485.9 4770.36,-488.62 4768.67,-491.35 4766.58,-494.09 4764.13,-496.81 4761.32,-499.51 4758.16,-502.18 4754.66,-504.81 4750.84,-507.38"/>
<text text-anchor="middle" x="4637.07" y="-481.92" font-family="sans-serif" font-size="16.00">OrdenesContexto</text>
</g>
<!-- PagosContexto -->
<g id="node21" class="node">
<title>PagosContexto</title>
<polygon fill="none" stroke="black" stroke-width="2" points="4536.54,-316.71 4540.34,-314.23 4544.38,-311.82 4548.67,-309.51 4553.18,-307.28 4557.89,-305.17 4562.8,-303.16 4567.88,-301.28 4573.11,-299.53 4578.49,-297.92 4583.98,-296.45 4589.58,-295.13 4595.28,-293.97 4601.04,-292.96 4606.86,-292.11 4612.71,-291.43 4618.6,-290.91 4624.49,-290.55 4630.38,-290.37 4636.24,-290.34 4642.07,-290.48 4647.86,-290.77 4653.58,-291.23 4659.24,-291.84 4664.81,-292.59 4670.28,-293.49 4675.65,-294.52 4680.9,-295.69 4686.02,-296.98 4691.01,-298.39 4695.85,-299.9 4700.54,-301.52 4705.06,-303.24 4709.41,-305.03 4713.59,-306.91 4717.57,-308.86 4721.37,-310.86 4724.96,-312.92 4728.35,-315.02 4731.52,-317.17 4734.47,-319.34 4737.2,-321.53 4739.69,-323.73 4741.94,-325.95 4743.95,-328.16 4745.71,-330.37 4747.21,-332.57 4748.45,-334.76 4749.43,-336.92 4750.14,-339.06 4750.57,-341.17 4750.73,-343.25 4750.6,-345.29 4750.19,-347.29 4749.5,-349.26 4748.51,-351.17 4747.24,-353.05 4745.67,-354.87 4743.81,-356.65 4741.67,-358.37 4739.23,-360.05 4736.51,-361.67 4733.5,-363.24 4730.22,-364.75 4726.66,-366.21 4722.83,-367.62 4718.73,-368.97 4714.39,-370.26 4709.8,-371.49 4704.97,-372.66 4699.92,-373.77 4694.66,-374.82 4689.19,-375.8 4683.54,-376.72 4677.73,-377.57 4671.75,-378.34 4665.64,-379.04 4659.41,-379.67 4653.08,-380.22 4646.67,-380.68 4640.19,-381.06 4633.67,-381.36 4627.13,-381.56 4620.6,-381.66 4614.08,-381.67 4607.61,-381.57 4601.2,-381.38 4594.88,-381.07 4588.66,-380.66 4582.58,-380.13 4576.65,-379.49 4570.89,-378.73 4565.33,-377.85 4559.98,-376.86 4554.85,-375.75 4549.98,-374.51 4545.37,-373.16 4541.05,-371.69 4537.02,-370.1 4533.3,-368.4 4529.9,-366.59 4526.84,-364.67 4524.12,-362.65 4521.75,-360.53 4519.74,-358.31 4518.1,-356.01 4516.82,-353.62 4515.92,-351.17 4515.39,-348.64 4515.23,-346.07 4515.44,-343.44 4516.01,-340.77 4516.95,-338.08 4518.25,-335.36 4519.89,-332.64 4521.88,-329.92 4524.19,-327.21 4526.83,-324.52 4529.78,-321.87 4533.02,-319.26 4536.54,-316.71"/>
<text text-anchor="middle" x="4637.07" y="-335.24" font-family="sans-serif" font-size="16.00">PagosContexto</text>
</g>
<!-- OrdenesContexto&#45;&gt;PagosContexto -->
<g id="edge14" class="edge">
<title>OrdenesContexto&#45;&gt;PagosContexto</title>
<path fill="none" stroke="black" stroke-width="2" d="M4637.07,-443.26C4637.07,-423.89 4637.07,-400.88 4637.07,-381.5"/>
<text text-anchor="middle" x="4671.57" y="-409.29" font-family="sans-serif" font-size="12.00">Partnership</text>
</g>
<!-- PedidosyTransaccionesContext -->
<g id="node22" class="node">
<title>PedidosyTransaccionesContext</title>
<polygon fill="none" stroke="black" stroke-width="2" points="1630.66,-370.77 1620.7,-368.83 1611.19,-366.8 1602.18,-364.71 1593.71,-362.57 1585.81,-360.36 1578.52,-358.12 1571.86,-355.84 1565.87,-353.53 1560.57,-351.2 1555.98,-348.86 1552.12,-346.51 1549.01,-344.17 1546.65,-341.84 1545.06,-339.52 1544.24,-337.22 1544.19,-334.95 1544.91,-332.72 1546.39,-330.52 1548.62,-328.37 1551.59,-326.27 1555.28,-324.22 1559.67,-322.23 1564.73,-320.3 1570.45,-318.43 1576.79,-316.63 1583.72,-314.9 1591.21,-313.24 1599.23,-311.66 1607.73,-310.16 1616.68,-308.73 1626.04,-307.38 1635.76,-306.11 1645.82,-304.92 1656.16,-303.82 1666.75,-302.8 1677.54,-301.86 1688.5,-301.01 1699.58,-300.25 1710.74,-299.57 1721.95,-298.98 1733.18,-298.48 1744.37,-298.06 1755.51,-297.74 1766.55,-297.5 1777.48,-297.36 1788.25,-297.3 1798.85,-297.34 1809.24,-297.47 1819.41,-297.69 1829.34,-298.01 1839.01,-298.42 1848.4,-298.93 1857.49,-299.53 1866.28,-300.22 1874.75,-301.02 1882.89,-301.9 1890.7,-302.89 1898.17,-303.97 1905.29,-305.14 1912.05,-306.41 1918.46,-307.77 1924.52,-309.22 1930.21,-310.76 1935.53,-312.4 1940.5,-314.11 1945.09,-315.91 1949.32,-317.79 1953.18,-319.75 1956.66,-321.78 1959.78,-323.88 1962.51,-326.04 1964.87,-328.26 1966.85,-330.53 1968.44,-332.85 1969.64,-335.21 1970.44,-337.6 1970.85,-340.02 1970.84,-342.46 1970.43,-344.91 1969.59,-347.36 1968.33,-349.81 1966.64,-352.25 1964.51,-354.66 1961.94,-357.05 1958.92,-359.39 1955.44,-361.69 1951.5,-363.94 1947.09,-366.11 1942.22,-368.22 1936.88,-370.24 1931.08,-372.18 1924.8,-374.02 1918.06,-375.75 1910.87,-377.37 1903.22,-378.88 1895.12,-380.26 1886.59,-381.51 1877.65,-382.63 1868.3,-383.6 1858.56,-384.44 1848.46,-385.12 1838.02,-385.66 1827.27,-386.05 1816.22,-386.29 1804.92,-386.37 1793.39,-386.3 1781.67,-386.08 1769.8,-385.7 1757.81,-385.18 1745.75,-384.51 1733.65,-383.7 1721.57,-382.75 1709.54,-381.66 1697.6,-380.45 1685.82,-379.11 1674.22,-377.65 1662.86,-376.08 1651.78,-374.41 1641.04,-372.64 1630.66,-370.77"/>
<text text-anchor="middle" x="1774.07" y="-335.24" font-family="sans-serif" font-size="16.00">PedidosyTransaccionesContext</text>
</g>
<!-- PedidosyTransaccionesContext&#45;&gt;AnalisisYReporteContext -->
<g id="edge15" class="edge">
<title>PedidosyTransaccionesContext&#45;&gt;AnalisisYReporteContext</title>
<path fill="none" stroke="black" stroke-width="2" d="M1732.53,-298.5C1711.88,-278.83 1686.91,-255.06 1665.94,-235.1"/>
<text text-anchor="middle" x="1778.57" y="-262.59" font-family="sans-serif" font-size="12.00"> &#160;&#160;&#160;&#160;&#160;&#160;&#160;&#160;&#160;&#160;&#160;&#160;&#160;&#160;&#160;&#160;&#160;&#160;&#160;&#160;&#160;&#160;&#160;&#160;&#160;&#160;&#160;&#160;&#160;&#160;&#160;&#160;&#160;&#160;&#160;&#160;&#160;&#160;&#160;</text>
<polygon fill="white" stroke="transparent" points="1658.94,-226.1 1658.94,-243.1 1672.94,-243.1 1672.94,-226.1 1658.94,-226.1"/>
<text text-anchor="start" x="1660.94" y="-231.5" font-family="sans-serif" font-size="12.00">D</text>
<polygon fill="white" stroke="transparent" points="1725.53,-289.5 1725.53,-306.5 1739.53,-306.5 1739.53,-289.5 1725.53,-289.5"/>
<text text-anchor="start" x="1727.53" y="-294.9" font-family="sans-serif" font-size="12.00">U</text>
</g>
<!-- PerfilClienteContext -->
<g id="node23" class="node">
<title>PerfilClienteContext</title>
<polygon fill="none" stroke="black" stroke-width="2" points="3322.83,-499.07 3320.1,-501.83 3317.01,-504.53 3313.56,-507.17 3309.78,-509.73 3305.66,-512.2 3301.24,-514.58 3296.51,-516.85 3291.5,-519.01 3286.22,-521.04 3280.68,-522.95 3274.91,-524.72 3268.91,-526.34 3262.71,-527.82 3256.33,-529.14 3249.78,-530.31 3243.07,-531.32 3236.23,-532.17 3229.28,-532.85 3222.22,-533.37 3215.09,-533.73 3207.89,-533.93 3200.66,-533.97 3193.39,-533.86 3186.12,-533.59 3178.85,-533.17 3171.61,-532.62 3164.42,-531.92 3157.28,-531.09 3150.23,-530.13 3143.27,-529.06 3136.41,-527.87 3129.69,-526.57 3123.11,-525.18 3116.68,-523.69 3110.43,-522.13 3104.37,-520.48 3098.5,-518.77 3092.86,-516.99 3087.45,-515.17 3082.28,-513.29 3077.37,-511.37 3072.73,-509.42 3068.37,-507.44 3064.3,-505.44 3060.54,-503.43 3057.09,-501.4 3053.97,-499.36 3051.19,-497.32 3048.75,-495.29 3046.66,-493.26 3044.93,-491.23 3043.56,-489.22 3042.57,-487.22 3041.95,-485.24 3041.72,-483.28 3041.86,-481.34 3042.39,-479.42 3043.31,-477.52 3044.62,-475.65 3046.31,-473.8 3048.39,-471.98 3050.85,-470.19 3053.69,-468.42 3056.89,-466.69 3060.47,-464.99 3064.4,-463.32 3068.68,-461.69 3073.3,-460.09 3078.25,-458.53 3083.51,-457.02 3089.08,-455.54 3094.94,-454.12 3101.07,-452.74 3107.45,-451.42 3114.07,-450.15 3120.92,-448.94 3127.96,-447.8 3135.19,-446.73 3142.58,-445.73 3150.1,-444.8 3157.74,-443.97 3165.48,-443.22 3173.28,-442.56 3181.13,-442 3189,-441.54 3196.88,-441.19 3204.72,-440.95 3212.52,-440.83 3220.24,-440.84 3227.87,-440.96 3235.37,-441.22 3242.73,-441.6 3249.92,-442.12 3256.92,-442.78 3263.71,-443.57 3270.27,-444.51 3276.58,-445.58 3282.62,-446.8 3288.36,-448.15 3293.8,-449.63 3298.92,-451.26 3303.7,-453.01 3308.13,-454.89 3312.19,-456.89 3315.89,-459 3319.19,-461.23 3322.11,-463.56 3324.62,-465.99 3326.73,-468.5 3328.43,-471.1 3329.71,-473.76 3330.58,-476.48 3331.04,-479.25 3331.08,-482.06 3330.7,-484.89 3329.92,-487.74 3328.74,-490.6 3327.16,-493.45 3325.18,-496.28 3322.83,-499.07"/>
<text text-anchor="middle" x="3185.07" y="-481.92" font-family="sans-serif" font-size="16.00">PerfilClienteContext</text>
</g>
<!-- PerfilClienteContext&#45;&gt;ServicioClienteContext -->
<g id="edge16" class="edge">
<title>PerfilClienteContext&#45;&gt;ServicioClienteContext</title>
<path fill="none" stroke="black" stroke-width="2" d="M3240.27,-441.31C3262.82,-423.58 3288.9,-403.08 3311.67,-385.17"/>
<text text-anchor="middle" x="3358.57" y="-409.29" font-family="sans-serif" font-size="12.00"> &#160;&#160;&#160;&#160;&#160;&#160;&#160;&#160;&#160;&#160;&#160;&#160;&#160;&#160;&#160;&#160;&#160;&#160;&#160;&#160;&#160;&#160;&#160;&#160;&#160;&#160;&#160;&#160;&#160;&#160;&#160;&#160;&#160;&#160;&#160;&#160;&#160;&#160;&#160;</text>
<polygon fill="white" stroke="transparent" points="3304.67,-376.17 3304.67,-393.17 3318.67,-393.17 3318.67,-376.17 3304.67,-376.17"/>
<text text-anchor="start" x="3306.67" y="-381.57" font-family="sans-serif" font-size="12.00">D</text>
<polygon fill="white" stroke="transparent" points="3233.27,-432.31 3233.27,-449.31 3247.27,-449.31 3247.27,-432.31 3233.27,-432.31"/>
<text text-anchor="start" x="3235.27" y="-437.71" font-family="sans-serif" font-size="12.00">U</text>
</g>
<!-- PreferenciasClienteContext -->
<g id="node24" class="node">
<title>PreferenciasClienteContext</title>
<polygon fill="none" stroke="black" stroke-width="2" points="3531.53,-442.18 3543.55,-441.82 3555.56,-441.59 3567.51,-441.47 3579.33,-441.49 3591,-441.62 3602.46,-441.89 3613.68,-442.28 3624.6,-442.79 3635.19,-443.43 3645.41,-444.19 3655.22,-445.08 3664.61,-446.08 3673.52,-447.2 3681.95,-448.43 3689.86,-449.77 3697.24,-451.22 3704.07,-452.77 3710.34,-454.42 3716.03,-456.16 3721.14,-457.99 3725.66,-459.9 3729.6,-461.89 3732.95,-463.95 3735.71,-466.07 3737.91,-468.25 3739.53,-470.48 3740.61,-472.75 3741.14,-475.06 3741.14,-477.4 3740.63,-479.77 3739.64,-482.14 3738.17,-484.53 3736.24,-486.92 3733.88,-489.3 3731.11,-491.66 3727.95,-494 3724.42,-496.32 3720.54,-498.6 3716.33,-500.84 3711.8,-503.03 3706.99,-505.16 3701.91,-507.24 3696.57,-509.24 3691,-511.18 3685.2,-513.04 3679.19,-514.81 3672.99,-516.5 3666.6,-518.09 3660.04,-519.59 3653.31,-520.99 3646.43,-522.29 3639.4,-523.48 3632.24,-524.57 3624.94,-525.54 3617.51,-526.4 3609.96,-527.14 3602.29,-527.77 3594.51,-528.29 3586.62,-528.68 3578.62,-528.96 3570.53,-529.12 3562.35,-529.17 3554.08,-529.09 3545.74,-528.91 3537.33,-528.61 3528.86,-528.19 3520.34,-527.67 3511.78,-527.03 3503.2,-526.29 3494.62,-525.45 3486.05,-524.51 3477.5,-523.46 3469,-522.32 3460.58,-521.09 3452.24,-519.77 3444.03,-518.36 3435.95,-516.87 3428.05,-515.31 3420.35,-513.67 3412.87,-511.96 3405.66,-510.18 3398.73,-508.34 3392.13,-506.45 3385.88,-504.5 3380.01,-502.51 3374.55,-500.47 3369.54,-498.39 3365.01,-496.28 3360.98,-494.14 3357.49,-491.98 3354.55,-489.8 3352.2,-487.61 3350.44,-485.4 3349.32,-483.2 3348.83,-481 3349,-478.81 3349.84,-476.62 3351.36,-474.46 3353.56,-472.33 3356.44,-470.22 3360.01,-468.15 3364.26,-466.11 3369.17,-464.13 3374.75,-462.19 3380.97,-460.31 3387.82,-458.5 3395.26,-456.75 3403.29,-455.07 3411.86,-453.47 3420.95,-451.95 3430.52,-450.52 3440.54,-449.18 3450.96,-447.93 3461.75,-446.78 3472.85,-445.74 3484.23,-444.8 3495.83,-443.97 3507.62,-443.26 3519.53,-442.66 3531.53,-442.18"/>
<text text-anchor="middle" x="3552.07" y="-481.92" font-family="sans-serif" font-size="16.00">PreferenciasClienteContext</text>
</g>
<!-- PreferenciasClienteContext&#45;&gt;ServicioClienteContext -->
<g id="edge17" class="edge">
<title>PreferenciasClienteContext&#45;&gt;ServicioClienteContext</title>
<path fill="none" stroke="black" stroke-width="2" d="M3500.12,-443.65C3476.02,-424.6 3447.4,-401.97 3423.06,-382.73"/>
<text text-anchor="middle" x="3541.57" y="-409.29" font-family="sans-serif" font-size="12.00"> &#160;&#160;&#160;&#160;&#160;&#160;&#160;&#160;&#160;&#160;&#160;&#160;&#160;&#160;&#160;&#160;&#160;&#160;&#160;&#160;&#160;&#160;&#160;&#160;&#160;&#160;&#160;&#160;&#160;&#160;&#160;&#160;&#160;&#160;&#160;&#160;&#160;&#160;&#160;</text>
<polygon fill="white" stroke="transparent" points="3416.06,-373.73 3416.06,-390.73 3430.06,-390.73 3430.06,-373.73 3416.06,-373.73"/>
<text text-anchor="start" x="3418.06" y="-379.13" font-family="sans-serif" font-size="12.00">D</text>
<polygon fill="white" stroke="transparent" points="3493.12,-434.65 3493.12,-451.65 3507.12,-451.65 3507.12,-434.65 3493.12,-434.65"/>
<text text-anchor="start" x="3495.12" y="-440.05" font-family="sans-serif" font-size="12.00">U</text>
</g>
<!-- PromocionesContexto -->
<g id="node25" class="node">
<title>PromocionesContexto</title>
<polygon fill="none" stroke="black" stroke-width="2" points="2741.17,-477.07 2743.31,-479.88 2745.02,-482.69 2746.29,-485.5 2747.11,-488.29 2747.47,-491.05 2747.38,-493.78 2746.82,-496.46 2745.8,-499.08 2744.32,-501.63 2742.38,-504.11 2739.98,-506.51 2737.13,-508.81 2733.83,-511.01 2730.1,-513.1 2725.94,-515.09 2721.37,-516.96 2716.39,-518.7 2711.03,-520.33 2705.31,-521.82 2699.22,-523.19 2692.81,-524.42 2686.09,-525.52 2679.07,-526.49 2671.79,-527.33 2664.26,-528.04 2656.51,-528.62 2648.56,-529.07 2640.45,-529.4 2632.2,-529.6 2623.82,-529.69 2615.36,-529.66 2606.84,-529.52 2598.28,-529.28 2589.72,-528.93 2581.17,-528.48 2572.67,-527.94 2564.24,-527.31 2555.92,-526.59 2547.71,-525.8 2539.66,-524.92 2531.78,-523.97 2524.09,-522.95 2516.62,-521.87 2509.39,-520.72 2502.41,-519.52 2495.71,-518.26 2489.31,-516.94 2483.21,-515.57 2477.45,-514.16 2472.02,-512.69 2466.94,-511.18 2462.22,-509.63 2457.88,-508.03 2453.92,-506.39 2450.35,-504.72 2447.17,-503 2444.39,-501.25 2442.01,-499.46 2440.04,-497.63 2438.47,-495.77 2437.31,-493.87 2436.56,-491.95 2436.21,-489.99 2436.26,-488 2436.71,-485.99 2437.55,-483.96 2438.78,-481.9 2440.39,-479.83 2442.38,-477.74 2444.73,-475.64 2447.44,-473.54 2450.5,-471.43 2453.9,-469.32 2457.63,-467.23 2461.69,-465.15 2466.05,-463.09 2470.71,-461.05 2475.66,-459.05 2480.89,-457.09 2486.38,-455.18 2492.12,-453.32 2498.1,-451.52 2504.3,-449.8 2510.71,-448.15 2517.32,-446.6 2524.11,-445.13 2531.08,-443.77 2538.19,-442.51 2545.44,-441.38 2552.81,-440.36 2560.29,-439.48 2567.86,-438.73 2575.49,-438.13 2583.19,-437.67 2590.92,-437.36 2598.67,-437.21 2606.43,-437.22 2614.16,-437.39 2621.86,-437.72 2629.51,-438.21 2637.08,-438.87 2644.56,-439.7 2651.92,-440.69 2659.16,-441.83 2666.24,-443.14 2673.14,-444.59 2679.86,-446.2 2686.36,-447.94 2692.63,-449.82 2698.65,-451.84 2704.4,-453.97 2709.87,-456.22 2715.02,-458.57 2719.86,-461.01 2724.35,-463.54 2728.48,-466.14 2732.25,-468.81 2735.62,-471.52 2738.6,-474.28 2741.17,-477.07"/>
<text text-anchor="middle" x="2589.07" y="-481.92" font-family="sans-serif" font-size="16.00">PromocionesContexto</text>
</g>
<!-- PromocionesContexto&#45;&gt;GestionDeProductosContexto -->
<g id="edge18" class="edge">
<title>PromocionesContexto&#45;&gt;GestionDeProductosContexto</title>
<path fill="none" stroke="black" stroke-width="2" d="M2589.07,-437.35C2589.07,-420.21 2589.07,-400.93 2589.07,-384.09"/>
<text text-anchor="middle" x="2623.57" y="-409.29" font-family="sans-serif" font-size="12.00">Partnership</text>
</g>
<!-- RegistroClienteContext -->
<g id="node26" class="node">
<title>RegistroClienteContext</title>
<polygon fill="none" stroke="black" stroke-width="2" points="3819.24,-511.68 3812.82,-509.41 3806.8,-507.07 3801.21,-504.68 3796.07,-502.26 3791.41,-499.81 3787.24,-497.33 3783.58,-494.84 3780.45,-492.35 3777.87,-489.87 3775.84,-487.4 3774.38,-484.95 3773.49,-482.53 3773.17,-480.15 3773.44,-477.81 3774.29,-475.52 3775.71,-473.29 3777.7,-471.12 3780.25,-469.01 3783.35,-466.98 3786.99,-465.02 3791.15,-463.14 3795.81,-461.34 3800.95,-459.63 3806.55,-458 3812.59,-456.47 3819.04,-455.02 3825.88,-453.66 3833.06,-452.4 3840.58,-451.23 3848.39,-450.15 3856.46,-449.17 3864.77,-448.28 3873.27,-447.48 3881.94,-446.77 3890.75,-446.15 3899.66,-445.63 3908.65,-445.19 3917.67,-444.85 3926.7,-444.59 3935.71,-444.42 3944.68,-444.33 3953.56,-444.34 3962.35,-444.42 3971,-444.6 3979.5,-444.85 3987.83,-445.2 3995.97,-445.62 4003.89,-446.13 4011.58,-446.72 4019.02,-447.4 4026.19,-448.15 4033.1,-448.99 4039.71,-449.92 4046.03,-450.92 4052.04,-452.01 4057.74,-453.18 4063.12,-454.44 4068.18,-455.77 4072.9,-457.19 4077.3,-458.68 4081.36,-460.26 4085.08,-461.91 4088.47,-463.63 4091.52,-465.43 4094.24,-467.3 4096.62,-469.24 4098.66,-471.24 4100.38,-473.31 4101.76,-475.43 4102.8,-477.61 4103.52,-479.83 4103.91,-482.1 4103.97,-484.41 4103.7,-486.75 4103.11,-489.11 4102.19,-491.49 4100.94,-493.89 4099.37,-496.29 4097.47,-498.68 4095.25,-501.06 4092.71,-503.43 4089.84,-505.76 4086.65,-508.06 4083.13,-510.31 4079.29,-512.51 4075.14,-514.64 4070.66,-516.7 4065.87,-518.68 4060.76,-520.58 4055.35,-522.37 4049.64,-524.06 4043.62,-525.64 4037.32,-527.1 4030.73,-528.43 4023.87,-529.63 4016.75,-530.69 4009.39,-531.61 4001.78,-532.38 3993.95,-533 3985.92,-533.46 3977.7,-533.77 3969.32,-533.92 3960.79,-533.9 3952.13,-533.73 3943.38,-533.4 3934.55,-532.91 3925.67,-532.26 3916.77,-531.46 3907.87,-530.51 3899.02,-529.41 3890.22,-528.17 3881.53,-526.79 3872.97,-525.28 3864.56,-523.65 3856.35,-521.9 3848.36,-520.04 3840.62,-518.09 3833.17,-516.03 3826.03,-513.9 3819.24,-511.68"/>
<text text-anchor="middle" x="3950.07" y="-481.92" font-family="sans-serif" font-size="16.00">RegistroClienteContext</text>
</g>
<!-- RegistroClienteContext&#45;&gt;ServicioClienteContext -->
<g id="edge19" class="edge">
<title>RegistroClienteContext&#45;&gt;ServicioClienteContext</title>
<path fill="none" stroke="black" stroke-width="2" d="M3828.06,-453.13C3806.74,-447.67 3784.76,-442.09 3764.07,-436.89 3671.45,-413.62 3566.44,-387.91 3487.99,-368.83"/>
<text text-anchor="middle" x="3764.57" y="-409.29" font-family="sans-serif" font-size="12.00"> &#160;&#160;&#160;&#160;&#160;&#160;&#160;&#160;&#160;&#160;&#160;&#160;&#160;&#160;&#160;&#160;&#160;&#160;&#160;&#160;&#160;&#160;&#160;&#160;&#160;&#160;&#160;&#160;&#160;&#160;&#160;&#160;&#160;&#160;&#160;&#160;&#160;&#160;&#160;</text>
<polygon fill="white" stroke="transparent" points="3480.99,-359.83 3480.99,-376.83 3494.99,-376.83 3494.99,-359.83 3480.99,-359.83"/>
<text text-anchor="start" x="3482.99" y="-365.23" font-family="sans-serif" font-size="12.00">D</text>
<polygon fill="white" stroke="transparent" points="3821.06,-444.13 3821.06,-461.13 3835.06,-461.13 3835.06,-444.13 3821.06,-444.13"/>
<text text-anchor="start" x="3823.06" y="-449.53" font-family="sans-serif" font-size="12.00">U</text>
</g>
</g>
</svg>
