<svg width="1000px" height="365px"
 viewBox="0.00 0.00 2676.97 976.54" xmlns="http://www.w3.org/2000/svg" xmlns:xlink="http://www.w3.org/1999/xlink">
<g id="graph0" class="graph" transform="scale(1.0 1.0) rotate(0) translate(4 972.54)">
<title>ContextMapGraph</title>
<polygon fill="white" stroke="transparent" points="-4,4 -4,-972.54 2672.97,-972.54 2672.97,4 -4,4"/>
<!-- AlmacenamientoContexto -->
<g id="node1" class="node">
<title>AlmacenamientoContexto</title>
<polygon fill="none" stroke="black" stroke-width="2" points="124.31,-818.47 113.56,-817.31 103.09,-816.04 92.93,-814.68 83.13,-813.23 73.73,-811.68 64.77,-810.05 56.28,-808.35 48.29,-806.57 40.85,-804.73 33.97,-802.82 27.68,-800.86 22.01,-798.85 16.97,-796.8 12.57,-794.71 8.83,-792.59 5.77,-790.44 3.37,-788.27 1.65,-786.08 0.61,-783.89 0.23,-781.69 0.51,-779.49 1.44,-777.29 3.01,-775.11 5.2,-772.95 7.98,-770.8 11.35,-768.68 15.26,-766.59 19.71,-764.54 24.65,-762.52 30.06,-760.55 35.92,-758.62 42.18,-756.75 48.82,-754.93 55.81,-753.17 63.11,-751.47 70.69,-749.84 78.52,-748.27 86.56,-746.78 94.79,-745.37 103.17,-744.04 111.68,-742.79 120.29,-741.62 128.96,-740.54 137.69,-739.56 146.43,-738.67 155.17,-737.87 163.89,-737.18 172.57,-736.59 181.19,-736.1 189.73,-735.71 198.19,-735.44 206.54,-735.27 214.78,-735.21 222.9,-735.27 230.89,-735.43 238.73,-735.71 246.43,-736.11 253.98,-736.62 261.37,-737.24 268.6,-737.98 275.66,-738.83 282.55,-739.79 289.27,-740.86 295.8,-742.04 302.15,-743.33 308.31,-744.72 314.28,-746.21 320.05,-747.8 325.61,-749.49 330.95,-751.26 336.08,-753.13 340.97,-755.07 345.62,-757.09 350.01,-759.18 354.14,-761.34 357.99,-763.55 361.55,-765.82 364.81,-768.13 367.74,-770.49 370.33,-772.88 372.57,-775.29 374.44,-777.72 375.92,-780.15 377,-782.59 377.65,-785.03 377.88,-787.45 377.65,-789.85 376.95,-792.22 375.78,-794.56 374.11,-796.85 371.94,-799.08 369.26,-801.26 366.06,-803.37 362.34,-805.41 358.09,-807.36 353.31,-809.23 348.01,-811.01 342.18,-812.68 335.83,-814.25 328.98,-815.72 321.64,-817.07 313.82,-818.3 305.53,-819.41 296.81,-820.39 287.68,-821.25 278.15,-821.98 268.27,-822.58 258.06,-823.04 247.55,-823.37 236.79,-823.57 225.82,-823.63 214.66,-823.56 203.37,-823.36 191.99,-823.03 180.56,-822.58 169.13,-821.99 157.74,-821.29 146.44,-820.46 135.28,-819.52 124.31,-818.47"/>
<text text-anchor="middle" x="199.27" y="-774.66" font-family="sans-serif" font-size="16.00">AlmacenamientoContexto</text>
</g>
<!-- StockContexto -->
<g id="node2" class="node">
<title>StockContexto</title>
<polygon fill="none" stroke="black" stroke-width="2" points="505.03,-645.35 502.99,-648.11 500.66,-650.82 498.05,-653.47 495.17,-656.05 492.02,-658.54 488.62,-660.93 484.98,-663.23 481.11,-665.41 477.02,-667.47 472.72,-669.4 468.22,-671.19 463.55,-672.85 458.7,-674.35 453.7,-675.71 448.56,-676.91 443.3,-677.95 437.92,-678.83 432.44,-679.55 426.87,-680.11 421.24,-680.51 415.54,-680.74 409.81,-680.82 404.05,-680.75 398.27,-680.52 392.5,-680.14 386.74,-679.62 381.01,-678.97 375.32,-678.17 369.68,-677.26 364.12,-676.22 358.63,-675.07 353.25,-673.81 347.97,-672.46 342.81,-671.01 337.78,-669.48 332.9,-667.87 328.18,-666.19 323.63,-664.45 319.26,-662.66 315.08,-660.81 311.1,-658.92 307.33,-657 303.79,-655.05 300.48,-653.08 297.41,-651.08 294.58,-649.08 292.02,-647.06 289.72,-645.04 287.69,-643.02 285.95,-641.01 284.48,-639 283.31,-637 282.43,-635.01 281.85,-633.04 281.58,-631.08 281.6,-629.14 281.94,-627.22 282.58,-625.32 283.53,-623.44 284.79,-621.59 286.35,-619.76 288.22,-617.96 290.39,-616.19 292.85,-614.44 295.6,-612.72 298.64,-611.04 301.96,-609.38 305.55,-607.77 309.4,-606.18 313.5,-604.64 317.85,-603.14 322.42,-601.69 327.21,-600.28 332.21,-598.93 337.4,-597.63 342.77,-596.39 348.3,-595.21 353.98,-594.1 359.79,-593.06 365.71,-592.1 371.72,-591.23 377.82,-590.44 383.97,-589.74 390.17,-589.14 396.38,-588.64 402.61,-588.25 408.81,-587.97 414.98,-587.81 421.1,-587.77 427.15,-587.86 433.11,-588.07 438.96,-588.42 444.68,-588.9 450.26,-589.52 455.67,-590.27 460.91,-591.17 465.96,-592.21 470.79,-593.39 475.41,-594.71 479.79,-596.16 483.91,-597.75 487.78,-599.48 491.38,-601.33 494.69,-603.3 497.71,-605.4 500.43,-607.6 502.84,-609.91 504.95,-612.32 506.73,-614.82 508.19,-617.4 509.33,-620.05 510.15,-622.76 510.63,-625.52 510.79,-628.32 510.62,-631.15 510.13,-634 509.33,-636.86 508.2,-639.71 506.77,-642.54 505.03,-645.35"/>
<text text-anchor="middle" x="395.27" y="-628.95" font-family="sans-serif" font-size="16.00">StockContexto</text>
</g>
<!-- AlmacenamientoContexto&#45;&gt;StockContexto -->
<g id="edge1" class="edge">
<title>AlmacenamientoContexto&#45;&gt;StockContexto</title>
<path fill="none" stroke="black" stroke-width="2" d="M254.91,-736.66C282.87,-716.17 316.52,-691.5 343.86,-671.45"/>
<text text-anchor="middle" x="358.27" y="-702.66" font-family="sans-serif" font-size="12.00">Customer/Supplier</text>
<polygon fill="white" stroke="transparent" points="336.86,-662.45 336.86,-679.45 350.86,-679.45 350.86,-662.45 336.86,-662.45"/>
<text text-anchor="start" x="338.86" y="-667.85" font-family="sans-serif" font-size="12.00">D</text>
<polygon fill="white" stroke="transparent" points="247.91,-727.66 247.91,-744.66 261.91,-744.66 261.91,-727.66 247.91,-727.66"/>
<text text-anchor="start" x="249.91" y="-733.06" font-family="sans-serif" font-size="12.00">U</text>
</g>
<!-- ProveedoresContexto -->
<g id="node3" class="node">
<title>ProveedoresContexto</title>
<polygon fill="none" stroke="black" stroke-width="2" points="282.21,-515.93 275.37,-513.84 268.88,-511.69 262.77,-509.48 257.07,-507.21 251.8,-504.9 246.99,-502.56 242.66,-500.19 238.82,-497.8 235.49,-495.4 232.69,-493.01 230.42,-490.61 228.71,-488.23 227.55,-485.87 226.94,-483.54 226.9,-481.24 227.42,-478.98 228.49,-476.76 230.11,-474.6 232.27,-472.49 234.96,-470.44 238.17,-468.45 241.88,-466.53 246.07,-464.69 250.72,-462.91 255.82,-461.21 261.33,-459.59 267.24,-458.05 273.51,-456.59 280.12,-455.22 287.04,-453.92 294.24,-452.72 301.7,-451.6 309.37,-450.56 317.24,-449.62 325.26,-448.76 333.42,-447.98 341.67,-447.3 350,-446.7 358.36,-446.19 366.74,-445.76 375.11,-445.43 383.43,-445.18 391.69,-445.02 399.86,-444.95 407.92,-444.96 415.84,-445.07 423.62,-445.26 431.22,-445.54 438.64,-445.92 445.86,-446.38 452.86,-446.93 459.63,-447.57 466.16,-448.3 472.45,-449.12 478.48,-450.04 484.24,-451.04 489.74,-452.14 494.96,-453.32 499.9,-454.59 504.56,-455.96 508.94,-457.41 513.03,-458.94 516.84,-460.56 520.35,-462.27 523.58,-464.05 526.52,-465.91 529.17,-467.84 531.52,-469.85 533.59,-471.92 535.37,-474.06 536.85,-476.25 538.04,-478.49 538.94,-480.79 539.55,-483.12 539.85,-485.49 539.86,-487.88 539.57,-490.3 538.97,-492.73 538.07,-495.16 536.86,-497.59 535.34,-500.01 533.51,-502.42 531.35,-504.79 528.88,-507.13 526.09,-509.42 522.98,-511.66 519.54,-513.83 515.77,-515.94 511.68,-517.97 507.27,-519.9 502.53,-521.74 497.48,-523.48 492.1,-525.11 486.42,-526.62 480.44,-528.01 474.15,-529.26 467.59,-530.38 460.74,-531.36 453.64,-532.2 446.29,-532.89 438.7,-533.42 430.9,-533.81 422.9,-534.04 414.73,-534.11 406.41,-534.02 397.96,-533.78 389.41,-533.39 380.78,-532.84 372.1,-532.15 363.4,-531.3 354.72,-530.32 346.07,-529.19 337.5,-527.94 329.03,-526.55 320.7,-525.04 312.53,-523.42 304.57,-521.69 296.84,-519.86 289.38,-517.94 282.21,-515.93"/>
<text text-anchor="middle" x="395.27" y="-482.63" font-family="sans-serif" font-size="16.00">ProveedoresContexto</text>
</g>
<!-- StockContexto&#45;&gt;ProveedoresContexto -->
<g id="edge2" class="edge">
<title>StockContexto&#45;&gt;ProveedoresContexto</title>
<path fill="none" stroke="black" stroke-width="2" d="M395.27,-588.45C395.27,-571.18 395.27,-551.27 395.27,-533.71"/>
<text text-anchor="middle" x="429.77" y="-556.65" font-family="sans-serif" font-size="12.00">Partnership</text>
</g>
<!-- CatalogoProductosContexto -->
<g id="node4" class="node">
<title>CatalogoProductosContexto</title>
<polygon fill="none" stroke="black" stroke-width="2" points="615.17,-506.54 609.32,-504.02 603.98,-501.46 599.16,-498.87 594.88,-496.26 591.17,-493.64 588.04,-491.02 585.51,-488.42 583.6,-485.83 582.3,-483.26 581.64,-480.74 581.61,-478.26 582.22,-475.84 583.48,-473.47 585.36,-471.18 587.89,-468.95 591.03,-466.81 594.79,-464.75 599.15,-462.78 604.09,-460.9 609.6,-459.12 615.66,-457.44 622.24,-455.86 629.31,-454.39 636.86,-453.02 644.85,-451.75 653.25,-450.6 662.03,-449.55 671.16,-448.6 680.59,-447.76 690.31,-447.03 700.27,-446.4 710.43,-445.87 720.75,-445.44 731.21,-445.1 741.76,-444.87 752.37,-444.73 763,-444.67 773.62,-444.71 784.19,-444.84 794.68,-445.05 805.05,-445.35 815.27,-445.72 825.32,-446.18 835.16,-446.71 844.77,-447.33 854.13,-448.01 863.2,-448.78 871.97,-449.61 880.42,-450.52 888.52,-451.5 896.27,-452.55 903.65,-453.67 910.63,-454.86 917.22,-456.12 923.41,-457.45 929.17,-458.85 934.52,-460.31 939.43,-461.84 943.91,-463.44 947.96,-465.1 951.57,-466.82 954.74,-468.61 957.47,-470.45 959.77,-472.36 961.63,-474.32 963.06,-476.33 964.06,-478.4 964.63,-480.51 964.78,-482.66 964.52,-484.86 963.84,-487.08 962.75,-489.34 961.26,-491.62 959.37,-493.92 957.09,-496.22 954.42,-498.54 951.37,-500.85 947.94,-503.15 944.14,-505.43 939.97,-507.69 935.44,-509.92 930.56,-512.1 925.34,-514.23 919.77,-516.31 913.87,-518.32 907.64,-520.25 901.1,-522.09 894.24,-523.85 887.09,-525.5 879.65,-527.04 871.93,-528.47 863.94,-529.78 855.7,-530.95 847.22,-531.99 838.52,-532.88 829.61,-533.63 820.51,-534.23 811.23,-534.67 801.81,-534.95 792.25,-535.07 782.59,-535.02 772.84,-534.81 763.03,-534.44 753.19,-533.91 743.34,-533.21 733.51,-532.35 723.73,-531.34 714.03,-530.17 704.44,-528.86 694.99,-527.4 685.71,-525.8 676.64,-524.08 667.8,-522.23 659.23,-520.26 650.96,-518.19 643.02,-516.02 635.44,-513.76 628.25,-511.42 621.49,-509.01 615.17,-506.54"/>
<text text-anchor="middle" x="783.27" y="-482.63" font-family="sans-serif" font-size="16.00">CatalogoProductosContexto</text>
</g>
<!-- StockContexto&#45;&gt;CatalogoProductosContexto -->
<g id="edge3" class="edge">
<title>StockContexto&#45;&gt;CatalogoProductosContexto</title>
<path fill="none" stroke="black" stroke-width="2" d="M485.26,-598.28C544.03,-576.42 620.87,-547.84 681.8,-525.17"/>
<text text-anchor="middle" x="642.27" y="-556.65" font-family="sans-serif" font-size="12.00">Shared Kernel</text>
</g>
<!-- LogisticayEnviosContexto -->
<g id="node5" class="node">
<title>LogisticayEnviosContexto</title>
<polygon fill="none" stroke="black" stroke-width="2" points="345.59,-384.02 333.98,-384.18 322.42,-384.22 310.95,-384.14 299.63,-383.93 288.5,-383.6 277.61,-383.14 266.99,-382.57 256.68,-381.87 246.72,-381.06 237.16,-380.12 228.01,-379.08 219.31,-377.92 211.1,-376.65 203.38,-375.27 196.18,-373.8 189.53,-372.22 183.43,-370.55 177.9,-368.8 172.95,-366.96 168.58,-365.04 164.79,-363.05 161.59,-360.99 158.97,-358.87 156.92,-356.7 155.44,-354.48 154.51,-352.21 154.13,-349.92 154.28,-347.59 154.94,-345.24 156.09,-342.88 157.72,-340.52 159.8,-338.15 162.32,-335.79 165.26,-333.44 168.58,-331.12 172.27,-328.82 176.3,-326.56 180.67,-324.33 185.33,-322.16 190.28,-320.04 195.49,-317.98 200.94,-315.98 206.62,-314.06 212.51,-312.21 218.59,-310.44 224.84,-308.76 231.26,-307.18 237.82,-305.68 244.53,-304.29 251.36,-302.99 258.31,-301.81 265.38,-300.73 272.55,-299.76 279.81,-298.91 287.16,-298.17 294.6,-297.55 302.12,-297.04 309.71,-296.66 317.38,-296.39 325.11,-296.24 332.9,-296.22 340.74,-296.31 348.64,-296.52 356.57,-296.84 364.54,-297.28 372.53,-297.84 380.53,-298.5 388.54,-299.28 396.54,-300.17 404.52,-301.15 412.46,-302.24 420.34,-303.43 428.15,-304.71 435.87,-306.09 443.47,-307.55 450.94,-309.1 458.24,-310.72 465.36,-312.43 472.27,-314.2 478.94,-316.04 485.34,-317.94 491.45,-319.89 497.24,-321.9 502.67,-323.96 507.72,-326.05 512.36,-328.19 516.57,-330.35 520.31,-332.54 523.56,-334.75 526.29,-336.98 528.49,-339.21 530.12,-341.45 531.17,-343.69 531.62,-345.92 531.47,-348.13 530.68,-350.33 529.26,-352.5 527.19,-354.64 524.48,-356.75 521.12,-358.82 517.12,-360.83 512.48,-362.8 507.21,-364.71 501.33,-366.56 494.84,-368.34 487.77,-370.05 480.15,-371.68 471.99,-373.23 463.33,-374.69 454.2,-376.06 444.63,-377.34 434.66,-378.52 424.33,-379.6 413.69,-380.57 402.76,-381.43 391.6,-382.18 380.26,-382.82 368.78,-383.34 357.21,-383.74 345.59,-384.02"/>
<text text-anchor="middle" x="338.27" y="-336.23" font-family="sans-serif" font-size="16.00">LogisticayEnviosContexto</text>
</g>
<!-- CatalogoProductosContexto&#45;&gt;LogisticayEnviosContexto -->
<g id="edge4" class="edge">
<title>CatalogoProductosContexto&#45;&gt;LogisticayEnviosContexto</title>
<path fill="none" stroke="black" stroke-width="2" d="M669.83,-448.62C601.97,-426.6 516.15,-398.75 448.81,-376.9"/>
<text text-anchor="middle" x="615.27" y="-410.01" font-family="sans-serif" font-size="12.00">Shared Kernel</text>
</g>
<!-- ClienteContexto -->
<g id="node10" class="node">
<title>ClienteContexto</title>
<polygon fill="none" stroke="black" stroke-width="2" points="1631.33,-302.99 1638.07,-301.42 1644.94,-299.96 1651.93,-298.62 1659.01,-297.41 1666.14,-296.32 1673.31,-295.37 1680.48,-294.56 1687.63,-293.89 1694.74,-293.37 1701.78,-292.99 1708.73,-292.77 1715.56,-292.7 1722.27,-292.78 1728.81,-293.02 1735.19,-293.41 1741.38,-293.95 1747.37,-294.63 1753.14,-295.47 1758.69,-296.44 1763.99,-297.56 1769.05,-298.81 1773.85,-300.19 1778.38,-301.7 1782.65,-303.32 1786.65,-305.05 1790.37,-306.89 1793.81,-308.83 1796.98,-310.85 1799.86,-312.96 1802.48,-315.13 1804.81,-317.38 1806.88,-319.68 1808.67,-322.02 1810.19,-324.41 1811.46,-326.82 1812.46,-329.26 1813.21,-331.71 1813.7,-334.16 1813.95,-336.61 1813.95,-339.05 1813.71,-341.47 1813.23,-343.86 1812.52,-346.22 1811.58,-348.54 1810.41,-350.81 1809.01,-353.03 1807.39,-355.19 1805.54,-357.29 1803.47,-359.32 1801.18,-361.28 1798.68,-363.16 1795.95,-364.96 1793.01,-366.67 1789.85,-368.31 1786.48,-369.85 1782.89,-371.3 1779.09,-372.66 1775.08,-373.93 1770.85,-375.1 1766.43,-376.18 1761.8,-377.17 1756.97,-378.06 1751.95,-378.85 1746.74,-379.54 1741.34,-380.14 1735.78,-380.65 1730.05,-381.06 1724.16,-381.38 1718.13,-381.6 1711.96,-381.73 1705.68,-381.77 1699.29,-381.71 1692.81,-381.57 1686.27,-381.33 1679.66,-381.01 1673.02,-380.6 1666.37,-380.09 1659.72,-379.5 1653.1,-378.82 1646.53,-378.06 1640.04,-377.21 1633.64,-376.27 1627.36,-375.25 1621.23,-374.15 1615.26,-372.96 1609.5,-371.69 1603.95,-370.34 1598.64,-368.92 1593.6,-367.41 1588.85,-365.83 1584.41,-364.17 1580.3,-362.44 1576.54,-360.64 1573.15,-358.77 1570.14,-356.84 1567.54,-354.85 1565.35,-352.8 1563.59,-350.7 1562.27,-348.55 1561.39,-346.35 1560.97,-344.12 1561,-341.85 1561.48,-339.55 1562.42,-337.23 1563.82,-334.9 1565.67,-332.56 1567.96,-330.21 1570.68,-327.87 1573.82,-325.54 1577.37,-323.23 1581.32,-320.95 1585.65,-318.71 1590.33,-316.51 1595.35,-314.36 1600.69,-312.27 1606.33,-310.24 1612.24,-308.3 1618.39,-306.43 1624.76,-304.66 1631.33,-302.99"/>
<text text-anchor="middle" x="1697.27" y="-336.23" font-family="sans-serif" font-size="16.00">ClienteContexto</text>
</g>
<!-- CatalogoProductosContexto&#45;&gt;ClienteContexto -->
<g id="edge5" class="edge">
<title>CatalogoProductosContexto&#45;&gt;ClienteContexto</title>
<path fill="none" stroke="black" stroke-width="2" d="M907.38,-454.23C935.48,-447.98 965.29,-442 993.27,-437.61 1239.21,-398.99 1307.34,-438.39 1551.27,-388.61 1571.25,-384.53 1592.33,-378.64 1612.06,-372.39"/>
<text text-anchor="middle" x="1509.77" y="-410.01" font-family="sans-serif" font-size="12.00"> &#160;&#160;&#160;&#160;&#160;&#160;&#160;&#160;&#160;&#160;&#160;&#160;&#160;&#160;&#160;&#160;&#160;&#160;&#160;&#160;&#160;&#160;&#160;&#160;&#160;&#160;&#160;&#160;&#160;&#160;&#160;&#160;&#160;&#160;&#160;&#160;&#160;&#160;&#160;</text>
<polygon fill="white" stroke="transparent" points="1605.06,-363.39 1605.06,-380.39 1619.06,-380.39 1619.06,-363.39 1605.06,-363.39"/>
<text text-anchor="start" x="1607.06" y="-368.79" font-family="sans-serif" font-size="12.00">D</text>
<polygon fill="white" stroke="transparent" points="900.38,-445.23 900.38,-462.23 914.38,-462.23 914.38,-445.23 900.38,-445.23"/>
<text text-anchor="start" x="902.38" y="-450.63" font-family="sans-serif" font-size="12.00">U</text>
</g>
<!-- LogisticayEnviosContexto&#45;&gt;AlmacenamientoContexto -->
<g id="edge7" class="edge">
<title>LogisticayEnviosContexto&#45;&gt;AlmacenamientoContexto</title>
<path fill="none" stroke="black" stroke-width="2" d="M266.84,-382.7C247.77,-397.5 229.39,-415.96 218.27,-437.61 168.46,-534.59 180.58,-668.31 191.23,-735.43"/>
<text text-anchor="middle" x="227.27" y="-556.65" font-family="sans-serif" font-size="12.00">Shared Kernel</text>
</g>
<!-- EnviosContexto -->
<g id="node6" class="node">
<title>EnviosContexto</title>
<polygon fill="none" stroke="black" stroke-width="2" points="330.37,-184.91 332.04,-187.72 333.37,-190.53 334.35,-193.34 334.99,-196.13 335.27,-198.9 335.2,-201.62 334.76,-204.3 333.97,-206.93 332.82,-209.48 331.31,-211.96 329.45,-214.35 327.24,-216.65 324.68,-218.85 321.78,-220.95 318.55,-222.93 315,-224.8 311.14,-226.55 306.98,-228.17 302.53,-229.67 297.81,-231.03 292.83,-232.26 287.6,-233.37 282.16,-234.34 276.5,-235.18 270.65,-235.88 264.64,-236.46 258.47,-236.91 252.17,-237.24 245.76,-237.45 239.26,-237.53 232.69,-237.51 226.07,-237.37 219.42,-237.12 212.77,-236.77 206.14,-236.33 199.54,-235.79 192.99,-235.15 186.53,-234.44 180.16,-233.64 173.9,-232.77 167.78,-231.82 161.81,-230.8 156.01,-229.72 150.4,-228.57 144.98,-227.36 139.78,-226.1 134.81,-224.78 130.08,-223.42 125.6,-222 121.38,-220.54 117.44,-219.03 113.78,-217.47 110.41,-215.88 107.33,-214.24 104.55,-212.56 102.09,-210.85 99.93,-209.09 98.08,-207.3 96.55,-205.47 95.33,-203.61 94.43,-201.72 93.85,-199.79 93.58,-197.83 93.62,-195.85 93.97,-193.84 94.62,-191.8 95.58,-189.75 96.83,-187.67 98.37,-185.59 100.19,-183.49 102.3,-181.38 104.67,-179.27 107.32,-177.17 110.21,-175.07 113.36,-172.99 116.75,-170.93 120.37,-168.9 124.21,-166.89 128.27,-164.93 132.53,-163.02 136.99,-161.16 141.63,-159.37 146.45,-157.64 151.43,-156 156.56,-154.44 161.84,-152.98 167.24,-151.61 172.76,-150.36 178.39,-149.22 184.12,-148.21 189.92,-147.32 195.8,-146.58 201.73,-145.97 207.71,-145.51 213.71,-145.21 219.73,-145.05 225.75,-145.06 231.76,-145.23 237.73,-145.56 243.67,-146.06 249.55,-146.72 255.36,-147.54 261.08,-148.53 266.69,-149.68 272.19,-150.98 277.55,-152.44 282.77,-154.04 287.82,-155.79 292.69,-157.67 297.36,-159.68 301.83,-161.81 306.07,-164.06 310.07,-166.41 313.83,-168.85 317.31,-171.38 320.52,-173.99 323.45,-176.65 326.07,-179.37 328.38,-182.13 330.37,-184.91"/>
<text text-anchor="middle" x="212.27" y="-189.77" font-family="sans-serif" font-size="16.00">EnviosContexto</text>
</g>
<!-- LogisticayEnviosContexto&#45;&gt;EnviosContexto -->
<g id="edge6" class="edge">
<title>LogisticayEnviosContexto&#45;&gt;EnviosContexto</title>
<path fill="none" stroke="black" stroke-width="2" d="M289.13,-297.95C280.81,-290.16 272.53,-281.82 265.27,-273.46 255.75,-262.49 246.51,-249.75 238.49,-237.74"/>
<text text-anchor="middle" x="307.27" y="-263.86" font-family="sans-serif" font-size="12.00">Shared Kernel</text>
</g>
<!-- AnalisisYReporteContexto -->
<g id="node9" class="node">
<title>AnalisisYReporteContexto</title>
<polygon fill="none" stroke="black" stroke-width="2" points="672.13,-224.98 663.91,-227.02 655.39,-228.95 646.62,-230.78 637.62,-232.5 628.42,-234.09 619.06,-235.55 609.58,-236.88 600.01,-238.07 590.37,-239.1 580.7,-239.99 571.04,-240.73 561.41,-241.3 551.84,-241.72 542.35,-241.97 532.98,-242.07 523.75,-242 514.67,-241.77 505.78,-241.38 497.1,-240.83 488.63,-240.13 480.4,-239.28 472.43,-238.28 464.72,-237.14 457.3,-235.87 450.16,-234.47 443.33,-232.94 436.81,-231.3 430.61,-229.55 424.73,-227.7 419.18,-225.76 413.97,-223.74 409.1,-221.64 404.57,-219.47 400.39,-217.25 396.55,-214.98 393.07,-212.66 389.94,-210.32 387.16,-207.95 384.73,-205.57 382.67,-203.18 380.96,-200.79 379.61,-198.41 378.62,-196.04 377.99,-193.7 377.73,-191.39 377.83,-189.11 378.3,-186.87 379.14,-184.68 380.36,-182.54 381.94,-180.45 383.91,-178.43 386.25,-176.46 388.96,-174.56 392.06,-172.73 395.54,-170.96 399.4,-169.27 403.63,-167.66 408.25,-166.12 413.24,-164.66 418.6,-163.27 424.34,-161.96 430.43,-160.74 436.88,-159.59 443.68,-158.52 450.82,-157.53 458.28,-156.62 466.06,-155.79 474.14,-155.05 482.5,-154.38 491.13,-153.8 500.01,-153.29 509.11,-152.87 518.42,-152.54 527.9,-152.28 537.54,-152.11 547.31,-152.02 557.17,-152.02 567.09,-152.11 577.05,-152.28 587.01,-152.54 596.95,-152.9 606.81,-153.34 616.58,-153.87 626.21,-154.5 635.66,-155.22 644.92,-156.04 653.93,-156.95 662.66,-157.95 671.08,-159.06 679.16,-160.26 686.86,-161.55 694.16,-162.94 701.01,-164.42 707.4,-166 713.29,-167.67 718.67,-169.43 723.5,-171.28 727.78,-173.2 731.48,-175.21 734.58,-177.3 737.07,-179.46 738.95,-181.68 740.21,-183.97 740.84,-186.31 740.83,-188.7 740.2,-191.14 738.94,-193.6 737.06,-196.1 734.58,-198.62 731.5,-201.14 727.83,-203.67 723.6,-206.19 718.82,-208.69 713.52,-211.17 707.72,-213.62 701.44,-216.01 694.71,-218.36 687.56,-220.64 680.03,-222.85 672.13,-224.98"/>
<text text-anchor="middle" x="547.27" y="-189.77" font-family="sans-serif" font-size="16.00">AnalisisYReporteContexto</text>
</g>
<!-- LogisticayEnviosContexto&#45;&gt;AnalisisYReporteContexto -->
<g id="edge8" class="edge">
<title>LogisticayEnviosContexto&#45;&gt;AnalisisYReporteContexto</title>
<path fill="none" stroke="black" stroke-width="2" d="M368.56,-297.56C379.44,-284.56 392.45,-270.9 406.27,-260.46 419.1,-250.76 433.58,-242.01 448.25,-234.3"/>
<text text-anchor="middle" x="481.77" y="-263.86" font-family="sans-serif" font-size="12.00"> &#160;&#160;&#160;&#160;&#160;&#160;&#160;&#160;&#160;&#160;&#160;&#160;&#160;&#160;&#160;&#160;&#160;&#160;&#160;&#160;&#160;&#160;&#160;&#160;&#160;&#160;&#160;&#160;&#160;&#160;&#160;&#160;&#160;&#160;&#160;&#160;&#160;&#160;&#160;</text>
<polygon fill="white" stroke="transparent" points="441.25,-225.3 441.25,-242.3 455.25,-242.3 455.25,-225.3 441.25,-225.3"/>
<text text-anchor="start" x="443.25" y="-230.7" font-family="sans-serif" font-size="12.00">D</text>
<polygon fill="white" stroke="transparent" points="361.56,-288.56 361.56,-305.56 375.56,-305.56 375.56,-288.56 361.56,-288.56"/>
<text text-anchor="start" x="363.56" y="-293.96" font-family="sans-serif" font-size="12.00">U</text>
</g>
<!-- EnviosContexto&#45;&gt;AlmacenamientoContexto -->
<g id="edge10" class="edge">
<title>EnviosContexto&#45;&gt;AlmacenamientoContexto</title>
<path fill="none" stroke="black" stroke-width="2" d="M163.06,-231.2C133.77,-257.51 102.27,-295.84 102.27,-339.03 102.27,-633.75 102.27,-633.75 102.27,-633.75 102.27,-673.94 128.65,-711.29 153.89,-737.84"/>
<text text-anchor="middle" x="136.77" y="-483.33" font-family="sans-serif" font-size="12.00">Partnership</text>
</g>
<!-- DevolucionesContexto -->
<g id="node7" class="node">
<title>DevolucionesContexto</title>
<polygon fill="none" stroke="black" stroke-width="2" points="330.06,-18.34 337.19,-20.42 343.95,-22.58 350.31,-24.79 356.25,-27.06 361.73,-29.37 366.75,-31.71 371.26,-34.08 375.26,-36.47 378.73,-38.86 381.65,-41.26 384.01,-43.66 385.79,-46.04 387,-48.4 387.63,-50.73 387.68,-53.03 387.14,-55.29 386.02,-57.5 384.34,-59.67 382.08,-61.78 379.28,-63.83 375.94,-65.81 372.07,-67.73 367.71,-69.58 362.86,-71.36 357.55,-73.06 351.81,-74.68 345.66,-76.22 339.12,-77.68 332.23,-79.05 325.02,-80.34 317.52,-81.55 309.75,-82.67 301.76,-83.7 293.57,-84.65 285.2,-85.51 276.71,-86.29 268.11,-86.97 259.44,-87.57 250.72,-88.08 241.99,-88.5 233.28,-88.84 224.61,-89.09 216,-89.25 207.49,-89.32 199.1,-89.3 190.84,-89.2 182.74,-89.01 174.82,-88.72 167.09,-88.35 159.57,-87.89 152.28,-87.34 145.22,-86.7 138.42,-85.97 131.87,-85.14 125.59,-84.23 119.58,-83.23 113.86,-82.13 108.42,-80.95 103.27,-79.67 98.41,-78.31 93.85,-76.86 89.59,-75.33 85.62,-73.7 81.96,-72 78.6,-70.22 75.54,-68.36 72.78,-66.42 70.32,-64.42 68.17,-62.35 66.32,-60.21 64.77,-58.02 63.53,-55.77 62.59,-53.48 61.97,-51.15 61.65,-48.78 61.64,-46.39 61.94,-43.97 62.56,-41.54 63.5,-39.11 64.76,-36.67 66.35,-34.25 68.26,-31.85 70.5,-29.48 73.07,-27.14 75.98,-24.85 79.23,-22.61 82.81,-20.43 86.73,-18.33 90.99,-16.3 95.59,-14.36 100.53,-12.52 105.79,-10.78 111.39,-9.16 117.31,-7.65 123.55,-6.26 130.09,-5 136.93,-3.88 144.06,-2.9 151.46,-2.07 159.12,-1.38 167.03,-0.84 175.15,-0.46 183.48,-0.23 191.99,-0.16 200.66,-0.24 209.47,-0.48 218.38,-0.88 227.37,-1.42 236.41,-2.12 245.47,-2.96 254.52,-3.95 263.53,-5.07 272.46,-6.33 281.28,-7.72 289.96,-9.22 298.47,-10.85 306.76,-12.58 314.81,-14.41 322.59,-16.33 330.06,-18.34"/>
<text text-anchor="middle" x="212.27" y="-44.04" font-family="sans-serif" font-size="16.00">DevolucionesContexto</text>
</g>
<!-- EnviosContexto&#45;&gt;DevolucionesContexto -->
<g id="edge9" class="edge">
<title>EnviosContexto&#45;&gt;DevolucionesContexto</title>
<path fill="none" stroke="black" stroke-width="2" d="M212.27,-145.11C212.27,-127.12 212.27,-106.81 212.27,-89.51"/>
<text text-anchor="middle" x="287.77" y="-117.08" font-family="sans-serif" font-size="12.00"> &#160;&#160;&#160;&#160;&#160;&#160;&#160;&#160;&#160;&#160;&#160;&#160;&#160;&#160;&#160;&#160;&#160;&#160;&#160;&#160;&#160;&#160;&#160;&#160;&#160;&#160;&#160;&#160;&#160;&#160;&#160;&#160;&#160;&#160;&#160;&#160;&#160;&#160;&#160;</text>
<polygon fill="white" stroke="transparent" points="205.27,-80.51 205.27,-97.51 219.27,-97.51 219.27,-80.51 205.27,-80.51"/>
<text text-anchor="start" x="207.27" y="-85.91" font-family="sans-serif" font-size="12.00">D</text>
<polygon fill="white" stroke="transparent" points="205.27,-136.11 205.27,-153.11 219.27,-153.11 219.27,-136.11 205.27,-136.11"/>
<text text-anchor="start" x="207.27" y="-141.51" font-family="sans-serif" font-size="12.00">U</text>
</g>
<!-- SeguimientoPedidosContexto -->
<g id="node8" class="node">
<title>SeguimientoPedidosContexto</title>
<polygon fill="none" stroke="black" stroke-width="2" points="641.99,-80.02 632.26,-78.11 622.97,-76.13 614.15,-74.08 605.84,-71.97 598.07,-69.8 590.88,-67.59 584.31,-65.34 578.36,-63.06 573.08,-60.75 568.49,-58.44 564.59,-56.11 561.42,-53.79 558.97,-51.47 557.26,-49.16 556.29,-46.87 556.06,-44.61 556.57,-42.38 557.82,-40.18 559.79,-38.03 562.47,-35.92 565.86,-33.87 569.92,-31.86 574.63,-29.92 579.98,-28.04 585.93,-26.22 592.45,-24.47 599.52,-22.79 607.09,-21.18 615.14,-19.65 623.63,-18.19 632.51,-16.81 641.76,-15.51 651.33,-14.29 661.18,-13.15 671.27,-12.09 681.56,-11.12 692.02,-10.23 702.61,-9.43 713.28,-8.71 724.01,-8.08 734.75,-7.54 745.48,-7.08 756.15,-6.72 766.75,-6.44 777.23,-6.26 787.58,-6.16 797.77,-6.16 807.76,-6.25 817.56,-6.44 827.12,-6.72 836.44,-7.09 845.5,-7.56 854.29,-8.13 862.79,-8.79 870.99,-9.55 878.89,-10.41 886.47,-11.36 893.73,-12.41 900.66,-13.55 907.27,-14.79 913.54,-16.12 919.47,-17.55 925.06,-19.07 930.31,-20.68 935.21,-22.37 939.77,-24.15 943.98,-26.01 947.84,-27.95 951.35,-29.96 954.51,-32.04 957.31,-34.18 959.76,-36.39 961.84,-38.64 963.55,-40.95 964.89,-43.3 965.85,-45.68 966.43,-48.09 966.62,-50.53 966.42,-52.97 965.81,-55.42 964.8,-57.87 963.37,-60.31 961.51,-62.72 959.23,-65.11 956.51,-67.46 953.35,-69.77 949.74,-72.02 945.68,-74.21 941.17,-76.32 936.2,-78.36 930.77,-80.31 924.89,-82.17 918.55,-83.92 911.77,-85.57 904.53,-87.1 896.87,-88.5 888.77,-89.78 880.26,-90.93 871.36,-91.94 862.07,-92.81 852.42,-93.53 842.43,-94.1 832.13,-94.53 821.53,-94.81 810.68,-94.93 799.59,-94.9 788.32,-94.72 776.88,-94.39 765.32,-93.92 753.67,-93.29 741.99,-92.53 730.3,-91.63 718.65,-90.59 707.09,-89.42 695.66,-88.13 684.4,-86.72 673.36,-85.19 662.58,-83.56 652.11,-81.84 641.99,-80.02"/>
<text text-anchor="middle" x="777.27" y="-44.04" font-family="sans-serif" font-size="16.00">SeguimientoPedidosContexto</text>
</g>
<!-- EnviosContexto&#45;&gt;SeguimientoPedidosContexto -->
<g id="edge11" class="edge">
<title>EnviosContexto&#45;&gt;SeguimientoPedidosContexto</title>
<path fill="none" stroke="black" stroke-width="2" d="M297.65,-159.76C313.06,-154.37 329.05,-149.1 344.27,-144.68 437.15,-117.68 543.14,-94.1 627.01,-77.08"/>
<text text-anchor="middle" x="491.27" y="-117.08" font-family="sans-serif" font-size="12.00">Shared Kernel</text>
</g>
<!-- ServicioClienteContexto -->
<g id="node11" class="node">
<title>ServicioClienteContexto</title>
<polygon fill="none" stroke="black" stroke-width="2" points="2221.74,-170 2227.78,-172.41 2233.38,-174.87 2238.53,-177.37 2243.2,-179.89 2247.38,-182.44 2251.03,-185 2254.15,-187.57 2256.73,-190.12 2258.73,-192.66 2260.17,-195.18 2261.03,-197.66 2261.3,-200.1 2260.98,-202.5 2260.08,-204.84 2258.59,-207.12 2256.51,-209.33 2253.87,-211.47 2250.66,-213.53 2246.9,-215.51 2242.61,-217.41 2237.8,-219.22 2232.49,-220.93 2226.7,-222.55 2220.46,-224.08 2213.8,-225.5 2206.73,-226.83 2199.28,-228.06 2191.5,-229.2 2183.4,-230.23 2175.03,-231.16 2166.4,-232 2157.56,-232.73 2148.53,-233.37 2139.36,-233.92 2130.07,-234.37 2120.7,-234.73 2111.28,-234.99 2101.85,-235.17 2092.42,-235.26 2083.04,-235.26 2073.74,-235.17 2064.53,-235 2055.46,-234.75 2046.54,-234.41 2037.81,-233.99 2029.27,-233.49 2020.96,-232.91 2012.89,-232.26 2005.09,-231.52 1997.57,-230.7 1990.33,-229.8 1983.41,-228.83 1976.81,-227.78 1970.54,-226.65 1964.6,-225.44 1959.01,-224.16 1953.78,-222.8 1948.9,-221.37 1944.39,-219.86 1940.24,-218.28 1936.46,-216.62 1933.04,-214.9 1929.99,-213.1 1927.32,-211.24 1925.01,-209.32 1923.06,-207.33 1921.48,-205.28 1920.26,-203.17 1919.41,-201.02 1918.9,-198.82 1918.76,-196.57 1918.97,-194.29 1919.52,-191.97 1920.43,-189.63 1921.68,-187.27 1923.27,-184.9 1925.21,-182.53 1927.48,-180.15 1930.08,-177.78 1933.02,-175.44 1936.3,-173.12 1939.89,-170.83 1943.82,-168.59 1948.06,-166.39 1952.63,-164.26 1957.51,-162.2 1962.7,-160.22 1968.19,-158.32 1973.99,-156.52 1980.07,-154.82 1986.45,-153.24 1993.1,-151.77 2000.02,-150.42 2007.2,-149.21 2014.63,-148.14 2022.28,-147.21 2030.16,-146.43 2038.25,-145.8 2046.52,-145.33 2054.96,-145.01 2063.56,-144.86 2072.28,-144.87 2081.11,-145.04 2090.03,-145.38 2099.01,-145.88 2108.02,-146.54 2117.05,-147.36 2126.05,-148.33 2135,-149.45 2143.88,-150.72 2152.65,-152.13 2161.29,-153.68 2169.75,-155.35 2178.02,-157.15 2186.06,-159.06 2193.84,-161.07 2201.32,-163.18 2208.49,-165.38 2215.3,-167.66 2221.74,-170"/>
<text text-anchor="middle" x="2079.27" y="-189.77" font-family="sans-serif" font-size="16.00">ServicioClienteContexto</text>
</g>
<!-- ClienteContexto&#45;&gt;ServicioClienteContexto -->
<g id="edge12" class="edge">
<title>ClienteContexto&#45;&gt;ServicioClienteContexto</title>
<path fill="none" stroke="black" stroke-width="2" d="M1780.05,-302.23C1811.79,-288.55 1848.5,-273.25 1882.27,-260.46 1912.28,-249.08 1945.24,-237.65 1975.46,-227.58"/>
<text text-anchor="middle" x="1924.27" y="-263.86" font-family="sans-serif" font-size="12.00">Shared Kernel</text>
</g>
<!-- AutenticacionContexto -->
<g id="node12" class="node">
<title>AutenticacionContexto</title>
<polygon fill="none" stroke="black" stroke-width="2" points="1090.87,-169.28 1096.58,-166.87 1102.63,-164.55 1108.99,-162.32 1115.64,-160.18 1122.56,-158.16 1129.71,-156.25 1137.08,-154.48 1144.64,-152.83 1152.37,-151.32 1160.24,-149.96 1168.22,-148.76 1176.3,-147.7 1184.44,-146.81 1192.64,-146.08 1200.85,-145.51 1209.07,-145.1 1217.27,-144.86 1225.43,-144.79 1233.52,-144.88 1241.55,-145.13 1249.47,-145.54 1257.28,-146.11 1264.97,-146.83 1272.5,-147.69 1279.88,-148.69 1287.09,-149.83 1294.11,-151.1 1300.93,-152.49 1307.54,-154 1313.93,-155.61 1320.08,-157.32 1325.99,-159.12 1331.65,-161 1337.05,-162.96 1342.18,-164.98 1347.02,-167.06 1351.59,-169.19 1355.85,-171.36 1359.82,-173.56 1363.47,-175.79 1366.81,-178.03 1369.82,-180.29 1372.5,-182.54 1374.84,-184.8 1376.84,-187.04 1378.49,-189.27 1379.78,-191.48 1380.71,-193.66 1381.28,-195.81 1381.47,-197.93 1381.28,-200.01 1380.72,-202.05 1379.77,-204.04 1378.43,-205.99 1376.7,-207.88 1374.58,-209.73 1372.07,-211.52 1369.16,-213.26 1365.87,-214.94 1362.18,-216.57 1358.11,-218.14 1353.66,-219.65 1348.84,-221.1 1343.64,-222.49 1338.09,-223.82 1332.18,-225.08 1325.93,-226.29 1319.36,-227.43 1312.48,-228.5 1305.29,-229.52 1297.83,-230.46 1290.1,-231.33 1282.13,-232.14 1273.94,-232.87 1265.55,-233.53 1256.98,-234.11 1248.26,-234.62 1239.42,-235.04 1230.48,-235.38 1221.47,-235.63 1212.42,-235.79 1203.36,-235.87 1194.32,-235.84 1185.33,-235.72 1176.41,-235.5 1167.61,-235.18 1158.94,-234.75 1150.45,-234.21 1142.16,-233.57 1134.1,-232.81 1126.31,-231.94 1118.8,-230.95 1111.6,-229.85 1104.75,-228.64 1098.26,-227.31 1092.16,-225.87 1086.48,-224.31 1081.22,-222.65 1076.42,-220.88 1072.08,-219 1068.23,-217.02 1064.87,-214.95 1062.01,-212.78 1059.67,-210.52 1057.84,-208.19 1056.54,-205.78 1055.77,-203.31 1055.52,-200.78 1055.8,-198.2 1056.59,-195.58 1057.9,-192.92 1059.72,-190.25 1062.03,-187.56 1064.83,-184.87 1068.09,-182.19 1071.81,-179.53 1075.96,-176.89 1080.54,-174.3 1085.51,-171.76 1090.87,-169.28"/>
<text text-anchor="middle" x="1225.27" y="-189.77" font-family="sans-serif" font-size="16.00">AutenticacionContexto</text>
</g>
<!-- AutorizacionContexto -->
<g id="node13" class="node">
<title>AutorizacionContexto</title>
<polygon fill="none" stroke="black" stroke-width="2" points="1166.99,-11.83 1175.13,-10.13 1183.46,-8.53 1191.95,-7.06 1200.57,-5.7 1209.29,-4.48 1218.08,-3.39 1226.9,-2.44 1235.72,-1.63 1244.51,-0.97 1253.25,-0.47 1261.9,-0.11 1270.43,0.09 1278.83,0.13 1287.06,0.02 1295.11,-0.25 1302.95,-0.68 1310.56,-1.26 1317.93,-1.99 1325.05,-2.87 1331.89,-3.89 1338.44,-5.05 1344.69,-6.35 1350.64,-7.78 1356.28,-9.33 1361.6,-11 1366.59,-12.78 1371.25,-14.66 1375.58,-16.63 1379.58,-18.69 1383.25,-20.83 1386.58,-23.05 1389.58,-25.32 1392.26,-27.64 1394.6,-30.01 1396.63,-32.42 1398.33,-34.85 1399.72,-37.3 1400.79,-39.75 1401.54,-42.21 1402,-44.67 1402.14,-47.1 1401.99,-49.52 1401.53,-51.9 1400.78,-54.25 1399.73,-56.56 1398.39,-58.81 1396.76,-61.02 1394.84,-63.16 1392.63,-65.24 1390.13,-67.25 1387.34,-69.19 1384.26,-71.05 1380.9,-72.83 1377.25,-74.53 1373.31,-76.14 1369.09,-77.67 1364.59,-79.11 1359.81,-80.46 1354.75,-81.72 1349.41,-82.89 1343.8,-83.96 1337.92,-84.95 1331.79,-85.84 1325.4,-86.63 1318.77,-87.34 1311.9,-87.95 1304.81,-88.47 1297.51,-88.9 1290,-89.24 1282.32,-89.49 1274.47,-89.64 1266.47,-89.71 1258.35,-89.68 1250.11,-89.57 1241.8,-89.37 1233.42,-89.07 1225.01,-88.69 1216.58,-88.22 1208.18,-87.67 1199.82,-87.02 1191.54,-86.29 1183.37,-85.47 1175.33,-84.56 1167.46,-83.56 1159.78,-82.48 1152.34,-81.32 1145.15,-80.06 1138.25,-78.73 1131.67,-77.31 1125.44,-75.8 1119.58,-74.22 1114.12,-72.56 1109.09,-70.82 1104.5,-69.01 1100.39,-67.12 1096.77,-65.17 1093.66,-63.15 1091.07,-61.07 1089.02,-58.93 1087.52,-56.74 1086.57,-54.5 1086.19,-52.22 1086.38,-49.9 1087.13,-47.56 1088.45,-45.18 1090.32,-42.79 1092.75,-40.39 1095.73,-37.99 1099.23,-35.59 1103.25,-33.2 1107.76,-30.83 1112.76,-28.49 1118.21,-26.19 1124.09,-23.94 1130.39,-21.74 1137.06,-19.6 1144.09,-17.53 1151.44,-15.54 1159.09,-13.64 1166.99,-11.83"/>
<text text-anchor="middle" x="1256.27" y="-44.04" font-family="sans-serif" font-size="16.00">AutorizacionContexto</text>
</g>
<!-- AutenticacionContexto&#45;&gt;AutorizacionContexto -->
<g id="edge13" class="edge">
<title>AutenticacionContexto&#45;&gt;AutorizacionContexto</title>
<path fill="none" stroke="black" stroke-width="2" d="M1235.59,-144.71C1239.43,-126.91 1243.75,-106.88 1247.44,-89.76"/>
<text text-anchor="middle" x="1316.77" y="-117.08" font-family="sans-serif" font-size="12.00"> &#160;&#160;&#160;&#160;&#160;&#160;&#160;&#160;&#160;&#160;&#160;&#160;&#160;&#160;&#160;&#160;&#160;&#160;&#160;&#160;&#160;&#160;&#160;&#160;&#160;&#160;&#160;&#160;&#160;&#160;&#160;&#160;&#160;&#160;&#160;&#160;&#160;&#160;&#160;</text>
<polygon fill="white" stroke="transparent" points="1240.44,-80.76 1240.44,-97.76 1254.44,-97.76 1254.44,-80.76 1240.44,-80.76"/>
<text text-anchor="start" x="1242.44" y="-86.16" font-family="sans-serif" font-size="12.00">D</text>
<polygon fill="white" stroke="transparent" points="1228.59,-135.71 1228.59,-152.71 1242.59,-152.71 1242.59,-135.71 1228.59,-135.71"/>
<text text-anchor="start" x="1230.59" y="-141.11" font-family="sans-serif" font-size="12.00">U</text>
</g>
<!-- CalidadContexto -->
<g id="node14" class="node">
<title>CalidadContexto</title>
<polygon fill="none" stroke="black" stroke-width="2" points="147.33,-882.13 154.78,-880.91 162.32,-879.81 169.93,-878.83 177.58,-877.97 185.23,-877.25 192.86,-876.66 200.45,-876.22 207.95,-875.91 215.36,-875.74 222.63,-875.72 229.75,-875.85 236.7,-876.11 243.45,-876.53 249.99,-877.09 256.29,-877.79 262.34,-878.63 268.12,-879.6 273.63,-880.72 278.85,-881.96 283.78,-883.33 288.39,-884.82 292.7,-886.42 296.69,-888.14 300.36,-889.96 303.71,-891.87 306.74,-893.88 309.46,-895.97 311.85,-898.13 313.93,-900.36 315.71,-902.65 317.17,-904.98 318.34,-907.36 319.22,-909.78 319.81,-912.22 320.12,-914.67 320.16,-917.14 319.94,-919.6 319.46,-922.05 318.73,-924.49 317.76,-926.91 316.55,-929.3 315.11,-931.64 313.45,-933.95 311.57,-936.2 309.47,-938.39 307.17,-940.52 304.66,-942.58 301.96,-944.57 299.05,-946.47 295.96,-948.3 292.67,-950.04 289.19,-951.69 285.53,-953.24 281.68,-954.7 277.65,-956.06 273.43,-957.32 269.04,-958.48 264.47,-959.54 259.73,-960.49 254.82,-961.34 249.74,-962.09 244.5,-962.73 239.1,-963.27 233.55,-963.7 227.85,-964.02 222.01,-964.25 216.05,-964.37 209.96,-964.4 203.77,-964.32 197.48,-964.14 191.1,-963.87 184.66,-963.5 178.16,-963.03 171.63,-962.47 165.07,-961.82 158.52,-961.09 151.98,-960.26 145.49,-959.34 139.06,-958.34 132.72,-957.26 126.48,-956.1 120.38,-954.85 114.43,-953.53 108.67,-952.13 103.11,-950.66 97.78,-949.12 92.7,-947.51 87.9,-945.83 83.4,-944.08 79.22,-942.28 75.39,-940.42 71.92,-938.5 68.83,-936.53 66.15,-934.51 63.88,-932.45 62.04,-930.35 60.65,-928.21 59.7,-926.04 59.23,-923.85 59.21,-921.63 59.68,-919.39 60.61,-917.15 62.02,-914.9 63.9,-912.64 66.25,-910.4 69.06,-908.17 72.31,-905.96 76,-903.78 80.11,-901.62 84.63,-899.51 89.54,-897.45 94.81,-895.44 100.43,-893.49 106.38,-891.61 112.62,-889.8 119.13,-888.08 125.89,-886.44 132.86,-884.9 140.02,-883.46 147.33,-882.13"/>
<text text-anchor="middle" x="199.27" y="-918.3" font-family="sans-serif" font-size="16.00">CalidadContexto</text>
</g>
<!-- CalidadContexto&#45;&gt;AlmacenamientoContexto -->
<g id="edge14" class="edge">
<title>CalidadContexto&#45;&gt;AlmacenamientoContexto</title>
<path fill="none" stroke="black" stroke-width="2" d="M199.27,-876.28C199.27,-859.43 199.27,-840.29 199.27,-823.5"/>
<text text-anchor="middle" x="233.77" y="-848.06" font-family="sans-serif" font-size="12.00">Partnership</text>
</g>
<!-- CampanasPublicitariasContexto -->
<g id="node15" class="node">
<title>CampanasPublicitariasContexto</title>
<polygon fill="none" stroke="black" stroke-width="2" points="2068.69,-764.36 2072.94,-761.61 2077.72,-758.92 2083.01,-756.3 2088.79,-753.76 2095.05,-751.3 2101.77,-748.94 2108.92,-746.69 2116.47,-744.56 2124.42,-742.55 2132.72,-740.67 2141.37,-738.93 2150.32,-737.34 2159.57,-735.89 2169.07,-734.6 2178.82,-733.46 2188.77,-732.49 2198.9,-731.68 2209.2,-731.03 2219.62,-730.54 2230.14,-730.22 2240.75,-730.06 2251.4,-730.06 2262.08,-730.21 2272.76,-730.52 2283.42,-730.97 2294.02,-731.57 2304.55,-732.31 2314.98,-733.18 2325.28,-734.17 2335.43,-735.29 2345.42,-736.52 2355.2,-737.85 2364.77,-739.28 2374.1,-740.8 2383.17,-742.4 2391.95,-744.08 2400.43,-745.83 2408.59,-747.63 2416.4,-749.5 2423.85,-751.4 2430.91,-753.35 2437.58,-755.32 2443.82,-757.33 2449.64,-759.35 2455,-761.4 2459.9,-763.45 2464.32,-765.5 2468.25,-767.56 2471.67,-769.61 2474.57,-771.65 2476.95,-773.69 2478.78,-775.71 2480.08,-777.71 2480.82,-779.7 2481,-781.67 2480.62,-783.61 2479.68,-785.53 2478.16,-787.43 2476.08,-789.3 2473.44,-791.14 2470.23,-792.95 2466.46,-794.73 2462.14,-796.48 2457.27,-798.2 2451.87,-799.89 2445.94,-801.54 2439.5,-803.15 2432.57,-804.72 2425.16,-806.26 2417.28,-807.75 2408.97,-809.19 2400.23,-810.59 2391.1,-811.94 2381.59,-813.23 2371.74,-814.46 2361.57,-815.64 2351.1,-816.74 2340.38,-817.78 2329.43,-818.74 2318.28,-819.62 2306.96,-820.42 2295.52,-821.13 2283.98,-821.75 2272.38,-822.27 2260.76,-822.68 2249.14,-822.99 2237.58,-823.19 2226.09,-823.27 2214.73,-823.22 2203.52,-823.06 2192.5,-822.76 2181.7,-822.34 2171.17,-821.78 2160.92,-821.08 2150.99,-820.25 2141.42,-819.28 2132.23,-818.17 2123.45,-816.92 2115.11,-815.54 2107.23,-814.02 2099.84,-812.37 2092.95,-810.59 2086.59,-808.68 2080.78,-806.66 2075.53,-804.52 2070.85,-802.27 2066.76,-799.92 2063.26,-797.48 2060.37,-794.95 2058.09,-792.34 2056.43,-789.67 2055.38,-786.94 2054.94,-784.16 2055.12,-781.35 2055.91,-778.52 2057.29,-775.66 2059.28,-772.81 2061.85,-769.97 2064.99,-767.15 2068.69,-764.36"/>
<text text-anchor="middle" x="2270.27" y="-774.66" font-family="sans-serif" font-size="16.00">CampanasPublicitariasContexto</text>
</g>
<!-- EstrategiasPromocionalesContexto -->
<g id="node16" class="node">
<title>EstrategiasPromocionalesContexto</title>
<polygon fill="none" stroke="black" stroke-width="2" points="2223.85,-615.84 2229.41,-613.17 2235.52,-610.57 2242.15,-608.04 2249.29,-605.6 2256.9,-603.25 2264.97,-601 2273.46,-598.87 2282.35,-596.86 2291.61,-594.97 2301.21,-593.23 2311.13,-591.62 2321.33,-590.17 2331.78,-588.86 2342.46,-587.72 2353.33,-586.73 2364.38,-585.91 2375.56,-585.25 2386.85,-584.75 2398.22,-584.42 2409.64,-584.25 2421.09,-584.24 2432.54,-584.39 2443.95,-584.7 2455.31,-585.16 2466.59,-585.76 2477.77,-586.51 2488.81,-587.39 2499.69,-588.41 2510.4,-589.55 2520.9,-590.8 2531.18,-592.16 2541.21,-593.63 2550.97,-595.19 2560.44,-596.83 2569.6,-598.55 2578.43,-600.35 2586.9,-602.21 2595.01,-604.12 2602.72,-606.08 2610.03,-608.08 2616.92,-610.12 2623.36,-612.18 2629.34,-614.26 2634.86,-616.36 2639.88,-618.46 2644.4,-620.57 2648.4,-622.67 2651.87,-624.77 2654.8,-626.86 2657.18,-628.93 2659,-630.99 2660.24,-633.02 2660.9,-635.04 2660.98,-637.02 2660.46,-638.98 2659.35,-640.9 2657.64,-642.8 2655.33,-644.66 2652.42,-646.49 2648.91,-648.28 2644.8,-650.03 2640.11,-651.75 2634.83,-653.43 2628.98,-655.06 2622.57,-656.66 2615.61,-658.21 2608.11,-659.72 2600.09,-661.19 2591.57,-662.6 2582.57,-663.97 2573.12,-665.29 2563.23,-666.55 2552.93,-667.76 2542.25,-668.9 2531.22,-669.99 2519.87,-671 2508.23,-671.95 2496.34,-672.83 2484.22,-673.62 2471.93,-674.34 2459.48,-674.97 2446.93,-675.51 2434.32,-675.96 2421.67,-676.31 2409.03,-676.55 2396.45,-676.69 2383.95,-676.72 2371.59,-676.63 2359.4,-676.43 2347.42,-676.1 2335.69,-675.65 2324.25,-675.07 2313.13,-674.36 2302.37,-673.52 2292.01,-672.55 2282.08,-671.45 2272.62,-670.22 2263.64,-668.85 2255.18,-667.36 2247.26,-665.73 2239.92,-663.99 2233.17,-662.12 2227.03,-660.14 2221.52,-658.04 2216.65,-655.84 2212.44,-653.54 2208.9,-651.14 2206.03,-648.67 2203.84,-646.11 2202.33,-643.49 2201.51,-640.81 2201.37,-638.08 2201.91,-635.32 2203.12,-632.53 2204.99,-629.72 2207.52,-626.91 2210.68,-624.1 2214.47,-621.31 2218.87,-618.55 2223.85,-615.84"/>
<text text-anchor="middle" x="2435.27" y="-628.95" font-family="sans-serif" font-size="16.00">EstrategiasPromocionalesContexto</text>
</g>
<!-- CampanasPublicitariasContexto&#45;&gt;EstrategiasPromocionalesContexto -->
<g id="edge15" class="edge">
<title>CampanasPublicitariasContexto&#45;&gt;EstrategiasPromocionalesContexto</title>
<path fill="none" stroke="black" stroke-width="2" d="M2320.67,-733.56C2341.33,-715.57 2365.18,-694.8 2385.74,-676.89"/>
<text text-anchor="middle" x="2391.77" y="-702.66" font-family="sans-serif" font-size="12.00">Partnership</text>
</g>
<!-- PreferenciasClienteContexto -->
<g id="node17" class="node">
<title>PreferenciasClienteContexto</title>
<polygon fill="none" stroke="black" stroke-width="2" points="1873.83,-671.09 1862.78,-669.7 1852.07,-668.22 1841.73,-666.64 1831.8,-664.98 1822.34,-663.23 1813.38,-661.42 1804.95,-659.53 1797.1,-657.59 1789.84,-655.59 1783.21,-653.54 1777.24,-651.45 1771.94,-649.32 1767.33,-647.16 1763.43,-644.98 1760.25,-642.78 1757.79,-640.57 1756.06,-638.35 1755.06,-636.14 1754.78,-633.92 1755.21,-631.72 1756.35,-629.53 1758.19,-627.36 1760.7,-625.21 1763.86,-623.1 1767.66,-621.02 1772.07,-618.97 1777.05,-616.97 1782.59,-615.02 1788.65,-613.11 1795.19,-611.25 1802.18,-609.46 1809.6,-607.72 1817.4,-606.04 1825.54,-604.44 1833.99,-602.9 1842.72,-601.43 1851.69,-600.04 1860.86,-598.72 1870.2,-597.49 1879.67,-596.33 1889.25,-595.27 1898.89,-594.29 1908.58,-593.4 1918.28,-592.6 1927.97,-591.9 1937.62,-591.29 1947.21,-590.79 1956.72,-590.38 1966.12,-590.07 1975.4,-589.87 1984.55,-589.78 1993.55,-589.79 2002.38,-589.91 2011.04,-590.14 2019.52,-590.48 2027.8,-590.92 2035.88,-591.48 2043.76,-592.15 2051.42,-592.93 2058.87,-593.82 2066.09,-594.82 2073.09,-595.93 2079.86,-597.14 2086.4,-598.46 2092.7,-599.88 2098.76,-601.4 2104.57,-603.02 2110.13,-604.73 2115.43,-606.53 2120.47,-608.42 2125.23,-610.39 2129.72,-612.43 2133.92,-614.55 2137.82,-616.73 2141.41,-618.97 2144.68,-621.26 2147.62,-623.61 2150.21,-625.99 2152.45,-628.4 2154.31,-630.84 2155.78,-633.29 2156.85,-635.76 2157.5,-638.22 2157.72,-640.68 2157.5,-643.13 2156.81,-645.55 2155.65,-647.94 2154,-650.29 2151.85,-652.6 2149.19,-654.85 2146.02,-657.03 2142.32,-659.15 2138.1,-661.19 2133.34,-663.14 2128.05,-665 2122.22,-666.76 2115.87,-668.42 2109,-669.97 2101.61,-671.41 2093.73,-672.72 2085.36,-673.91 2076.53,-674.97 2067.25,-675.9 2057.55,-676.7 2047.45,-677.36 2036.99,-677.88 2026.19,-678.27 2015.1,-678.51 2003.74,-678.62 1992.16,-678.59 1980.4,-678.42 1968.49,-678.11 1956.5,-677.67 1944.45,-677.09 1932.41,-676.39 1920.41,-675.57 1908.5,-674.62 1896.74,-673.55 1885.16,-672.38 1873.83,-671.09"/>
<text text-anchor="middle" x="1969.27" y="-628.95" font-family="sans-serif" font-size="16.00">PreferenciasClienteContexto</text>
</g>
<!-- CampanasPublicitariasContexto&#45;&gt;PreferenciasClienteContexto -->
<g id="edge16" class="edge">
<title>CampanasPublicitariasContexto&#45;&gt;PreferenciasClienteContexto</title>
<path fill="none" stroke="black" stroke-width="2" d="M2177.92,-733.37C2140.16,-715.34 2096.63,-694.56 2059.13,-676.65"/>
<text text-anchor="middle" x="2162.77" y="-702.66" font-family="sans-serif" font-size="12.00">Partnership</text>
</g>
<!-- PreferenciasClienteContexto&#45;&gt;ServicioClienteContexto -->
<g id="edge17" class="edge">
<title>PreferenciasClienteContexto&#45;&gt;ServicioClienteContexto</title>
<path fill="none" stroke="black" stroke-width="2" d="M1979.06,-589.73C1994.15,-525.36 2024.3,-398.54 2052.27,-291.46 2057.08,-273.04 2062.69,-252.74 2067.55,-235.5"/>
<text text-anchor="middle" x="2096.77" y="-410.01" font-family="sans-serif" font-size="12.00"> &#160;&#160;&#160;&#160;&#160;&#160;&#160;&#160;&#160;&#160;&#160;&#160;&#160;&#160;&#160;&#160;&#160;&#160;&#160;&#160;&#160;&#160;&#160;&#160;&#160;&#160;&#160;&#160;&#160;&#160;&#160;&#160;&#160;&#160;&#160;&#160;&#160;&#160;&#160;</text>
<polygon fill="white" stroke="transparent" points="2060.55,-226.5 2060.55,-243.5 2074.55,-243.5 2074.55,-226.5 2060.55,-226.5"/>
<text text-anchor="start" x="2062.55" y="-231.9" font-family="sans-serif" font-size="12.00">D</text>
<polygon fill="white" stroke="transparent" points="1972.06,-580.73 1972.06,-597.73 1986.06,-597.73 1986.06,-580.73 1972.06,-580.73"/>
<text text-anchor="start" x="1974.06" y="-586.13" font-family="sans-serif" font-size="12.00">U</text>
</g>
<!-- CapacitacionContexto -->
<g id="node18" class="node">
<title>CapacitacionContexto</title>
<polygon fill="none" stroke="black" stroke-width="2" points="1655.49,-91.85 1645.23,-92.06 1635.01,-92.15 1624.86,-92.12 1614.84,-91.96 1604.97,-91.67 1595.3,-91.27 1585.87,-90.74 1576.71,-90.08 1567.86,-89.31 1559.33,-88.42 1551.18,-87.41 1543.41,-86.28 1536.06,-85.05 1529.15,-83.71 1522.7,-82.26 1516.71,-80.71 1511.22,-79.07 1506.21,-77.33 1501.72,-75.51 1497.73,-73.61 1494.26,-71.63 1491.3,-69.59 1488.84,-67.48 1486.9,-65.31 1485.45,-63.09 1484.49,-60.83 1484.01,-58.53 1483.99,-56.2 1484.43,-53.85 1485.3,-51.48 1486.6,-49.1 1488.29,-46.72 1490.37,-44.35 1492.82,-41.99 1495.61,-39.64 1498.73,-37.33 1502.16,-35.05 1505.88,-32.8 1509.87,-30.6 1514.12,-28.46 1518.6,-26.37 1523.3,-24.35 1528.2,-22.4 1533.29,-20.53 1538.56,-18.73 1543.98,-17.02 1549.56,-15.4 1555.28,-13.88 1561.12,-12.45 1567.08,-11.13 1573.16,-9.91 1579.34,-8.8 1585.62,-7.8 1591.99,-6.92 1598.45,-6.15 1604.99,-5.49 1611.61,-4.95 1618.3,-4.53 1625.07,-4.23 1631.89,-4.05 1638.78,-3.99 1645.73,-4.05 1652.72,-4.22 1659.76,-4.52 1666.83,-4.92 1673.94,-5.44 1681.06,-6.08 1688.19,-6.82 1695.33,-7.67 1702.44,-8.63 1709.53,-9.68 1716.58,-10.84 1723.57,-12.09 1730.48,-13.43 1737.3,-14.86 1744,-16.38 1750.56,-17.98 1756.97,-19.65 1763.19,-21.39 1769.2,-23.2 1774.98,-25.08 1780.51,-27.01 1785.75,-29 1790.69,-31.03 1795.29,-33.11 1799.52,-35.23 1803.38,-37.38 1806.82,-39.55 1809.84,-41.75 1812.39,-43.97 1814.47,-46.2 1816.06,-48.43 1817.13,-50.67 1817.67,-52.9 1817.67,-55.11 1817.11,-57.32 1815.99,-59.5 1814.29,-61.65 1812.03,-63.77 1809.19,-65.86 1805.77,-67.89 1801.79,-69.88 1797.25,-71.82 1792.16,-73.69 1786.53,-75.5 1780.39,-77.24 1773.74,-78.91 1766.62,-80.5 1759.06,-82 1751.06,-83.41 1742.68,-84.73 1733.94,-85.96 1724.87,-87.08 1715.51,-88.1 1705.9,-89.01 1696.08,-89.81 1686.09,-90.5 1675.96,-91.07 1665.75,-91.52 1655.49,-91.85"/>
<text text-anchor="middle" x="1646.27" y="-44.04" font-family="sans-serif" font-size="16.00">CapacitacionContexto</text>
</g>
<!-- CatalogoInternoContexto -->
<g id="node19" class="node">
<title>CatalogoInternoContexto</title>
<polygon fill="none" stroke="black" stroke-width="2" points="1248.31,-528.41 1237.49,-529.31 1226.58,-530.08 1215.64,-530.73 1204.72,-531.26 1193.84,-531.65 1183.06,-531.91 1172.42,-532.03 1161.95,-532.02 1151.69,-531.87 1141.67,-531.58 1131.94,-531.15 1122.52,-530.59 1113.44,-529.89 1104.72,-529.06 1096.4,-528.09 1088.49,-527 1081,-525.78 1073.97,-524.44 1067.39,-522.98 1061.29,-521.41 1055.66,-519.73 1050.52,-517.95 1045.86,-516.07 1041.69,-514.11 1038.01,-512.06 1034.82,-509.93 1032.1,-507.74 1029.85,-505.49 1028.07,-503.18 1026.74,-500.83 1025.86,-498.44 1025.4,-496.02 1025.37,-493.58 1025.74,-491.13 1026.5,-488.68 1027.63,-486.22 1029.13,-483.78 1030.98,-481.36 1033.17,-478.96 1035.68,-476.6 1038.5,-474.28 1041.61,-472 1045.01,-469.78 1048.69,-467.62 1052.63,-465.53 1056.83,-463.51 1061.28,-461.57 1065.96,-459.71 1070.88,-457.93 1076.02,-456.25 1081.38,-454.66 1086.96,-453.16 1092.76,-451.77 1098.76,-450.48 1104.96,-449.3 1111.36,-448.23 1117.96,-447.26 1124.76,-446.4 1131.74,-445.65 1138.91,-445.02 1146.25,-444.49 1153.77,-444.08 1161.45,-443.78 1169.3,-443.58 1177.29,-443.5 1185.42,-443.52 1193.69,-443.65 1202.07,-443.89 1210.54,-444.23 1219.11,-444.68 1227.74,-445.22 1236.42,-445.86 1245.13,-446.6 1253.85,-447.43 1262.54,-448.36 1271.2,-449.37 1279.78,-450.48 1288.26,-451.66 1296.62,-452.93 1304.82,-454.28 1312.83,-455.7 1320.62,-457.2 1328.15,-458.77 1335.4,-460.4 1342.34,-462.1 1348.92,-463.87 1355.12,-465.69 1360.91,-467.56 1366.25,-469.49 1371.12,-471.46 1375.49,-473.48 1379.33,-475.53 1382.62,-477.62 1385.33,-479.74 1387.45,-481.89 1388.96,-484.06 1389.84,-486.25 1390.09,-488.45 1389.68,-490.65 1388.62,-492.86 1386.9,-495.06 1384.53,-497.26 1381.5,-499.44 1377.82,-501.6 1373.51,-503.73 1368.57,-505.83 1363.02,-507.89 1356.89,-509.91 1350.19,-511.87 1342.96,-513.78 1335.21,-515.63 1326.98,-517.4 1318.31,-519.1 1309.23,-520.72 1299.77,-522.25 1289.98,-523.69 1279.9,-525.03 1269.56,-526.27 1259.02,-527.39 1248.31,-528.41"/>
<text text-anchor="middle" x="1196.27" y="-482.63" font-family="sans-serif" font-size="16.00">CatalogoInternoContexto</text>
</g>
<!-- GestionCuentasEmpleadoContexto -->
<g id="node20" class="node">
<title>GestionCuentasEmpleadoContexto</title>
<polygon fill="none" stroke="black" stroke-width="2" points="1864.57,-207.67 1859.97,-210.41 1854.8,-213.1 1849.07,-215.73 1842.8,-218.27 1836.02,-220.73 1828.75,-223.08 1821.01,-225.33 1812.83,-227.47 1804.22,-229.48 1795.23,-231.36 1785.87,-233.1 1776.17,-234.69 1766.16,-236.14 1755.86,-237.43 1745.31,-238.56 1734.53,-239.54 1723.56,-240.35 1712.41,-241 1701.13,-241.48 1689.73,-241.81 1678.24,-241.97 1666.7,-241.97 1655.14,-241.82 1643.57,-241.51 1632.03,-241.05 1620.55,-240.45 1609.15,-239.72 1597.86,-238.85 1586.7,-237.85 1575.7,-236.74 1564.89,-235.51 1554.29,-234.18 1543.93,-232.75 1533.83,-231.23 1524.01,-229.62 1514.5,-227.95 1505.31,-226.2 1496.48,-224.39 1488.02,-222.53 1479.96,-220.63 1472.31,-218.68 1465.09,-216.7 1458.32,-214.7 1452.03,-212.67 1446.22,-210.63 1440.91,-208.58 1436.13,-206.53 1431.87,-204.47 1428.17,-202.42 1425.03,-200.37 1422.45,-198.34 1420.46,-196.32 1419.06,-194.31 1418.26,-192.33 1418.06,-190.36 1418.47,-188.41 1419.49,-186.49 1421.13,-184.6 1423.39,-182.73 1426.25,-180.89 1429.73,-179.08 1433.81,-177.29 1438.49,-175.54 1443.76,-173.82 1449.61,-172.14 1456.03,-170.49 1463,-168.88 1470.51,-167.3 1478.54,-165.77 1487.06,-164.28 1496.07,-162.83 1505.53,-161.44 1515.42,-160.09 1525.72,-158.8 1536.39,-157.56 1547.4,-156.39 1558.73,-155.29 1570.35,-154.25 1582.21,-153.29 1594.28,-152.4 1606.54,-151.61 1618.93,-150.9 1631.43,-150.28 1643.99,-149.76 1656.57,-149.34 1669.15,-149.04 1681.68,-148.84 1694.11,-148.76 1706.42,-148.8 1718.56,-148.97 1730.49,-149.27 1742.18,-149.69 1753.6,-150.25 1764.69,-150.95 1775.44,-151.78 1785.81,-152.75 1795.76,-153.86 1805.27,-155.11 1814.3,-156.49 1822.83,-158.01 1830.84,-159.66 1838.3,-161.44 1845.18,-163.34 1851.48,-165.37 1857.17,-167.51 1862.23,-169.76 1866.66,-172.11 1870.45,-174.55 1873.58,-177.08 1876.05,-179.68 1877.85,-182.36 1878.99,-185.09 1879.46,-187.86 1879.27,-190.67 1878.42,-193.51 1876.91,-196.36 1874.76,-199.22 1871.98,-202.06 1868.58,-204.88 1864.57,-207.67"/>
<text text-anchor="middle" x="1646.27" y="-189.77" font-family="sans-serif" font-size="16.00">GestionCuentasEmpleadoContexto</text>
</g>
<!-- GestionCuentasEmpleadoContexto&#45;&gt;AutorizacionContexto -->
<g id="edge19" class="edge">
<title>GestionCuentasEmpleadoContexto&#45;&gt;AutorizacionContexto</title>
<path fill="none" stroke="black" stroke-width="2" d="M1547.86,-156.3C1486.82,-133.8 1408.89,-105.08 1348.95,-82.99"/>
<text text-anchor="middle" x="1504.27" y="-117.08" font-family="sans-serif" font-size="12.00">Shared Kernel</text>
</g>
<!-- GestionCuentasEmpleadoContexto&#45;&gt;CapacitacionContexto -->
<g id="edge18" class="edge">
<title>GestionCuentasEmpleadoContexto&#45;&gt;CapacitacionContexto</title>
<path fill="none" stroke="black" stroke-width="2" d="M1646.27,-149.44C1646.27,-131.42 1646.27,-110.5 1646.27,-92.43"/>
<text text-anchor="middle" x="1680.77" y="-117.08" font-family="sans-serif" font-size="12.00">Partnership</text>
</g>
<!-- GestionDeProductosContexto -->
<g id="node21" class="node">
<title>GestionDeProductosContexto</title>
<polygon fill="none" stroke="black" stroke-width="2" points="1007.7,-619.4 1011.43,-616.65 1015.67,-613.95 1020.38,-611.31 1025.57,-608.75 1031.19,-606.27 1037.25,-603.9 1043.72,-601.62 1050.59,-599.47 1057.82,-597.43 1065.39,-595.53 1073.3,-593.76 1081.5,-592.13 1089.98,-590.66 1098.72,-589.33 1107.7,-588.16 1116.88,-587.16 1126.24,-586.31 1135.76,-585.62 1145.41,-585.1 1155.18,-584.74 1165.03,-584.54 1174.93,-584.5 1184.88,-584.62 1194.84,-584.89 1204.78,-585.3 1214.69,-585.86 1224.54,-586.56 1234.3,-587.39 1243.96,-588.34 1253.49,-589.42 1262.87,-590.61 1272.08,-591.9 1281.09,-593.3 1289.88,-594.78 1298.44,-596.35 1306.74,-597.99 1314.76,-599.71 1322.49,-601.48 1329.9,-603.31 1336.98,-605.19 1343.7,-607.1 1350.05,-609.05 1356.02,-611.03 1361.59,-613.03 1366.73,-615.05 1371.45,-617.08 1375.72,-619.11 1379.53,-621.15 1382.87,-623.19 1385.73,-625.22 1388.1,-627.24 1389.97,-629.25 1391.33,-631.25 1392.18,-633.23 1392.5,-635.19 1392.3,-637.14 1391.57,-639.06 1390.31,-640.96 1388.52,-642.83 1386.21,-644.68 1383.36,-646.5 1380,-648.29 1376.11,-650.05 1371.72,-651.79 1366.83,-653.49 1361.45,-655.16 1355.59,-656.79 1349.26,-658.39 1342.49,-659.94 1335.28,-661.46 1327.66,-662.93 1319.65,-664.36 1311.26,-665.74 1302.52,-667.06 1293.45,-668.33 1284.08,-669.53 1274.44,-670.68 1264.55,-671.75 1254.44,-672.75 1244.14,-673.67 1233.68,-674.51 1223.09,-675.26 1212.41,-675.92 1201.66,-676.48 1190.88,-676.93 1180.11,-677.28 1169.37,-677.52 1158.69,-677.64 1148.12,-677.64 1137.68,-677.51 1127.41,-677.26 1117.34,-676.87 1107.5,-676.35 1097.91,-675.7 1088.61,-674.9 1079.64,-673.97 1071,-672.89 1062.74,-671.68 1054.88,-670.33 1047.43,-668.84 1040.42,-667.22 1033.88,-665.47 1027.82,-663.59 1022.25,-661.59 1017.2,-659.47 1012.67,-657.24 1008.68,-654.91 1005.24,-652.49 1002.36,-649.97 1000.03,-647.38 998.28,-644.72 997.09,-642 996.46,-639.23 996.41,-636.42 996.92,-633.58 997.99,-630.73 999.61,-627.88 1001.77,-625.03 1004.47,-622.2 1007.7,-619.4"/>
<text text-anchor="middle" x="1196.27" y="-628.95" font-family="sans-serif" font-size="16.00">GestionDeProductosContexto</text>
</g>
<!-- GestionDeProductosContexto&#45;&gt;CatalogoProductosContexto -->
<g id="edge21" class="edge">
<title>GestionDeProductosContexto&#45;&gt;CatalogoProductosContexto</title>
<path fill="none" stroke="black" stroke-width="2" d="M1082.32,-591.93C1022.39,-570.99 949.35,-545.47 890.46,-524.89"/>
<text text-anchor="middle" x="1043.27" y="-556.65" font-family="sans-serif" font-size="12.00">Shared Kernel</text>
</g>
<!-- GestionDeProductosContexto&#45;&gt;CatalogoInternoContexto -->
<g id="edge20" class="edge">
<title>GestionDeProductosContexto&#45;&gt;CatalogoInternoContexto</title>
<path fill="none" stroke="black" stroke-width="2" d="M1196.27,-584.9C1196.27,-567.77 1196.27,-548.48 1196.27,-531.6"/>
<text text-anchor="middle" x="1238.27" y="-556.65" font-family="sans-serif" font-size="12.00">Shared Kernel</text>
</g>
<!-- LocalizacionContexto -->
<g id="node22" class="node">
<title>LocalizacionContexto</title>
<polygon fill="none" stroke="black" stroke-width="2" points="2466.86,-237.11 2456.97,-237.52 2447.08,-237.8 2437.24,-237.96 2427.49,-238 2417.86,-237.91 2408.39,-237.7 2399.13,-237.35 2390.09,-236.88 2381.32,-236.28 2372.85,-235.56 2364.7,-234.72 2356.9,-233.75 2349.48,-232.67 2342.46,-231.47 2335.85,-230.16 2329.68,-228.74 2323.96,-227.21 2318.69,-225.59 2313.89,-223.86 2309.57,-222.05 2305.72,-220.16 2302.36,-218.18 2299.47,-216.13 2297.06,-214.02 2295.12,-211.84 2293.64,-209.62 2292.62,-207.34 2292.04,-205.03 2291.89,-202.68 2292.17,-200.31 2292.85,-197.93 2293.91,-195.53 2295.35,-193.13 2297.15,-190.74 2299.29,-188.36 2301.76,-186 2304.53,-183.66 2307.59,-181.36 2310.92,-179.1 2314.52,-176.89 2318.35,-174.73 2322.42,-172.63 2326.7,-170.6 2331.18,-168.63 2335.85,-166.75 2340.69,-164.95 2345.7,-163.23 2350.87,-161.6 2356.19,-160.08 2361.65,-158.64 2367.24,-157.32 2372.96,-156.09 2378.81,-154.98 2384.77,-153.97 2390.84,-153.08 2397.02,-152.3 2403.3,-151.64 2409.69,-151.1 2416.17,-150.67 2422.74,-150.35 2429.4,-150.16 2436.15,-150.08 2442.97,-150.12 2449.86,-150.27 2456.81,-150.54 2463.82,-150.92 2470.88,-151.41 2477.97,-152.01 2485.08,-152.71 2492.21,-153.52 2499.34,-154.44 2506.45,-155.45 2513.52,-156.55 2520.55,-157.75 2527.5,-159.04 2534.36,-160.42 2541.11,-161.88 2547.72,-163.41 2554.17,-165.02 2560.43,-166.71 2566.49,-168.46 2572.31,-170.27 2577.87,-172.14 2583.15,-174.07 2588.11,-176.04 2592.73,-178.06 2596.98,-180.12 2600.85,-182.22 2604.3,-184.34 2607.31,-186.49 2609.87,-188.67 2611.94,-190.85 2613.52,-193.05 2614.59,-195.26 2615.12,-197.46 2615.11,-199.66 2614.55,-201.85 2613.43,-204.02 2611.75,-206.17 2609.5,-208.29 2606.69,-210.39 2603.31,-212.44 2599.38,-214.45 2594.9,-216.41 2589.88,-218.32 2584.35,-220.17 2578.32,-221.95 2571.8,-223.67 2564.83,-225.3 2557.43,-226.86 2549.63,-228.34 2541.45,-229.72 2532.93,-231.02 2524.11,-232.21 2515.02,-233.3 2505.7,-234.29 2496.18,-235.16 2486.51,-235.93 2476.72,-236.58 2466.86,-237.11"/>
<text text-anchor="middle" x="2447.27" y="-189.77" font-family="sans-serif" font-size="16.00">LocalizacionContexto</text>
</g>
<!-- TraduccionContexto -->
<g id="node23" class="node">
<title>TraduccionContexto</title>
<polygon fill="none" stroke="black" stroke-width="2" points="2373.22,-85.48 2364.99,-84.06 2357,-82.55 2349.31,-80.94 2341.94,-79.25 2334.92,-77.49 2328.27,-75.65 2322.04,-73.75 2316.24,-71.79 2310.89,-69.78 2306.02,-67.72 2301.64,-65.62 2297.78,-63.49 2294.43,-61.33 2291.62,-59.15 2289.35,-56.96 2287.63,-54.76 2286.45,-52.55 2285.82,-50.35 2285.74,-48.15 2286.19,-45.96 2287.18,-43.8 2288.69,-41.65 2290.7,-39.54 2293.2,-37.45 2296.18,-35.4 2299.61,-33.39 2303.48,-31.43 2307.76,-29.51 2312.43,-27.64 2317.46,-25.83 2322.83,-24.07 2328.51,-22.38 2334.48,-20.75 2340.7,-19.19 2347.16,-17.69 2353.81,-16.27 2360.64,-14.93 2367.62,-13.66 2374.72,-12.47 2381.92,-11.36 2389.19,-10.34 2396.5,-9.41 2403.85,-8.57 2411.2,-7.82 2418.53,-7.16 2425.83,-6.59 2433.08,-6.13 2440.26,-5.76 2447.35,-5.5 2454.35,-5.34 2461.24,-5.28 2468.01,-5.32 2474.66,-5.48 2481.16,-5.74 2487.52,-6.11 2493.73,-6.58 2499.79,-7.17 2505.68,-7.87 2511.4,-8.67 2516.95,-9.58 2522.34,-10.6 2527.54,-11.73 2532.57,-12.96 2537.41,-14.29 2542.07,-15.73 2546.54,-17.26 2550.83,-18.89 2554.91,-20.6 2558.8,-22.41 2562.48,-24.3 2565.96,-26.27 2569.22,-28.32 2572.26,-30.44 2575.07,-32.61 2577.64,-34.85 2579.97,-37.14 2582.05,-39.47 2583.87,-41.84 2585.41,-44.24 2586.67,-46.67 2587.64,-49.11 2588.3,-51.56 2588.65,-54.01 2588.68,-56.45 2588.36,-58.87 2587.71,-61.27 2586.7,-63.64 2585.32,-65.97 2583.57,-68.24 2581.44,-70.46 2578.93,-72.62 2576.02,-74.7 2572.72,-76.71 2569.03,-78.63 2564.94,-80.45 2560.45,-82.18 2555.58,-83.8 2550.31,-85.31 2544.67,-86.7 2538.66,-87.97 2532.3,-89.12 2525.58,-90.14 2518.55,-91.02 2511.2,-91.77 2503.56,-92.39 2495.65,-92.87 2487.5,-93.21 2479.14,-93.41 2470.58,-93.47 2461.87,-93.39 2453.02,-93.17 2444.08,-92.82 2435.07,-92.33 2426.04,-91.72 2417.01,-90.98 2408.03,-90.11 2399.12,-89.12 2390.33,-88.02 2381.68,-86.8 2373.22,-85.48"/>
<text text-anchor="middle" x="2447.27" y="-44.04" font-family="sans-serif" font-size="16.00">TraduccionContexto</text>
</g>
<!-- LocalizacionContexto&#45;&gt;TraduccionContexto -->
<g id="edge22" class="edge">
<title>LocalizacionContexto&#45;&gt;TraduccionContexto</title>
<path fill="none" stroke="black" stroke-width="2" d="M2447.27,-149.83C2447.27,-131.96 2447.27,-111.19 2447.27,-93.15"/>
<text text-anchor="middle" x="2481.77" y="-117.08" font-family="sans-serif" font-size="12.00">Partnership</text>
</g>
<!-- OrdenesContexto -->
<g id="node24" class="node">
<title>OrdenesContexto</title>
<polygon fill="none" stroke="black" stroke-width="2" points="1537.81,-590.01 1546.07,-589.25 1554.36,-588.62 1562.66,-588.11 1570.92,-587.73 1579.13,-587.48 1587.25,-587.37 1595.25,-587.39 1603.09,-587.54 1610.75,-587.82 1618.21,-588.25 1625.44,-588.8 1632.41,-589.49 1639.1,-590.31 1645.5,-591.26 1651.59,-592.34 1657.35,-593.54 1662.77,-594.86 1667.83,-596.3 1672.53,-597.84 1676.86,-599.5 1680.81,-601.26 1684.39,-603.11 1687.59,-605.05 1690.4,-607.07 1692.84,-609.17 1694.9,-611.35 1696.6,-613.58 1697.93,-615.86 1698.91,-618.2 1699.54,-620.57 1699.83,-622.98 1699.79,-625.4 1699.44,-627.85 1698.78,-630.3 1697.83,-632.75 1696.59,-635.19 1695.09,-637.62 1693.33,-640.02 1691.31,-642.39 1689.07,-644.73 1686.59,-647.01 1683.9,-649.25 1681.01,-651.43 1677.92,-653.54 1674.64,-655.59 1671.18,-657.56 1667.55,-659.45 1663.75,-661.25 1659.79,-662.96 1655.67,-664.58 1651.4,-666.1 1646.99,-667.52 1642.43,-668.84 1637.74,-670.05 1632.9,-671.15 1627.94,-672.15 1622.84,-673.03 1617.62,-673.8 1612.27,-674.45 1606.8,-675 1601.22,-675.42 1595.52,-675.74 1589.71,-675.94 1583.81,-676.03 1577.8,-676.01 1571.71,-675.88 1565.54,-675.64 1559.3,-675.29 1553,-674.83 1546.66,-674.28 1540.27,-673.62 1533.87,-672.86 1527.46,-672 1521.06,-671.05 1514.68,-670.01 1508.36,-668.88 1502.1,-667.66 1495.93,-666.36 1489.86,-664.98 1483.93,-663.52 1478.15,-661.99 1472.55,-660.39 1467.15,-658.72 1461.97,-656.98 1457.04,-655.19 1452.38,-653.33 1448.02,-651.43 1443.97,-649.47 1440.27,-647.47 1436.93,-645.43 1433.97,-643.36 1431.41,-641.25 1429.27,-639.11 1427.57,-636.95 1426.32,-634.77 1425.52,-632.58 1425.2,-630.37 1425.36,-628.17 1426.01,-625.96 1427.15,-623.76 1428.78,-621.58 1430.9,-619.41 1433.51,-617.27 1436.6,-615.15 1440.17,-613.07 1444.19,-611.04 1448.67,-609.05 1453.58,-607.11 1458.9,-605.23 1464.62,-603.41 1470.71,-601.67 1477.15,-600 1483.92,-598.41 1490.98,-596.91 1498.3,-595.5 1505.86,-594.19 1513.62,-592.98 1521.56,-591.88 1529.63,-590.89 1537.81,-590.01"/>
<text text-anchor="middle" x="1570.27" y="-628.95" font-family="sans-serif" font-size="16.00">OrdenesContexto</text>
</g>
<!-- OrdenesContexto&#45;&gt;SeguimientoPedidosContexto -->
<g id="edge24" class="edge">
<title>OrdenesContexto&#45;&gt;SeguimientoPedidosContexto</title>
<path fill="none" stroke="black" stroke-width="2" d="M1524.49,-591.41C1506.53,-574.73 1486.21,-554.75 1469.27,-535.25 1434.26,-494.93 1444.22,-466.43 1399.27,-437.61 1338.29,-398.52 1311,-416.71 1239.27,-406.61 1194.43,-400.29 1072.98,-415.13 1036.27,-388.61 998.14,-361.06 1013.13,-334.55 994.27,-291.46 965.67,-226.09 975.91,-198.66 929.27,-144.68 911.73,-124.38 888.82,-106.9 866.13,-92.64"/>
<text text-anchor="middle" x="1111.77" y="-336.93" font-family="sans-serif" font-size="12.00"> &#160;&#160;&#160;&#160;&#160;&#160;&#160;&#160;&#160;&#160;&#160;&#160;&#160;&#160;&#160;&#160;&#160;&#160;&#160;&#160;&#160;&#160;&#160;&#160;&#160;&#160;&#160;&#160;&#160;&#160;&#160;&#160;&#160;&#160;&#160;&#160;&#160;&#160;&#160;</text>
<polygon fill="white" stroke="transparent" points="859.13,-83.64 859.13,-100.64 873.13,-100.64 873.13,-83.64 859.13,-83.64"/>
<text text-anchor="start" x="861.13" y="-89.04" font-family="sans-serif" font-size="12.00">D</text>
<polygon fill="white" stroke="transparent" points="1517.49,-582.41 1517.49,-599.41 1531.49,-599.41 1531.49,-582.41 1517.49,-582.41"/>
<text text-anchor="start" x="1519.49" y="-587.81" font-family="sans-serif" font-size="12.00">U</text>
</g>
<!-- PagosContexto -->
<g id="node25" class="node">
<title>PagosContexto</title>
<polygon fill="none" stroke="black" stroke-width="2" points="1691.81,-514.9 1686.93,-517.09 1681.84,-519.2 1676.55,-521.2 1671.09,-523.09 1665.47,-524.86 1659.72,-526.51 1653.86,-528.03 1647.9,-529.41 1641.87,-530.64 1635.78,-531.73 1629.66,-532.66 1623.52,-533.44 1617.39,-534.06 1611.28,-534.51 1605.2,-534.8 1599.17,-534.93 1593.21,-534.9 1587.33,-534.7 1581.55,-534.34 1575.88,-533.83 1570.33,-533.16 1564.91,-532.34 1559.63,-531.38 1554.5,-530.28 1549.53,-529.04 1544.73,-527.67 1540.11,-526.19 1535.67,-524.58 1531.41,-522.88 1527.35,-521.07 1523.49,-519.18 1519.83,-517.2 1516.39,-515.15 1513.15,-513.03 1510.13,-510.86 1507.32,-508.64 1504.74,-506.39 1502.38,-504.1 1500.25,-501.79 1498.35,-499.47 1496.69,-497.13 1495.26,-494.8 1494.07,-492.48 1493.12,-490.17 1492.41,-487.89 1491.95,-485.63 1491.74,-483.4 1491.78,-481.21 1492.07,-479.06 1492.62,-476.96 1493.43,-474.91 1494.5,-472.91 1495.83,-470.97 1497.42,-469.08 1499.28,-467.26 1501.4,-465.51 1503.78,-463.81 1506.43,-462.19 1509.34,-460.63 1512.51,-459.14 1515.94,-457.73 1519.62,-456.38 1523.55,-455.1 1527.73,-453.9 1532.15,-452.77 1536.8,-451.71 1541.67,-450.72 1546.75,-449.81 1552.04,-448.97 1557.52,-448.21 1563.19,-447.52 1569.01,-446.91 1574.99,-446.38 1581.11,-445.92 1587.34,-445.55 1593.68,-445.25 1600.09,-445.04 1606.57,-444.91 1613.1,-444.87 1619.64,-444.92 1626.19,-445.06 1632.71,-445.29 1639.19,-445.61 1645.61,-446.02 1651.93,-446.54 1658.14,-447.15 1664.22,-447.86 1670.13,-448.67 1675.87,-449.58 1681.41,-450.6 1686.72,-451.72 1691.79,-452.94 1696.59,-454.26 1701.12,-455.69 1705.34,-457.22 1709.24,-458.85 1712.82,-460.58 1716.05,-462.4 1718.92,-464.31 1721.42,-466.31 1723.55,-468.4 1725.29,-470.56 1726.63,-472.8 1727.58,-475.11 1728.13,-477.48 1728.28,-479.9 1728.04,-482.38 1727.39,-484.89 1726.36,-487.44 1724.94,-490.01 1723.13,-492.59 1720.96,-495.18 1718.43,-497.76 1715.56,-500.33 1712.35,-502.88 1708.81,-505.39 1704.98,-507.86 1700.85,-510.27 1696.46,-512.62 1691.81,-514.9"/>
<text text-anchor="middle" x="1603.27" y="-482.63" font-family="sans-serif" font-size="16.00">PagosContexto</text>
</g>
<!-- OrdenesContexto&#45;&gt;PagosContexto -->
<g id="edge23" class="edge">
<title>OrdenesContexto&#45;&gt;PagosContexto</title>
<path fill="none" stroke="black" stroke-width="2" d="M1580.44,-587.27C1584.23,-570.71 1588.54,-551.85 1592.39,-535.02"/>
<text text-anchor="middle" x="1621.77" y="-556.65" font-family="sans-serif" font-size="12.00">Partnership</text>
</g>
<!-- PagosContexto&#45;&gt;ClienteContexto -->
<g id="edge25" class="edge">
<title>PagosContexto&#45;&gt;ClienteContexto</title>
<path fill="none" stroke="black" stroke-width="2" d="M1629.71,-444.82C1642.74,-424.8 1658.4,-400.75 1671.36,-380.84"/>
<text text-anchor="middle" x="1686.77" y="-410.01" font-family="sans-serif" font-size="12.00">Partnership</text>
</g>
<!-- PedidosyTransaccionesContexto -->
<g id="node26" class="node">
<title>PedidosyTransaccionesContexto</title>
<polygon fill="none" stroke="black" stroke-width="2" points="555.08,-343.37 553.81,-340.51 553.14,-337.66 553.07,-334.84 553.6,-332.04 554.75,-329.29 556.5,-326.59 558.86,-323.96 561.83,-321.39 565.39,-318.91 569.53,-316.52 574.26,-314.24 579.55,-312.05 585.39,-309.99 591.77,-308.04 598.66,-306.21 606.06,-304.52 613.94,-302.96 622.27,-301.54 631.03,-300.25 640.2,-299.11 649.75,-298.11 659.65,-297.25 669.87,-296.53 680.38,-295.95 691.15,-295.51 702.14,-295.2 713.33,-295.03 724.67,-294.98 736.14,-295.06 747.7,-295.26 759.31,-295.58 770.95,-296.01 782.56,-296.55 794.12,-297.19 805.6,-297.93 816.96,-298.76 828.16,-299.68 839.18,-300.67 849.98,-301.75 860.53,-302.89 870.8,-304.1 880.76,-305.38 890.38,-306.71 899.63,-308.09 908.5,-309.53 916.95,-311.01 924.97,-312.53 932.53,-314.1 939.62,-315.7 946.2,-317.34 952.28,-319.01 957.84,-320.71 962.86,-322.45 967.33,-324.2 971.24,-325.99 974.58,-327.8 977.36,-329.63 979.56,-331.49 981.18,-333.37 982.22,-335.27 982.69,-337.19 982.57,-339.12 981.89,-341.07 980.63,-343.04 978.82,-345.01 976.45,-347 973.54,-349 970.09,-351 966.12,-353 961.63,-355 956.65,-356.99 951.19,-358.97 945.26,-360.94 938.88,-362.89 932.07,-364.81 924.85,-366.7 917.23,-368.56 909.23,-370.37 900.88,-372.14 892.2,-373.84 883.2,-375.49 873.92,-377.06 864.37,-378.55 854.57,-379.96 844.56,-381.28 834.35,-382.5 823.98,-383.61 813.45,-384.6 802.81,-385.48 792.08,-386.23 781.27,-386.85 770.43,-387.33 759.57,-387.67 748.72,-387.86 737.91,-387.89 727.17,-387.78 716.52,-387.5 705.99,-387.07 695.6,-386.47 685.39,-385.72 675.38,-384.8 665.59,-383.73 656.05,-382.5 646.8,-381.11 637.84,-379.58 629.22,-377.9 620.95,-376.07 613.05,-374.12 605.55,-372.04 598.48,-369.84 591.84,-367.52 585.68,-365.11 579.99,-362.6 574.8,-360.02 570.14,-357.35 566,-354.63 562.42,-351.86 559.4,-349.05 556.95,-346.22 555.08,-343.37"/>
<text text-anchor="middle" x="769.27" y="-336.23" font-family="sans-serif" font-size="16.00">PedidosyTransaccionesContexto</text>
</g>
<!-- PedidosyTransaccionesContexto&#45;&gt;SeguimientoPedidosContexto -->
<g id="edge27" class="edge">
<title>PedidosyTransaccionesContexto&#45;&gt;SeguimientoPedidosContexto</title>
<path fill="none" stroke="black" stroke-width="2" d="M770.46,-295.9C771.95,-241.9 774.49,-149.81 776.01,-94.6"/>
<text text-anchor="middle" x="849.77" y="-190.47" font-family="sans-serif" font-size="12.00"> &#160;&#160;&#160;&#160;&#160;&#160;&#160;&#160;&#160;&#160;&#160;&#160;&#160;&#160;&#160;&#160;&#160;&#160;&#160;&#160;&#160;&#160;&#160;&#160;&#160;&#160;&#160;&#160;&#160;&#160;&#160;&#160;&#160;&#160;&#160;&#160;&#160;&#160;&#160;</text>
<polygon fill="white" stroke="transparent" points="769.01,-85.6 769.01,-102.6 783.01,-102.6 783.01,-85.6 769.01,-85.6"/>
<text text-anchor="start" x="771.01" y="-91" font-family="sans-serif" font-size="12.00">D</text>
<polygon fill="white" stroke="transparent" points="763.46,-286.9 763.46,-303.9 777.46,-303.9 777.46,-286.9 763.46,-286.9"/>
<text text-anchor="start" x="765.46" y="-292.3" font-family="sans-serif" font-size="12.00">U</text>
</g>
<!-- PedidosyTransaccionesContexto&#45;&gt;AnalisisYReporteContexto -->
<g id="edge26" class="edge">
<title>PedidosyTransaccionesContexto&#45;&gt;AnalisisYReporteContexto</title>
<path fill="none" stroke="black" stroke-width="2" d="M652.16,-297.71C638.14,-290.6 624.48,-282.52 612.27,-273.46 599.87,-264.25 588.4,-252.19 578.64,-240.28"/>
<text text-anchor="middle" x="687.77" y="-263.86" font-family="sans-serif" font-size="12.00"> &#160;&#160;&#160;&#160;&#160;&#160;&#160;&#160;&#160;&#160;&#160;&#160;&#160;&#160;&#160;&#160;&#160;&#160;&#160;&#160;&#160;&#160;&#160;&#160;&#160;&#160;&#160;&#160;&#160;&#160;&#160;&#160;&#160;&#160;&#160;&#160;&#160;&#160;&#160;</text>
<polygon fill="white" stroke="transparent" points="571.64,-231.28 571.64,-248.28 585.64,-248.28 585.64,-231.28 571.64,-231.28"/>
<text text-anchor="start" x="573.64" y="-236.68" font-family="sans-serif" font-size="12.00">D</text>
<polygon fill="white" stroke="transparent" points="645.16,-288.71 645.16,-305.71 659.16,-305.71 659.16,-288.71 645.16,-288.71"/>
<text text-anchor="start" x="647.16" y="-294.11" font-family="sans-serif" font-size="12.00">U</text>
</g>
<!-- PerfilClienteContexto -->
<g id="node27" class="node">
<title>PerfilClienteContexto</title>
<polygon fill="none" stroke="black" stroke-width="2" points="2362.06,-345.87 2360.89,-348.72 2359.31,-351.53 2357.34,-354.3 2354.97,-357.02 2352.2,-359.66 2349.06,-362.23 2345.55,-364.71 2341.68,-367.09 2337.45,-369.37 2332.89,-371.53 2328,-373.57 2322.79,-375.48 2317.29,-377.26 2311.51,-378.89 2305.46,-380.38 2299.15,-381.73 2292.62,-382.92 2285.86,-383.96 2278.91,-384.84 2271.78,-385.57 2264.49,-386.15 2257.07,-386.57 2249.52,-386.84 2241.87,-386.96 2234.14,-386.93 2226.36,-386.77 2218.53,-386.46 2210.69,-386.02 2202.86,-385.46 2195.05,-384.77 2187.29,-383.96 2179.59,-383.05 2171.98,-382.03 2164.48,-380.91 2157.11,-379.7 2149.89,-378.4 2142.84,-377.03 2135.97,-375.59 2129.31,-374.08 2122.87,-372.51 2116.67,-370.89 2110.73,-369.22 2105.06,-367.51 2099.68,-365.76 2094.61,-363.97 2089.85,-362.17 2085.43,-360.33 2081.34,-358.48 2077.62,-356.61 2074.26,-354.73 2071.27,-352.83 2068.67,-350.93 2066.45,-349.02 2064.64,-347.11 2063.23,-345.2 2062.22,-343.28 2061.62,-341.37 2061.44,-339.46 2061.67,-337.55 2062.31,-335.65 2063.36,-333.75 2064.83,-331.86 2066.7,-329.98 2068.97,-328.11 2071.63,-326.25 2074.69,-324.41 2078.12,-322.58 2081.93,-320.77 2086.09,-318.98 2090.61,-317.21 2095.46,-315.47 2100.64,-313.76 2106.13,-312.09 2111.92,-310.45 2117.98,-308.86 2124.31,-307.32 2130.88,-305.82 2137.68,-304.39 2144.69,-303.02 2151.89,-301.72 2159.26,-300.49 2166.77,-299.35 2174.42,-298.29 2182.17,-297.33 2190,-296.46 2197.9,-295.7 2205.83,-295.06 2213.79,-294.53 2221.74,-294.12 2229.67,-293.84 2237.54,-293.7 2245.35,-293.69 2253.07,-293.82 2260.67,-294.1 2268.13,-294.52 2275.44,-295.09 2282.57,-295.81 2289.51,-296.68 2296.23,-297.71 2302.72,-298.88 2308.95,-300.2 2314.92,-301.67 2320.6,-303.28 2325.98,-305.03 2331.04,-306.91 2335.77,-308.92 2340.16,-311.06 2344.19,-313.31 2347.86,-315.66 2351.15,-318.12 2354.06,-320.66 2356.58,-323.29 2358.7,-325.98 2360.41,-328.74 2361.72,-331.54 2362.61,-334.38 2363.09,-337.24 2363.16,-340.12 2362.81,-343 2362.06,-345.87"/>
<text text-anchor="middle" x="2212.27" y="-336.23" font-family="sans-serif" font-size="16.00">PerfilClienteContexto</text>
</g>
<!-- PerfilClienteContexto&#45;&gt;ServicioClienteContexto -->
<g id="edge28" class="edge">
<title>PerfilClienteContexto&#45;&gt;ServicioClienteContexto</title>
<path fill="none" stroke="black" stroke-width="2" d="M2174.51,-298.02C2156.39,-278.33 2134.74,-254.82 2116.66,-235.18"/>
<text text-anchor="middle" x="2224.77" y="-263.86" font-family="sans-serif" font-size="12.00"> &#160;&#160;&#160;&#160;&#160;&#160;&#160;&#160;&#160;&#160;&#160;&#160;&#160;&#160;&#160;&#160;&#160;&#160;&#160;&#160;&#160;&#160;&#160;&#160;&#160;&#160;&#160;&#160;&#160;&#160;&#160;&#160;&#160;&#160;&#160;&#160;&#160;&#160;&#160;</text>
<polygon fill="white" stroke="transparent" points="2109.66,-226.18 2109.66,-243.18 2123.66,-243.18 2123.66,-226.18 2109.66,-226.18"/>
<text text-anchor="start" x="2111.66" y="-231.58" font-family="sans-serif" font-size="12.00">D</text>
<polygon fill="white" stroke="transparent" points="2167.51,-289.02 2167.51,-306.02 2181.51,-306.02 2181.51,-289.02 2167.51,-289.02"/>
<text text-anchor="start" x="2169.51" y="-294.42" font-family="sans-serif" font-size="12.00">U</text>
</g>
<!-- PerfilClienteContexto&#45;&gt;LocalizacionContexto -->
<g id="edge29" class="edge">
<title>PerfilClienteContexto&#45;&gt;LocalizacionContexto</title>
<path fill="none" stroke="black" stroke-width="2" d="M2282.78,-295.69C2313.47,-276.82 2349.28,-254.81 2379.64,-236.14"/>
<text text-anchor="middle" x="2411.77" y="-263.86" font-family="sans-serif" font-size="12.00"> &#160;&#160;&#160;&#160;&#160;&#160;&#160;&#160;&#160;&#160;&#160;&#160;&#160;&#160;&#160;&#160;&#160;&#160;&#160;&#160;&#160;&#160;&#160;&#160;&#160;&#160;&#160;&#160;&#160;&#160;&#160;&#160;&#160;&#160;&#160;&#160;&#160;&#160;&#160;</text>
<polygon fill="white" stroke="transparent" points="2372.64,-227.14 2372.64,-244.14 2386.64,-244.14 2386.64,-227.14 2372.64,-227.14"/>
<text text-anchor="start" x="2374.64" y="-232.54" font-family="sans-serif" font-size="12.00">D</text>
<polygon fill="white" stroke="transparent" points="2275.78,-286.69 2275.78,-303.69 2289.78,-303.69 2289.78,-286.69 2275.78,-286.69"/>
<text text-anchor="start" x="2277.78" y="-292.09" font-family="sans-serif" font-size="12.00">U</text>
</g>
<!-- PromocionesContexto -->
<g id="node28" class="node">
<title>PromocionesContexto</title>
<polygon fill="none" stroke="black" stroke-width="2" points="1776.16,-744.67 1784.05,-746.47 1791.62,-748.34 1798.84,-750.3 1805.67,-752.32 1812.09,-754.4 1818.07,-756.53 1823.59,-758.71 1828.61,-760.93 1833.13,-763.17 1837.13,-765.44 1840.58,-767.73 1843.47,-770.02 1845.8,-772.32 1847.55,-774.61 1848.73,-776.89 1849.32,-779.15 1849.34,-781.39 1848.78,-783.61 1847.65,-785.79 1845.96,-787.93 1843.72,-790.03 1840.95,-792.08 1837.65,-794.08 1833.86,-796.03 1829.58,-797.92 1824.85,-799.75 1819.69,-801.51 1814.12,-803.21 1808.16,-804.84 1801.85,-806.4 1795.22,-807.88 1788.3,-809.29 1781.11,-810.62 1773.69,-811.88 1766.06,-813.05 1758.26,-814.15 1750.32,-815.16 1742.26,-816.08 1734.12,-816.92 1725.92,-817.68 1717.7,-818.35 1709.47,-818.92 1701.26,-819.41 1693.1,-819.81 1685.01,-820.12 1677.01,-820.33 1669.11,-820.45 1661.35,-820.47 1653.72,-820.4 1646.26,-820.23 1638.96,-819.96 1631.85,-819.59 1624.94,-819.13 1618.23,-818.56 1611.73,-817.9 1605.45,-817.13 1599.4,-816.26 1593.58,-815.3 1587.99,-814.23 1582.64,-813.06 1577.54,-811.8 1572.68,-810.44 1568.06,-808.98 1563.7,-807.43 1559.58,-805.79 1555.72,-804.06 1552.11,-802.25 1548.75,-800.35 1545.66,-798.38 1542.83,-796.33 1540.26,-794.21 1537.96,-792.03 1535.92,-789.79 1534.17,-787.5 1532.7,-785.17 1531.51,-782.79 1530.61,-780.38 1530.01,-777.95 1529.72,-775.49 1529.73,-773.03 1530.07,-770.57 1530.72,-768.11 1531.71,-765.67 1533.04,-763.25 1534.71,-760.86 1536.73,-758.52 1539.11,-756.22 1541.85,-753.98 1544.96,-751.81 1548.43,-749.71 1552.27,-747.69 1556.49,-745.77 1561.08,-743.94 1566.03,-742.21 1571.35,-740.6 1577.04,-739.1 1583.07,-737.72 1589.45,-736.48 1596.17,-735.37 1603.21,-734.39 1610.55,-733.55 1618.19,-732.86 1626.1,-732.32 1634.26,-731.92 1642.65,-731.67 1651.24,-731.57 1660.02,-731.62 1668.94,-731.82 1677.99,-732.16 1687.13,-732.65 1696.33,-733.29 1705.56,-734.06 1714.78,-734.96 1723.96,-736 1733.06,-737.16 1742.05,-738.45 1750.88,-739.84 1759.54,-741.35 1767.97,-742.96 1776.16,-744.67"/>
<text text-anchor="middle" x="1677.27" y="-774.66" font-family="sans-serif" font-size="16.00">PromocionesContexto</text>
</g>
<!-- PromocionesContexto&#45;&gt;PreferenciasClienteContexto -->
<g id="edge30" class="edge">
<title>PromocionesContexto&#45;&gt;PreferenciasClienteContexto</title>
<path fill="none" stroke="black" stroke-width="2" d="M1753.23,-740.08C1795.14,-719.45 1847.13,-693.86 1889.61,-672.96"/>
<text text-anchor="middle" x="1865.77" y="-702.66" font-family="sans-serif" font-size="12.00">Partnership</text>
</g>
<!-- PromocionesContexto&#45;&gt;GestionDeProductosContexto -->
<g id="edge31" class="edge">
<title>PromocionesContexto&#45;&gt;GestionDeProductosContexto</title>
<path fill="none" stroke="black" stroke-width="2" d="M1562.67,-743.22C1485.01,-720.02 1382.95,-689.53 1306.27,-666.62"/>
<text text-anchor="middle" x="1484.77" y="-702.66" font-family="sans-serif" font-size="12.00">Partnership</text>
</g>
<!-- RegistroClienteContexto -->
<g id="node29" class="node">
<title>RegistroClienteContexto</title>
<polygon fill="none" stroke="black" stroke-width="2" points="1214.28,-322.39 1218.56,-319.73 1223.25,-317.15 1228.31,-314.64 1233.75,-312.22 1239.53,-309.89 1245.64,-307.67 1252.05,-305.56 1258.75,-303.58 1265.72,-301.72 1272.92,-300 1280.35,-298.43 1287.98,-297.01 1295.79,-295.74 1303.76,-294.63 1311.85,-293.67 1320.06,-292.89 1328.37,-292.26 1336.74,-291.8 1345.16,-291.51 1353.6,-291.38 1362.06,-291.41 1370.5,-291.6 1378.91,-291.94 1387.27,-292.44 1395.56,-293.09 1403.76,-293.87 1411.86,-294.79 1419.83,-295.85 1427.66,-297.02 1435.33,-298.31 1442.83,-299.71 1450.14,-301.21 1457.24,-302.8 1464.12,-304.48 1470.77,-306.24 1477.17,-308.07 1483.3,-309.95 1489.16,-311.9 1494.73,-313.89 1499.99,-315.91 1504.94,-317.98 1509.56,-320.06 1513.84,-322.17 1517.77,-324.28 1521.33,-326.41 1524.53,-328.53 1527.34,-330.65 1529.77,-332.77 1531.79,-334.87 1533.41,-336.95 1534.61,-339.02 1535.39,-341.06 1535.75,-343.07 1535.67,-345.06 1535.16,-347.02 1534.2,-348.94 1532.81,-350.84 1530.98,-352.69 1528.71,-354.51 1526,-356.29 1522.85,-358.04 1519.26,-359.74 1515.26,-361.4 1510.83,-363.02 1505.98,-364.6 1500.74,-366.13 1495.1,-367.62 1489.08,-369.06 1482.69,-370.45 1475.96,-371.78 1468.88,-373.07 1461.5,-374.3 1453.81,-375.47 1445.85,-376.59 1437.63,-377.64 1429.17,-378.62 1420.52,-379.53 1411.67,-380.36 1402.67,-381.12 1393.55,-381.8 1384.31,-382.39 1375.01,-382.89 1365.66,-383.29 1356.3,-383.6 1346.95,-383.8 1337.65,-383.9 1328.42,-383.88 1319.29,-383.76 1310.31,-383.51 1301.48,-383.14 1292.85,-382.65 1284.44,-382.03 1276.27,-381.29 1268.39,-380.41 1260.8,-379.4 1253.54,-378.27 1246.63,-377 1240.09,-375.6 1233.95,-374.08 1228.21,-372.43 1222.91,-370.65 1218.05,-368.76 1213.65,-366.75 1209.72,-364.64 1206.27,-362.41 1203.31,-360.1 1200.86,-357.69 1198.91,-355.2 1197.46,-352.63 1196.53,-350 1196.1,-347.32 1196.18,-344.59 1196.76,-341.82 1197.85,-339.03 1199.42,-336.22 1201.47,-333.42 1203.99,-330.62 1206.98,-327.84 1210.41,-325.09 1214.28,-322.39"/>
<text text-anchor="middle" x="1369.27" y="-336.23" font-family="sans-serif" font-size="16.00">RegistroClienteContexto</text>
</g>
<!-- RegistroClienteContexto&#45;&gt;ServicioClienteContexto -->
<g id="edge33" class="edge">
<title>RegistroClienteContexto&#45;&gt;ServicioClienteContexto</title>
<path fill="none" stroke="black" stroke-width="2" d="M1481.35,-309.09C1504.74,-303.07 1529.27,-296.92 1552.27,-291.46 1615.96,-276.33 1631.57,-270.42 1696.27,-260.46 1780.98,-247.41 1803.79,-256.92 1888.27,-242.46 1913.8,-238.09 1940.94,-232.11 1966.51,-225.86"/>
<text text-anchor="middle" x="1771.77" y="-263.86" font-family="sans-serif" font-size="12.00"> &#160;&#160;&#160;&#160;&#160;&#160;&#160;&#160;&#160;&#160;&#160;&#160;&#160;&#160;&#160;&#160;&#160;&#160;&#160;&#160;&#160;&#160;&#160;&#160;&#160;&#160;&#160;&#160;&#160;&#160;&#160;&#160;&#160;&#160;&#160;&#160;&#160;&#160;&#160;</text>
<polygon fill="white" stroke="transparent" points="1959.51,-216.86 1959.51,-233.86 1973.51,-233.86 1973.51,-216.86 1959.51,-216.86"/>
<text text-anchor="start" x="1961.51" y="-222.26" font-family="sans-serif" font-size="12.00">D</text>
<polygon fill="white" stroke="transparent" points="1474.35,-300.09 1474.35,-317.09 1488.35,-317.09 1488.35,-300.09 1474.35,-300.09"/>
<text text-anchor="start" x="1476.35" y="-305.49" font-family="sans-serif" font-size="12.00">U</text>
</g>
<!-- RegistroClienteContexto&#45;&gt;AutenticacionContexto -->
<g id="edge32" class="edge">
<title>RegistroClienteContexto&#45;&gt;AutenticacionContexto</title>
<path fill="none" stroke="black" stroke-width="2" d="M1322.92,-292.53C1304.01,-273.56 1282.38,-251.86 1264.3,-233.72"/>
<text text-anchor="middle" x="1376.77" y="-263.86" font-family="sans-serif" font-size="12.00"> &#160;&#160;&#160;&#160;&#160;&#160;&#160;&#160;&#160;&#160;&#160;&#160;&#160;&#160;&#160;&#160;&#160;&#160;&#160;&#160;&#160;&#160;&#160;&#160;&#160;&#160;&#160;&#160;&#160;&#160;&#160;&#160;&#160;&#160;&#160;&#160;&#160;&#160;&#160;</text>
<polygon fill="white" stroke="transparent" points="1257.3,-224.72 1257.3,-241.72 1271.3,-241.72 1271.3,-224.72 1257.3,-224.72"/>
<text text-anchor="start" x="1259.3" y="-230.12" font-family="sans-serif" font-size="12.00">D</text>
<polygon fill="white" stroke="transparent" points="1315.92,-283.53 1315.92,-300.53 1329.92,-300.53 1329.92,-283.53 1315.92,-283.53"/>
<text text-anchor="start" x="1317.92" y="-288.93" font-family="sans-serif" font-size="12.00">U</text>
</g>
</g>
</svg>
