<svg width="2000px" height="665px"
 viewBox="0.00 0.00 2929.11 973.92" xmlns="http://www.w3.org/2000/svg" xmlns:xlink="http://www.w3.org/1999/xlink">
<g id="graph0" class="graph" transform="scale(1.0 1.0) rotate(0) translate(4 969.92)">
<title>ContextMapGraph</title>
<polygon fill="white" stroke="transparent" points="-4,4 -4,-969.92 2925.11,-969.92 2925.11,4 -4,4"/>
<!-- AlmacenamientoContexto -->
<g id="node1" class="node">
<title>AlmacenamientoContexto</title>
<polygon fill="none" stroke="black" stroke-width="2" points="590.8,-770 590.97,-767.12 591.63,-764.25 592.78,-761.42 594.42,-758.64 596.56,-755.91 599.18,-753.24 602.27,-750.65 605.84,-748.15 609.87,-745.75 614.34,-743.44 619.26,-741.26 624.6,-739.18 630.35,-737.24 636.5,-735.43 643.03,-733.75 649.91,-732.21 657.14,-730.82 664.69,-729.58 672.54,-728.48 680.67,-727.53 689.05,-726.74 697.66,-726.09 706.48,-725.59 715.49,-725.23 724.64,-725.02 733.93,-724.95 743.32,-725.02 752.79,-725.22 762.31,-725.54 771.85,-725.99 781.39,-726.56 790.89,-727.24 800.33,-728.03 809.69,-728.92 818.93,-729.91 828.04,-730.98 836.98,-732.14 845.73,-733.37 854.26,-734.68 862.55,-736.05 870.59,-737.48 878.34,-738.97 885.78,-740.51 892.89,-742.1 899.66,-743.72 906.07,-745.39 912.09,-747.09 917.72,-748.82 922.93,-750.57 927.72,-752.35 932.06,-754.16 935.96,-755.98 939.4,-757.82 942.37,-759.68 944.86,-761.55 946.87,-763.43 948.4,-765.33 949.43,-767.24 949.98,-769.15 950.03,-771.07 949.6,-773 948.67,-774.94 947.27,-776.87 945.38,-778.81 943.02,-780.76 940.19,-782.69 936.91,-784.63 933.18,-786.55 929.02,-788.47 924.43,-790.38 919.43,-792.26 914.03,-794.13 908.24,-795.97 902.1,-797.79 895.6,-799.57 888.77,-801.31 881.63,-803 874.19,-804.64 866.48,-806.23 858.52,-807.75 850.32,-809.2 841.92,-810.57 833.32,-811.87 824.56,-813.07 815.65,-814.17 806.63,-815.17 797.51,-816.06 788.32,-816.83 779.08,-817.48 769.82,-818 760.55,-818.39 751.32,-818.63 742.13,-818.74 733.01,-818.69 723.99,-818.5 715.09,-818.15 706.34,-817.65 697.76,-816.99 689.36,-816.17 681.18,-815.19 673.23,-814.06 665.54,-812.78 658.13,-811.34 651.01,-809.75 644.21,-808.02 637.75,-806.16 631.64,-804.15 625.9,-802.03 620.55,-799.78 615.6,-797.43 611.07,-794.97 606.96,-792.42 603.3,-789.79 600.09,-787.09 597.34,-784.33 595.07,-781.51 593.27,-778.66 591.96,-775.79 591.13,-772.89 590.8,-770"/>
<text text-anchor="middle" x="770.63" y="-767.47" font-family="sans-serif" font-size="16.00">AlmacenamientoContexto</text>
</g>
<!-- StockContexto -->
<g id="node2" class="node">
<title>StockContexto</title>
<polygon fill="none" stroke="black" stroke-width="2" points="1181.52,-662.56 1175.38,-664.22 1169.1,-665.76 1162.71,-667.19 1156.22,-668.5 1149.66,-669.68 1143.07,-670.72 1136.45,-671.63 1129.84,-672.39 1123.26,-673 1116.72,-673.46 1110.26,-673.77 1103.89,-673.93 1097.63,-673.93 1091.5,-673.78 1085.52,-673.47 1079.7,-673 1074.05,-672.39 1068.59,-671.62 1063.33,-670.71 1058.28,-669.66 1053.44,-668.46 1048.84,-667.14 1044.47,-665.68 1040.34,-664.11 1036.46,-662.42 1032.82,-660.62 1029.43,-658.72 1026.29,-656.73 1023.4,-654.65 1020.77,-652.5 1018.39,-650.28 1016.25,-648 1014.36,-645.66 1012.72,-643.29 1011.32,-640.88 1010.17,-638.45 1009.24,-636 1008.56,-633.54 1008.1,-631.09 1007.88,-628.64 1007.88,-626.21 1008.11,-623.8 1008.55,-621.42 1009.22,-619.09 1010.11,-616.79 1011.21,-614.55 1012.52,-612.36 1014.05,-610.23 1015.8,-608.17 1017.75,-606.17 1019.92,-604.26 1022.3,-602.42 1024.88,-600.66 1027.68,-598.98 1030.69,-597.39 1033.9,-595.89 1037.32,-594.47 1040.95,-593.15 1044.78,-591.92 1048.81,-590.78 1053.04,-589.74 1057.46,-588.78 1062.07,-587.93 1066.87,-587.16 1071.84,-586.49 1076.99,-585.92 1082.3,-585.43 1087.76,-585.04 1093.37,-584.74 1099.11,-584.53 1104.96,-584.42 1110.93,-584.39 1116.98,-584.46 1123.11,-584.61 1129.3,-584.86 1135.53,-585.19 1141.78,-585.61 1148.04,-586.12 1154.28,-586.72 1160.47,-587.4 1166.61,-588.18 1172.67,-589.03 1178.62,-589.98 1184.44,-591.01 1190.11,-592.13 1195.6,-593.33 1200.9,-594.61 1205.98,-595.98 1210.82,-597.43 1215.4,-598.96 1219.7,-600.57 1223.69,-602.25 1227.36,-604.01 1230.69,-605.84 1233.67,-607.74 1236.28,-609.71 1238.51,-611.74 1240.34,-613.83 1241.77,-615.97 1242.79,-618.16 1243.39,-620.4 1243.57,-622.68 1243.33,-624.99 1242.66,-627.33 1241.58,-629.69 1240.07,-632.06 1238.15,-634.44 1235.82,-636.83 1233.1,-639.2 1230,-641.56 1226.53,-643.9 1222.7,-646.21 1218.53,-648.48 1214.04,-650.7 1209.25,-652.86 1204.18,-654.96 1198.85,-656.99 1193.28,-658.94 1187.5,-660.79 1181.52,-662.56"/>
<text text-anchor="middle" x="1116.63" y="-622.4" font-family="sans-serif" font-size="16.00">StockContexto</text>
</g>
<!-- AlmacenamientoContexto&#45;&gt;StockContexto -->
<g id="edge1" class="edge">
<title>AlmacenamientoContexto&#45;&gt;StockContexto</title>
<path fill="none" stroke="black" stroke-width="2" d="M856.15,-734.9C910.49,-712.44 980.44,-683.51 1034.17,-661.3"/>
<text text-anchor="middle" x="1010.63" y="-695.21" font-family="sans-serif" font-size="12.00">Customer/Supplier</text>
<polygon fill="white" stroke="transparent" points="1027.17,-652.3 1027.17,-669.3 1041.17,-669.3 1041.17,-652.3 1027.17,-652.3"/>
<text text-anchor="start" x="1029.17" y="-657.7" font-family="sans-serif" font-size="12.00">D</text>
<polygon fill="white" stroke="transparent" points="849.15,-725.9 849.15,-742.9 863.15,-742.9 863.15,-725.9 849.15,-725.9"/>
<text text-anchor="start" x="851.15" y="-731.3" font-family="sans-serif" font-size="12.00">U</text>
</g>
<!-- CatalogoProductosContexto -->
<g id="node3" class="node">
<title>CatalogoProductosContexto</title>
<polygon fill="none" stroke="black" stroke-width="2" points="1391.07,-516.75 1380.8,-515.16 1370.89,-513.48 1361.38,-511.71 1352.31,-509.88 1343.72,-507.97 1335.64,-505.99 1328.12,-503.97 1321.17,-501.89 1314.83,-499.77 1309.12,-497.61 1304.07,-495.43 1299.69,-493.22 1296,-491 1293,-488.76 1290.71,-486.53 1289.14,-484.29 1288.28,-482.07 1288.13,-479.86 1288.68,-477.66 1289.93,-475.49 1291.87,-473.35 1294.47,-471.25 1297.72,-469.18 1301.6,-467.15 1306.09,-465.17 1311.16,-463.23 1316.78,-461.35 1322.91,-459.53 1329.54,-457.77 1336.63,-456.06 1344.13,-454.42 1352.02,-452.85 1360.27,-451.35 1368.82,-449.92 1377.66,-448.57 1386.73,-447.29 1396.01,-446.09 1405.46,-444.97 1415.04,-443.94 1424.72,-442.99 1434.48,-442.12 1444.26,-441.35 1454.06,-440.66 1463.83,-440.06 1473.56,-439.56 1483.21,-439.15 1492.77,-438.84 1502.2,-438.63 1511.5,-438.51 1520.64,-438.5 1529.61,-438.58 1538.4,-438.77 1546.98,-439.06 1555.36,-439.46 1563.51,-439.96 1571.43,-440.57 1579.12,-441.28 1586.56,-442.1 1593.75,-443.02 1600.69,-444.05 1607.38,-445.18 1613.8,-446.41 1619.96,-447.74 1625.85,-449.17 1631.47,-450.7 1636.82,-452.33 1641.89,-454.04 1646.68,-455.84 1651.19,-457.73 1655.4,-459.69 1659.32,-461.73 1662.94,-463.84 1666.25,-466.01 1669.25,-468.24 1671.92,-470.53 1674.25,-472.86 1676.25,-475.23 1677.89,-477.64 1679.17,-480.06 1680.08,-482.51 1680.6,-484.97 1680.72,-487.42 1680.44,-489.87 1679.73,-492.31 1678.6,-494.72 1677.02,-497.1 1674.99,-499.44 1672.5,-501.73 1669.54,-503.97 1666.11,-506.14 1662.19,-508.24 1657.79,-510.25 1652.9,-512.18 1647.52,-514.02 1641.65,-515.76 1635.31,-517.38 1628.48,-518.9 1621.19,-520.29 1613.44,-521.56 1605.25,-522.7 1596.63,-523.72 1587.61,-524.59 1578.2,-525.33 1568.42,-525.92 1558.31,-526.38 1547.9,-526.69 1537.21,-526.85 1526.28,-526.88 1515.15,-526.76 1503.85,-526.49 1492.42,-526.09 1480.91,-525.55 1469.36,-524.88 1457.81,-524.08 1446.31,-523.15 1434.89,-522.09 1423.62,-520.92 1412.53,-519.63 1401.66,-518.24 1391.07,-516.75"/>
<text text-anchor="middle" x="1498.63" y="-476.95" font-family="sans-serif" font-size="16.00">CatalogoProductosContexto</text>
</g>
<!-- StockContexto&#45;&gt;CatalogoProductosContexto -->
<g id="edge2" class="edge">
<title>StockContexto&#45;&gt;CatalogoProductosContexto</title>
<path fill="none" stroke="black" stroke-width="2" d="M1199.51,-594.07C1258.87,-571.78 1339,-541.69 1401.38,-518.27"/>
<text text-anchor="middle" x="1361.63" y="-550.98" font-family="sans-serif" font-size="12.00">Shared Kernel</text>
</g>
<!-- ProveedoresContexto -->
<g id="node10" class="node">
<title>ProveedoresContexto</title>
<polygon fill="none" stroke="black" stroke-width="2" points="1264.55,-491.81 1262.17,-494.59 1259.4,-497.32 1256.24,-499.99 1252.7,-502.59 1248.81,-505.11 1244.57,-507.54 1239.99,-509.87 1235.08,-512.09 1229.88,-514.19 1224.37,-516.17 1218.6,-518.01 1212.56,-519.72 1206.28,-521.28 1199.78,-522.7 1193.07,-523.96 1186.17,-525.07 1179.1,-526.02 1171.88,-526.81 1164.52,-527.44 1157.06,-527.91 1149.49,-528.22 1141.85,-528.37 1134.16,-528.37 1126.43,-528.22 1118.68,-527.93 1110.93,-527.49 1103.21,-526.91 1095.52,-526.2 1087.89,-525.36 1080.34,-524.4 1072.89,-523.33 1065.55,-522.15 1058.35,-520.88 1051.29,-519.51 1044.4,-518.05 1037.7,-516.51 1031.2,-514.91 1024.91,-513.24 1018.86,-511.51 1013.06,-509.73 1007.53,-507.9 1002.27,-506.04 997.31,-504.15 992.65,-502.23 988.31,-500.29 984.3,-498.33 980.64,-496.36 977.33,-494.38 974.38,-492.4 971.8,-490.42 969.61,-488.44 967.8,-486.46 966.39,-484.5 965.38,-482.54 964.77,-480.6 964.57,-478.67 964.79,-476.75 965.41,-474.86 966.45,-472.98 967.9,-471.12 969.77,-469.28 972.04,-467.46 974.71,-465.67 977.79,-463.9 981.25,-462.15 985.1,-460.43 989.33,-458.75 993.92,-457.09 998.86,-455.46 1004.15,-453.88 1009.76,-452.33 1015.68,-450.82 1021.91,-449.36 1028.41,-447.94 1035.18,-446.58 1042.19,-445.27 1049.42,-444.03 1056.86,-442.85 1064.48,-441.74 1072.26,-440.71 1080.18,-439.75 1088.21,-438.89 1096.33,-438.11 1104.52,-437.43 1112.76,-436.85 1121.01,-436.38 1129.25,-436.02 1137.47,-435.78 1145.62,-435.66 1153.7,-435.66 1161.67,-435.79 1169.51,-436.06 1177.2,-436.46 1184.72,-437.01 1192.04,-437.69 1199.13,-438.51 1205.99,-439.47 1212.59,-440.58 1218.9,-441.83 1224.92,-443.22 1230.62,-444.75 1235.98,-446.41 1241,-448.21 1245.66,-450.13 1249.94,-452.17 1253.84,-454.33 1257.34,-456.59 1260.44,-458.96 1263.12,-461.42 1265.39,-463.97 1267.23,-466.59 1268.64,-469.27 1269.62,-472.01 1270.17,-474.8 1270.3,-477.62 1269.99,-480.46 1269.26,-483.31 1268.1,-486.16 1266.53,-489 1264.55,-491.81"/>
<text text-anchor="middle" x="1116.63" y="-476.95" font-family="sans-serif" font-size="16.00">ProveedoresContexto</text>
</g>
<!-- StockContexto&#45;&gt;ProveedoresContexto -->
<g id="edge3" class="edge">
<title>StockContexto&#45;&gt;ProveedoresContexto</title>
<path fill="none" stroke="black" stroke-width="2" d="M1116.63,-584.09C1116.63,-566.54 1116.63,-545.98 1116.63,-527.91"/>
<text text-anchor="middle" x="1151.13" y="-550.98" font-family="sans-serif" font-size="12.00">Partnership</text>
</g>
<!-- LogisticayEnviosContexto -->
<g id="node4" class="node">
<title>LogisticayEnviosContexto</title>
<polygon fill="none" stroke="black" stroke-width="2" points="777.25,-374.83 766.57,-375.97 755.78,-376.99 744.9,-377.88 733.99,-378.64 723.09,-379.27 712.24,-379.77 701.48,-380.13 690.84,-380.34 680.37,-380.42 670.11,-380.35 660.07,-380.14 650.31,-379.79 640.85,-379.29 631.7,-378.65 622.91,-377.87 614.5,-376.95 606.47,-375.89 598.86,-374.71 591.67,-373.4 584.91,-371.96 578.61,-370.41 572.76,-368.74 567.37,-366.97 562.45,-365.09 557.99,-363.13 554,-361.08 550.47,-358.94 547.39,-356.74 544.77,-354.48 542.6,-352.16 540.86,-349.79 539.54,-347.38 538.65,-344.95 538.16,-342.49 538.06,-340.02 538.35,-337.54 539.02,-335.07 540.04,-332.61 541.42,-330.16 543.13,-327.75 545.17,-325.37 547.54,-323.02 550.21,-320.73 553.18,-318.49 556.44,-316.31 559.99,-314.2 563.82,-312.16 567.92,-310.2 572.29,-308.32 576.91,-306.52 581.8,-304.82 586.94,-303.2 592.33,-301.68 597.97,-300.26 603.85,-298.94 609.97,-297.73 616.33,-296.62 622.92,-295.61 629.75,-294.71 636.8,-293.92 644.07,-293.23 651.56,-292.65 659.25,-292.18 667.15,-291.81 675.23,-291.55 683.5,-291.4 691.93,-291.35 700.52,-291.4 709.25,-291.55 718.1,-291.81 727.06,-292.16 736.1,-292.61 745.2,-293.16 754.34,-293.8 763.49,-294.53 772.64,-295.35 781.74,-296.26 790.77,-297.26 799.7,-298.35 808.5,-299.51 817.13,-300.76 825.56,-302.08 833.77,-303.48 841.7,-304.96 849.34,-306.51 856.65,-308.12 863.58,-309.8 870.12,-311.55 876.22,-313.36 881.86,-315.22 887,-317.14 891.63,-319.11 895.7,-321.12 899.21,-323.18 902.11,-325.28 904.41,-327.42 906.08,-329.58 907.1,-331.78 907.46,-333.99 907.16,-336.22 906.2,-338.46 904.56,-340.7 902.25,-342.95 899.28,-345.19 895.65,-347.41 891.38,-349.62 886.47,-351.8 880.96,-353.95 874.85,-356.06 868.18,-358.13 860.96,-360.14 853.24,-362.1 845.03,-363.99 836.38,-365.81 827.32,-367.55 817.89,-369.2 808.12,-370.76 798.07,-372.22 787.76,-373.58 777.25,-374.83"/>
<text text-anchor="middle" x="709.63" y="-330.23" font-family="sans-serif" font-size="16.00">LogisticayEnviosContexto</text>
</g>
<!-- CatalogoProductosContexto&#45;&gt;LogisticayEnviosContexto -->
<g id="edge4" class="edge">
<title>CatalogoProductosContexto&#45;&gt;LogisticayEnviosContexto</title>
<path fill="none" stroke="black" stroke-width="2" d="M1367.68,-450.1C1338.74,-443.84 1308.18,-437.46 1279.63,-431.91 1139.45,-404.71 979.06,-377.82 864.21,-359.3"/>
<text text-anchor="middle" x="1213.63" y="-404.31" font-family="sans-serif" font-size="12.00">Shared Kernel</text>
</g>
<!-- ClienteContexto -->
<g id="node8" class="node">
<title>ClienteContexto</title>
<polygon fill="none" stroke="black" stroke-width="2" points="1252.61,-290.54 1260.53,-290.03 1268.45,-289.64 1276.35,-289.38 1284.19,-289.25 1291.94,-289.24 1299.57,-289.36 1307.06,-289.61 1314.37,-290 1321.48,-290.51 1328.36,-291.14 1335,-291.91 1341.36,-292.8 1347.43,-293.81 1353.2,-294.95 1358.64,-296.2 1363.74,-297.56 1368.49,-299.03 1372.89,-300.61 1376.92,-302.29 1380.57,-304.06 1383.85,-305.93 1386.75,-307.88 1389.27,-309.9 1391.41,-312 1393.19,-314.16 1394.59,-316.38 1395.64,-318.66 1396.33,-320.97 1396.68,-323.32 1396.69,-325.7 1396.38,-328.1 1395.75,-330.52 1394.83,-332.94 1393.62,-335.36 1392.13,-337.77 1390.38,-340.17 1388.38,-342.54 1386.14,-344.88 1383.68,-347.18 1381.01,-349.43 1378.13,-351.64 1375.07,-353.79 1371.83,-355.87 1368.42,-357.88 1364.85,-359.82 1361.13,-361.68 1357.27,-363.45 1353.27,-365.13 1349.14,-366.72 1344.89,-368.21 1340.53,-369.6 1336.05,-370.88 1331.46,-372.06 1326.76,-373.13 1321.97,-374.09 1317.07,-374.93 1312.08,-375.66 1307,-376.27 1301.83,-376.76 1296.58,-377.14 1291.24,-377.41 1285.83,-377.55 1280.34,-377.58 1274.78,-377.5 1269.17,-377.3 1263.49,-376.99 1257.77,-376.57 1252.01,-376.04 1246.22,-375.4 1240.4,-374.66 1234.58,-373.82 1228.77,-372.88 1222.97,-371.84 1217.21,-370.7 1211.49,-369.48 1205.84,-368.17 1200.27,-366.77 1194.8,-365.3 1189.46,-363.75 1184.26,-362.12 1179.21,-360.42 1174.36,-358.66 1169.7,-356.84 1165.27,-354.96 1161.09,-353.03 1157.18,-351.05 1153.55,-349.03 1150.24,-346.97 1147.26,-344.87 1144.62,-342.74 1142.35,-340.58 1140.47,-338.41 1138.99,-336.22 1137.92,-334.02 1137.27,-331.81 1137.06,-329.61 1137.3,-327.4 1137.99,-325.21 1139.13,-323.04 1140.73,-320.89 1142.79,-318.76 1145.3,-316.66 1148.27,-314.61 1151.68,-312.59 1155.52,-310.63 1159.79,-308.72 1164.47,-306.87 1169.54,-305.08 1174.98,-303.37 1180.78,-301.73 1186.92,-300.17 1193.36,-298.7 1200.08,-297.32 1207.05,-296.03 1214.26,-294.84 1221.66,-293.76 1229.23,-292.78 1236.93,-291.92 1244.74,-291.17 1252.61,-290.54"/>
<text text-anchor="middle" x="1272.63" y="-330.23" font-family="sans-serif" font-size="16.00">ClienteContexto</text>
</g>
<!-- CatalogoProductosContexto&#45;&gt;ClienteContexto -->
<g id="edge5" class="edge">
<title>CatalogoProductosContexto&#45;&gt;ClienteContexto</title>
<path fill="none" stroke="black" stroke-width="2" d="M1439.25,-441.73C1405.77,-420.29 1364.11,-393.61 1330.83,-372.3"/>
<text text-anchor="middle" x="1468.13" y="-404.31" font-family="sans-serif" font-size="12.00"> &#160;&#160;&#160;&#160;&#160;&#160;&#160;&#160;&#160;&#160;&#160;&#160;&#160;&#160;&#160;&#160;&#160;&#160;&#160;&#160;&#160;&#160;&#160;&#160;&#160;&#160;&#160;&#160;&#160;&#160;&#160;&#160;&#160;&#160;&#160;&#160;&#160;&#160;&#160;</text>
<polygon fill="white" stroke="transparent" points="1323.83,-363.3 1323.83,-380.3 1337.83,-380.3 1337.83,-363.3 1323.83,-363.3"/>
<text text-anchor="start" x="1325.83" y="-368.7" font-family="sans-serif" font-size="12.00">D</text>
<polygon fill="white" stroke="transparent" points="1432.25,-432.73 1432.25,-449.73 1446.25,-449.73 1446.25,-432.73 1432.25,-432.73"/>
<text text-anchor="start" x="1434.25" y="-438.13" font-family="sans-serif" font-size="12.00">U</text>
</g>
<!-- LogisticayEnviosContexto&#45;&gt;AlmacenamientoContexto -->
<g id="edge8" class="edge">
<title>LogisticayEnviosContexto&#45;&gt;AlmacenamientoContexto</title>
<path fill="none" stroke="black" stroke-width="2" d="M715.89,-379.73C727.58,-463.16 752.61,-641.71 764.33,-725.33"/>
<text text-anchor="middle" x="783.63" y="-550.98" font-family="sans-serif" font-size="12.00">Shared Kernel</text>
</g>
<!-- AnalisisYReporteContexto -->
<g id="node5" class="node">
<title>AnalisisYReporteContexto</title>
<polygon fill="none" stroke="black" stroke-width="2" points="687.66,-150.7 697.48,-152.27 706.96,-153.92 716.07,-155.66 724.77,-157.47 733.02,-159.36 740.79,-161.32 748.04,-163.33 754.75,-165.4 760.89,-167.51 766.44,-169.66 771.37,-171.84 775.66,-174.05 779.31,-176.28 782.3,-178.52 784.62,-180.76 786.27,-183.01 787.24,-185.25 787.54,-187.48 787.17,-189.69 786.15,-191.88 784.47,-194.05 782.16,-196.18 779.24,-198.28 775.71,-200.34 771.62,-202.36 766.97,-204.33 761.79,-206.25 756.13,-208.11 749.99,-209.92 743.42,-211.66 736.45,-213.34 729.1,-214.96 721.42,-216.5 713.44,-217.98 705.2,-219.38 696.71,-220.71 688.03,-221.95 679.19,-223.12 670.21,-224.2 661.13,-225.2 651.98,-226.11 642.79,-226.93 633.58,-227.67 624.39,-228.31 615.24,-228.85 606.15,-229.31 597.15,-229.66 588.25,-229.91 579.47,-230.07 570.84,-230.12 562.36,-230.07 554.05,-229.91 545.92,-229.65 537.98,-229.29 530.24,-228.82 522.71,-228.24 515.4,-227.55 508.31,-226.76 501.45,-225.86 494.82,-224.85 488.43,-223.74 482.27,-222.52 476.36,-221.2 470.69,-219.78 465.27,-218.26 460.1,-216.65 455.19,-214.94 450.54,-213.15 446.15,-211.26 442.03,-209.3 438.18,-207.26 434.61,-205.15 431.33,-202.97 428.34,-200.73 425.65,-198.44 423.28,-196.1 421.22,-193.72 419.5,-191.3 418.12,-188.86 417.09,-186.4 416.42,-183.92 416.13,-181.45 416.22,-178.97 416.71,-176.52 417.62,-174.08 418.94,-171.68 420.69,-169.31 422.88,-166.99 425.51,-164.72 428.6,-162.52 432.15,-160.39 436.17,-158.34 440.65,-156.37 445.6,-154.5 451.02,-152.72 456.9,-151.06 463.23,-149.5 470.02,-148.07 477.25,-146.76 484.91,-145.57 492.98,-144.52 501.44,-143.6 510.28,-142.82 519.47,-142.18 528.99,-141.68 538.8,-141.32 548.89,-141.11 559.21,-141.04 569.74,-141.12 580.43,-141.34 591.25,-141.7 602.16,-142.19 613.13,-142.82 624.09,-143.59 635.03,-144.48 645.88,-145.5 656.62,-146.63 667.19,-147.88 677.55,-149.24 687.66,-150.7"/>
<text text-anchor="middle" x="588.63" y="-183.63" font-family="sans-serif" font-size="16.00">AnalisisYReporteContexto</text>
</g>
<!-- LogisticayEnviosContexto&#45;&gt;AnalisisYReporteContexto -->
<g id="edge6" class="edge">
<title>LogisticayEnviosContexto&#45;&gt;AnalisisYReporteContexto</title>
<path fill="none" stroke="black" stroke-width="2" d="M667.72,-291.7C660.16,-283.74 652.5,-275.33 645.63,-267.15 635.53,-255.14 625.25,-241.46 616.25,-228.92"/>
<text text-anchor="middle" x="721.13" y="-257.55" font-family="sans-serif" font-size="12.00"> &#160;&#160;&#160;&#160;&#160;&#160;&#160;&#160;&#160;&#160;&#160;&#160;&#160;&#160;&#160;&#160;&#160;&#160;&#160;&#160;&#160;&#160;&#160;&#160;&#160;&#160;&#160;&#160;&#160;&#160;&#160;&#160;&#160;&#160;&#160;&#160;&#160;&#160;&#160;</text>
<polygon fill="white" stroke="transparent" points="609.25,-219.92 609.25,-236.92 623.25,-236.92 623.25,-219.92 609.25,-219.92"/>
<text text-anchor="start" x="611.25" y="-225.32" font-family="sans-serif" font-size="12.00">D</text>
<polygon fill="white" stroke="transparent" points="660.72,-282.7 660.72,-299.7 674.72,-299.7 674.72,-282.7 660.72,-282.7"/>
<text text-anchor="start" x="662.72" y="-288.1" font-family="sans-serif" font-size="12.00">U</text>
</g>
<!-- EnviosContexto -->
<g id="node6" class="node">
<title>EnviosContexto</title>
<polygon fill="none" stroke="black" stroke-width="2" points="835.16,-211.62 830.74,-209.24 826.63,-206.81 822.84,-204.34 819.39,-201.84 816.29,-199.31 813.56,-196.77 811.21,-194.22 809.26,-191.68 807.7,-189.15 806.56,-186.65 805.83,-184.17 805.52,-181.73 805.63,-179.34 806.17,-177 807.12,-174.71 808.49,-172.5 810.28,-170.35 812.46,-168.27 815.05,-166.28 818.02,-164.36 821.37,-162.54 825.07,-160.8 829.12,-159.15 833.49,-157.6 838.18,-156.15 843.16,-154.79 848.41,-153.52 853.9,-152.36 859.63,-151.29 865.56,-150.32 871.67,-149.45 877.94,-148.67 884.34,-147.99 890.85,-147.4 897.46,-146.91 904.12,-146.51 910.82,-146.2 917.54,-145.98 924.26,-145.85 930.95,-145.81 937.59,-145.85 944.16,-145.98 950.64,-146.19 957.01,-146.49 963.26,-146.86 969.37,-147.32 975.33,-147.87 981.11,-148.49 986.71,-149.19 992.11,-149.97 997.31,-150.83 1002.3,-151.78 1007.05,-152.8 1011.58,-153.89 1015.87,-155.07 1019.92,-156.33 1023.71,-157.66 1027.26,-159.07 1030.55,-160.56 1033.58,-162.12 1036.36,-163.75 1038.88,-165.46 1041.13,-167.24 1043.13,-169.09 1044.87,-171 1046.35,-172.98 1047.58,-175.02 1048.55,-177.11 1049.26,-179.26 1049.72,-181.46 1049.93,-183.7 1049.89,-185.98 1049.61,-188.3 1049.07,-190.64 1048.29,-193 1047.27,-195.38 1046.01,-197.76 1044.5,-200.14 1042.75,-202.52 1040.77,-204.88 1038.55,-207.21 1036.09,-209.51 1033.4,-211.77 1030.48,-213.98 1027.32,-216.13 1023.94,-218.21 1020.34,-220.21 1016.51,-222.13 1012.46,-223.96 1008.2,-225.68 1003.73,-227.29 999.06,-228.79 994.19,-230.16 989.13,-231.41 983.89,-232.51 978.47,-233.48 972.89,-234.29 967.15,-234.96 961.28,-235.47 955.27,-235.82 949.15,-236.01 942.93,-236.04 936.62,-235.91 930.25,-235.61 923.82,-235.15 917.37,-234.54 910.89,-233.76 904.43,-232.83 897.99,-231.75 891.6,-230.52 885.28,-229.15 879.05,-227.65 872.93,-226.01 866.95,-224.26 861.13,-222.39 855.49,-220.41 850.05,-218.34 844.83,-216.18 839.86,-213.93 835.16,-211.62"/>
<text text-anchor="middle" x="935.63" y="-183.63" font-family="sans-serif" font-size="16.00">EnviosContexto</text>
</g>
<!-- LogisticayEnviosContexto&#45;&gt;EnviosContexto -->
<g id="edge7" class="edge">
<title>LogisticayEnviosContexto&#45;&gt;EnviosContexto</title>
<path fill="none" stroke="black" stroke-width="2" d="M769.3,-294.85C802.12,-273.85 842.74,-247.86 875.62,-226.83"/>
<text text-anchor="middle" x="871.63" y="-257.55" font-family="sans-serif" font-size="12.00">Shared Kernel</text>
</g>
<!-- EnviosContexto&#45;&gt;AlmacenamientoContexto -->
<g id="edge10" class="edge">
<title>EnviosContexto&#45;&gt;AlmacenamientoContexto</title>
<path fill="none" stroke="black" stroke-width="2" d="M939.46,-236.26C940.79,-277.07 938.03,-336.37 916.63,-382.91 904.02,-410.33 884.74,-405.79 869.63,-431.91 862.09,-444.94 807.66,-637.8 782.87,-726.38"/>
<text text-anchor="middle" x="911.63" y="-477.65" font-family="sans-serif" font-size="12.00">Shared Kernel</text>
</g>
<!-- SeguimientoPedidosContexto -->
<g id="node7" class="node">
<title>SeguimientoPedidosContexto</title>
<polygon fill="none" stroke="black" stroke-width="2" points="297.6,-4.44 309.73,-5.5 321.57,-6.67 333.08,-7.94 344.2,-9.3 354.89,-10.76 365.11,-12.3 374.82,-13.92 383.97,-15.62 392.54,-17.39 400.49,-19.23 407.79,-21.12 414.41,-23.07 420.34,-25.07 425.56,-27.11 430.05,-29.19 433.8,-31.3 436.81,-33.44 439.06,-35.6 440.57,-37.77 441.34,-39.96 441.38,-42.15 440.69,-44.34 439.29,-46.52 437.2,-48.69 434.45,-50.85 431.05,-52.98 427.03,-55.09 422.41,-57.18 417.24,-59.22 411.53,-61.23 405.33,-63.19 398.67,-65.11 391.57,-66.98 384.09,-68.79 376.24,-70.54 368.08,-72.23 359.62,-73.85 350.92,-75.4 342,-76.87 332.89,-78.27 323.63,-79.59 314.25,-80.82 304.78,-81.96 295.24,-83.02 285.67,-83.98 276.08,-84.84 266.5,-85.61 256.94,-86.27 247.44,-86.83 238.01,-87.28 228.65,-87.63 219.39,-87.87 210.24,-88 201.21,-88.01 192.31,-87.91 183.54,-87.7 174.92,-87.37 166.45,-86.93 158.14,-86.37 149.99,-85.7 142,-84.92 134.19,-84.02 126.56,-83.01 119.11,-81.89 111.85,-80.67 104.78,-79.34 97.91,-77.9 91.24,-76.37 84.8,-74.74 78.57,-73.02 72.58,-71.21 66.84,-69.32 61.35,-67.35 56.14,-65.31 51.2,-63.2 46.57,-61.03 42.26,-58.81 38.28,-56.53 34.64,-54.22 31.38,-51.87 28.51,-49.49 26.05,-47.09 24.02,-44.68 22.43,-42.26 21.32,-39.84 20.69,-37.44 20.56,-35.05 20.96,-32.68 21.89,-30.35 23.38,-28.06 25.44,-25.82 28.07,-23.63 31.29,-21.51 35.11,-19.45 39.52,-17.47 44.54,-15.57 50.15,-13.76 56.36,-12.04 63.17,-10.43 70.55,-8.91 78.5,-7.51 87,-6.22 96.03,-5.05 105.56,-3.99 115.58,-3.06 126.05,-2.26 136.94,-1.58 148.22,-1.03 159.84,-0.61 171.77,-0.32 183.96,-0.17 196.37,-0.14 208.95,-0.24 221.65,-0.48 234.43,-0.83 247.23,-1.32 260,-1.92 272.68,-2.65 285.24,-3.49 297.6,-4.44"/>
<text text-anchor="middle" x="220.63" y="-41.06" font-family="sans-serif" font-size="16.00">SeguimientoPedidosContexto</text>
</g>
<!-- EnviosContexto&#45;&gt;SeguimientoPedidosContexto -->
<g id="edge9" class="edge">
<title>EnviosContexto&#45;&gt;SeguimientoPedidosContexto</title>
<path fill="none" stroke="black" stroke-width="2" d="M847.32,-153.6C830.63,-148.11 813.21,-142.87 796.63,-138.72 663.61,-105.42 510.2,-81.37 395.16,-66.1"/>
<text text-anchor="middle" x="745.63" y="-111.12" font-family="sans-serif" font-size="12.00">Shared Kernel</text>
</g>
<!-- ClienteContexto&#45;&gt;EnviosContexto -->
<g id="edge11" class="edge">
<title>ClienteContexto&#45;&gt;EnviosContexto</title>
<path fill="none" stroke="black" stroke-width="2" d="M1192.76,-298.76C1139.24,-275.8 1069.03,-245.67 1015.5,-222.71"/>
<text text-anchor="middle" x="1190.13" y="-257.55" font-family="sans-serif" font-size="12.00"> &#160;&#160;&#160;&#160;&#160;&#160;&#160;&#160;&#160;&#160;&#160;&#160;&#160;&#160;&#160;&#160;&#160;&#160;&#160;&#160;&#160;&#160;&#160;&#160;&#160;&#160;&#160;&#160;&#160;&#160;&#160;&#160;&#160;&#160;&#160;&#160;&#160;&#160;&#160;</text>
<polygon fill="white" stroke="transparent" points="1008.5,-213.71 1008.5,-230.71 1022.5,-230.71 1022.5,-213.71 1008.5,-213.71"/>
<text text-anchor="start" x="1010.5" y="-219.11" font-family="sans-serif" font-size="12.00">D</text>
<polygon fill="white" stroke="transparent" points="1185.76,-289.76 1185.76,-306.76 1199.76,-306.76 1199.76,-289.76 1185.76,-289.76"/>
<text text-anchor="start" x="1187.76" y="-295.16" font-family="sans-serif" font-size="12.00">U</text>
</g>
<!-- ServicioClienteContexto -->
<g id="node9" class="node">
<title>ServicioClienteContexto</title>
<polygon fill="none" stroke="black" stroke-width="2" points="1993.22,-165.13 1998.93,-167.6 2004.21,-170.11 2009.02,-172.66 2013.35,-175.23 2017.18,-177.83 2020.5,-180.42 2023.27,-183.02 2025.5,-185.6 2027.17,-188.17 2028.27,-190.7 2028.8,-193.19 2028.74,-195.64 2028.1,-198.04 2026.89,-200.38 2025.09,-202.64 2022.72,-204.84 2019.79,-206.96 2016.31,-209 2012.29,-210.95 2007.74,-212.81 2002.69,-214.57 1997.15,-216.24 1991.15,-217.81 1984.71,-219.28 1977.85,-220.65 1970.6,-221.92 1963,-223.09 1955.07,-224.15 1946.83,-225.11 1938.33,-225.97 1929.6,-226.72 1920.66,-227.38 1911.55,-227.94 1902.31,-228.4 1892.96,-228.77 1883.54,-229.04 1874.09,-229.22 1864.63,-229.32 1855.2,-229.32 1845.82,-229.23 1836.53,-229.06 1827.35,-228.81 1818.31,-228.47 1809.44,-228.05 1800.76,-227.55 1792.3,-226.97 1784.07,-226.32 1776.09,-225.58 1768.39,-224.77 1760.97,-223.88 1753.86,-222.92 1747.07,-221.88 1740.61,-220.77 1734.49,-219.58 1728.72,-218.32 1723.3,-216.98 1718.25,-215.57 1713.57,-214.09 1709.25,-212.54 1705.32,-210.92 1701.76,-209.23 1698.57,-207.47 1695.77,-205.64 1693.34,-203.75 1691.29,-201.8 1689.61,-199.79 1688.3,-197.72 1687.37,-195.61 1686.8,-193.44 1686.59,-191.23 1686.75,-188.98 1687.26,-186.69 1688.13,-184.38 1689.35,-182.04 1690.91,-179.69 1692.82,-177.33 1695.07,-174.97 1697.66,-172.61 1700.58,-170.26 1703.84,-167.94 1707.42,-165.64 1711.32,-163.38 1715.54,-161.17 1720.08,-159.02 1724.93,-156.92 1730.08,-154.9 1735.54,-152.96 1741.29,-151.11 1747.32,-149.36 1753.63,-147.72 1760.22,-146.19 1767.06,-144.78 1774.16,-143.49 1781.5,-142.34 1789.07,-141.34 1796.85,-140.48 1804.83,-139.76 1813,-139.21 1821.33,-138.81 1829.82,-138.57 1838.43,-138.5 1847.15,-138.59 1855.96,-138.84 1864.83,-139.26 1873.74,-139.85 1882.66,-140.59 1891.57,-141.49 1900.44,-142.55 1909.25,-143.75 1917.95,-145.11 1926.53,-146.6 1934.96,-148.23 1943.2,-149.98 1951.22,-151.85 1959.01,-153.84 1966.51,-155.93 1973.71,-158.11 1980.58,-160.38 1987.1,-162.72 1993.22,-165.13"/>
<text text-anchor="middle" x="1847.63" y="-183.63" font-family="sans-serif" font-size="16.00">ServicioClienteContexto</text>
</g>
<!-- ClienteContexto&#45;&gt;ServicioClienteContexto -->
<g id="edge12" class="edge">
<title>ClienteContexto&#45;&gt;ServicioClienteContexto</title>
<path fill="none" stroke="black" stroke-width="2" d="M1370.11,-299.4C1385.92,-294.36 1402.17,-289.43 1417.63,-285.15 1516.44,-257.79 1629.62,-232.57 1715.06,-214.75"/>
<text text-anchor="middle" x="1577.63" y="-257.55" font-family="sans-serif" font-size="12.00">Shared Kernel</text>
</g>
<!-- AutenticacionContexto -->
<g id="node11" class="node">
<title>AutenticacionContexto</title>
<polygon fill="none" stroke="black" stroke-width="2" points="1944.49,-903.97 1947.55,-901.21 1951.01,-898.51 1954.86,-895.88 1959.1,-893.32 1963.7,-890.84 1968.65,-888.46 1973.94,-886.19 1979.55,-884.03 1985.46,-882 1991.65,-880.09 1998.11,-878.32 2004.82,-876.7 2011.75,-875.22 2018.9,-873.9 2026.23,-872.73 2033.73,-871.72 2041.38,-870.88 2049.16,-870.19 2057.06,-869.67 2065.04,-869.31 2073.09,-869.11 2081.19,-869.07 2089.32,-869.18 2097.45,-869.45 2105.58,-869.87 2113.68,-870.43 2121.73,-871.12 2129.71,-871.95 2137.61,-872.91 2145.4,-873.99 2153.06,-875.18 2160.59,-876.47 2167.95,-877.86 2175.14,-879.35 2182.14,-880.92 2188.92,-882.56 2195.48,-884.27 2201.79,-886.05 2207.85,-887.88 2213.63,-889.75 2219.13,-891.67 2224.32,-893.62 2229.2,-895.6 2233.75,-897.6 2237.96,-899.62 2241.81,-901.65 2245.3,-903.68 2248.42,-905.72 2251.15,-907.76 2253.49,-909.79 2255.42,-911.81 2256.95,-913.82 2258.06,-915.82 2258.75,-917.8 2259.02,-919.76 2258.85,-921.7 2258.26,-923.63 2257.23,-925.52 2255.77,-927.4 2253.87,-929.24 2251.55,-931.06 2248.8,-932.86 2245.62,-934.62 2242.03,-936.35 2238.04,-938.06 2233.64,-939.72 2228.85,-941.36 2223.68,-942.95 2218.14,-944.51 2212.25,-946.03 2206.02,-947.5 2199.47,-948.93 2192.61,-950.3 2185.47,-951.63 2178.06,-952.9 2170.4,-954.1 2162.52,-955.24 2154.43,-956.32 2146.17,-957.32 2137.75,-958.24 2129.2,-959.08 2120.55,-959.83 2111.82,-960.49 2103.03,-961.05 2094.22,-961.5 2085.41,-961.85 2076.64,-962.09 2067.91,-962.21 2059.27,-962.21 2050.74,-962.08 2042.34,-961.83 2034.11,-961.44 2026.06,-960.92 2018.23,-960.26 2010.63,-959.47 2003.29,-958.53 1996.24,-957.46 1989.48,-956.25 1983.05,-954.9 1976.97,-953.41 1971.24,-951.79 1965.89,-950.04 1960.94,-948.16 1956.39,-946.16 1952.26,-944.04 1948.56,-941.81 1945.3,-939.48 1942.49,-937.05 1940.13,-934.54 1938.23,-931.95 1936.79,-929.29 1935.82,-926.56 1935.31,-923.79 1935.27,-920.99 1935.68,-918.15 1936.55,-915.3 1937.88,-912.44 1939.65,-909.6 1941.86,-906.77 1944.49,-903.97"/>
<text text-anchor="middle" x="2098.63" y="-913.52" font-family="sans-serif" font-size="16.00">AutenticacionContexto</text>
</g>
<!-- AutorizacionContexto -->
<g id="node12" class="node">
<title>AutorizacionContexto</title>
<polygon fill="none" stroke="black" stroke-width="2" points="2153.12,-730.02 2162.63,-730.99 2171.92,-732.08 2180.97,-733.26 2189.73,-734.55 2198.17,-735.93 2206.26,-737.41 2213.96,-738.96 2221.24,-740.6 2228.08,-742.32 2234.44,-744.1 2240.32,-745.95 2245.68,-747.86 2250.51,-749.83 2254.79,-751.84 2258.51,-753.9 2261.67,-755.99 2264.26,-758.12 2266.27,-760.27 2267.7,-762.45 2268.56,-764.64 2268.86,-766.84 2268.6,-769.05 2267.79,-771.25 2266.44,-773.45 2264.58,-775.64 2262.21,-777.82 2259.37,-779.97 2256.06,-782.1 2252.31,-784.2 2248.15,-786.26 2243.6,-788.29 2238.69,-790.27 2233.44,-792.2 2227.87,-794.08 2222.03,-795.9 2215.93,-797.66 2209.6,-799.35 2203.06,-800.98 2196.35,-802.53 2189.49,-804.01 2182.49,-805.4 2175.4,-806.71 2168.22,-807.94 2160.98,-809.07 2153.7,-810.11 2146.4,-811.05 2139.09,-811.9 2131.79,-812.64 2124.52,-813.28 2117.28,-813.81 2110.1,-814.23 2102.97,-814.54 2095.92,-814.73 2088.94,-814.82 2082.05,-814.79 2075.25,-814.64 2068.55,-814.38 2061.95,-814 2055.46,-813.5 2049.08,-812.89 2042.81,-812.16 2036.67,-811.32 2030.64,-810.36 2024.75,-809.3 2018.99,-808.12 2013.36,-806.84 2007.88,-805.45 2002.54,-803.96 1997.36,-802.37 1992.34,-800.69 1987.49,-798.91 1982.81,-797.06 1978.33,-795.12 1974.05,-793.1 1969.98,-791.02 1966.13,-788.87 1962.52,-786.67 1959.17,-784.41 1956.08,-782.11 1953.27,-779.77 1950.76,-777.4 1948.56,-775.01 1946.69,-772.6 1945.17,-770.18 1944.01,-767.75 1943.22,-765.34 1942.83,-762.94 1942.85,-760.56 1943.28,-758.21 1944.15,-755.89 1945.46,-753.62 1947.23,-751.4 1949.46,-749.24 1952.15,-747.14 1955.32,-745.11 1958.96,-743.16 1963.08,-741.3 1967.66,-739.53 1972.72,-737.85 1978.24,-736.27 1984.21,-734.79 1990.61,-733.43 1997.45,-732.18 2004.69,-731.05 2012.31,-730.03 2020.3,-729.14 2028.64,-728.38 2037.28,-727.74 2046.21,-727.23 2055.39,-726.85 2064.79,-726.6 2074.38,-726.48 2084.11,-726.48 2093.95,-726.62 2103.87,-726.88 2113.82,-727.27 2123.76,-727.78 2133.65,-728.41 2143.45,-729.16 2153.12,-730.02"/>
<text text-anchor="middle" x="2098.63" y="-767.47" font-family="sans-serif" font-size="16.00">AutorizacionContexto</text>
</g>
<!-- AutenticacionContexto&#45;&gt;AutorizacionContexto -->
<g id="edge13" class="edge">
<title>AutenticacionContexto&#45;&gt;AutorizacionContexto</title>
<path fill="none" stroke="black" stroke-width="2" d="M2098.63,-869.15C2098.63,-851.59 2098.63,-831.79 2098.63,-814.68"/>
<text text-anchor="middle" x="2174.13" y="-841.12" font-family="sans-serif" font-size="12.00"> &#160;&#160;&#160;&#160;&#160;&#160;&#160;&#160;&#160;&#160;&#160;&#160;&#160;&#160;&#160;&#160;&#160;&#160;&#160;&#160;&#160;&#160;&#160;&#160;&#160;&#160;&#160;&#160;&#160;&#160;&#160;&#160;&#160;&#160;&#160;&#160;&#160;&#160;&#160;</text>
<polygon fill="white" stroke="transparent" points="2091.63,-805.68 2091.63,-822.68 2105.63,-822.68 2105.63,-805.68 2091.63,-805.68"/>
<text text-anchor="start" x="2093.63" y="-811.08" font-family="sans-serif" font-size="12.00">D</text>
<polygon fill="white" stroke="transparent" points="2091.63,-860.15 2091.63,-877.15 2105.63,-877.15 2105.63,-860.15 2091.63,-860.15"/>
<text text-anchor="start" x="2093.63" y="-865.55" font-family="sans-serif" font-size="12.00">U</text>
</g>
<!-- CalidadContexto -->
<g id="node13" class="node">
<title>CalidadContexto</title>
<polygon fill="none" stroke="black" stroke-width="2" points="644.63,-915.29 644.89,-912.41 645.49,-909.56 646.44,-906.75 647.74,-903.97 649.37,-901.26 651.34,-898.62 653.64,-896.05 656.26,-893.57 659.2,-891.19 662.46,-888.91 666.01,-886.75 669.86,-884.71 673.99,-882.79 678.39,-881.01 683.05,-879.37 687.95,-877.87 693.09,-876.51 698.44,-875.3 704,-874.24 709.74,-873.33 715.66,-872.57 721.73,-871.96 727.94,-871.5 734.27,-871.18 740.7,-871.01 747.21,-870.98 753.79,-871.09 760.42,-871.33 767.08,-871.69 773.74,-872.18 780.4,-872.79 787.02,-873.51 793.61,-874.34 800.12,-875.26 806.55,-876.29 812.88,-877.39 819.09,-878.59 825.16,-879.86 831.08,-881.19 836.82,-882.6 842.38,-884.06 847.74,-885.58 852.88,-887.15 857.79,-888.76 862.46,-890.41 866.86,-892.1 871,-893.82 874.86,-895.56 878.43,-897.34 881.69,-899.13 884.65,-900.95 887.29,-902.79 889.61,-904.64 891.6,-906.5 893.25,-908.38 894.57,-910.26 895.54,-912.16 896.17,-914.07 896.46,-915.98 896.4,-917.89 896,-919.82 895.26,-921.74 894.17,-923.67 892.75,-925.59 891,-927.52 888.93,-929.44 886.53,-931.35 883.82,-933.26 880.8,-935.15 877.49,-937.03 873.89,-938.89 870.01,-940.73 865.87,-942.55 861.47,-944.33 856.82,-946.07 851.95,-947.78 846.86,-949.44 841.56,-951.04 836.08,-952.59 830.42,-954.07 824.6,-955.49 818.64,-956.82 812.55,-958.07 806.35,-959.23 800.05,-960.29 793.68,-961.25 787.24,-962.1 780.76,-962.83 774.25,-963.44 767.73,-963.92 761.22,-964.26 754.73,-964.47 748.28,-964.53 741.89,-964.45 735.58,-964.22 729.36,-963.83 723.25,-963.29 717.26,-962.6 711.42,-961.75 705.73,-960.74 700.22,-959.58 694.89,-958.26 689.77,-956.8 684.86,-955.19 680.18,-953.43 675.74,-951.54 671.56,-949.52 667.64,-947.38 664,-945.11 660.65,-942.75 657.59,-940.28 654.84,-937.72 652.41,-935.08 650.29,-932.37 648.5,-929.6 647.05,-926.79 645.93,-923.94 645.15,-921.06 644.72,-918.18 644.63,-915.29"/>
<text text-anchor="middle" x="770.63" y="-913.52" font-family="sans-serif" font-size="16.00">CalidadContexto</text>
</g>
<!-- CalidadContexto&#45;&gt;AlmacenamientoContexto -->
<g id="edge14" class="edge">
<title>CalidadContexto&#45;&gt;AlmacenamientoContexto</title>
<path fill="none" stroke="black" stroke-width="2" d="M770.63,-871.92C770.63,-854.81 770.63,-835.25 770.63,-818.01"/>
<text text-anchor="middle" x="805.13" y="-841.12" font-family="sans-serif" font-size="12.00">Partnership</text>
</g>
<!-- CatalogoInternoContexto -->
<g id="node14" class="node">
<title>CatalogoInternoContexto</title>
<polygon fill="none" stroke="black" stroke-width="2" points="1757.33,-459.09 1762.81,-456.58 1768.67,-454.15 1774.89,-451.81 1781.45,-449.56 1788.33,-447.41 1795.5,-445.37 1802.94,-443.46 1810.61,-441.68 1818.51,-440.03 1826.59,-438.53 1834.85,-437.17 1843.24,-435.97 1851.76,-434.93 1860.37,-434.04 1869.04,-433.32 1877.77,-432.76 1886.52,-432.37 1895.28,-432.14 1904.02,-432.08 1912.71,-432.18 1921.35,-432.43 1929.91,-432.85 1938.38,-433.42 1946.72,-434.14 1954.94,-435 1963.01,-436 1970.91,-437.13 1978.63,-438.39 1986.16,-439.76 1993.47,-441.25 2000.57,-442.83 2007.42,-444.52 2014.03,-446.29 2020.38,-448.13 2026.46,-450.05 2032.25,-452.03 2037.75,-454.07 2042.94,-456.15 2047.81,-458.27 2052.36,-460.42 2056.57,-462.59 2060.43,-464.78 2063.94,-466.98 2067.09,-469.18 2069.86,-471.38 2072.25,-473.57 2074.25,-475.74 2075.86,-477.9 2077.06,-480.03 2077.85,-482.14 2078.23,-484.22 2078.18,-486.26 2077.71,-488.26 2076.81,-490.23 2075.48,-492.15 2073.71,-494.03 2071.5,-495.86 2068.86,-497.65 2065.78,-499.39 2062.27,-501.08 2058.33,-502.72 2053.96,-504.31 2049.17,-505.84 2043.97,-507.33 2038.36,-508.76 2032.36,-510.13 2025.97,-511.45 2019.22,-512.71 2012.11,-513.91 2004.66,-515.06 1996.89,-516.14 1988.82,-517.16 1980.47,-518.11 1971.86,-518.99 1963.02,-519.81 1953.97,-520.55 1944.73,-521.22 1935.34,-521.81 1925.81,-522.31 1916.19,-522.74 1906.5,-523.07 1896.78,-523.31 1887.04,-523.46 1877.34,-523.51 1867.69,-523.46 1858.13,-523.3 1848.69,-523.04 1839.41,-522.67 1830.31,-522.18 1821.43,-521.58 1812.8,-520.86 1804.45,-520.02 1796.41,-519.06 1788.7,-517.98 1781.35,-516.78 1774.4,-515.46 1767.85,-514.01 1761.74,-512.45 1756.08,-510.78 1750.89,-508.99 1746.2,-507.09 1742.01,-505.09 1738.33,-502.98 1735.19,-500.78 1732.58,-498.49 1730.51,-496.11 1729,-493.66 1728.03,-491.15 1727.61,-488.57 1727.74,-485.94 1728.42,-483.27 1729.63,-480.57 1731.37,-477.85 1733.63,-475.12 1736.4,-472.38 1739.66,-469.66 1743.4,-466.96 1747.61,-464.29 1752.25,-461.66 1757.33,-459.09"/>
<text text-anchor="middle" x="1908.63" y="-476.95" font-family="sans-serif" font-size="16.00">CatalogoInternoContexto</text>
</g>
<!-- DevolucionesContexto -->
<g id="node15" class="node">
<title>DevolucionesContexto</title>
<polygon fill="none" stroke="black" stroke-width="2" points="422.96,-910.2 424.8,-913.01 426.2,-915.83 427.15,-918.65 427.64,-921.44 427.66,-924.2 427.22,-926.91 426.31,-929.58 424.93,-932.18 423.09,-934.71 420.78,-937.16 418.01,-939.53 414.79,-941.79 411.12,-943.95 407.02,-946.01 402.5,-947.94 397.57,-949.76 392.24,-951.45 386.53,-953.02 380.45,-954.45 374.03,-955.75 367.29,-956.92 360.24,-957.95 352.91,-958.85 345.32,-959.61 337.5,-960.24 329.47,-960.74 321.25,-961.12 312.87,-961.36 304.37,-961.49 295.76,-961.49 287.07,-961.38 278.33,-961.16 269.57,-960.83 260.82,-960.4 252.1,-959.87 243.43,-959.24 234.86,-958.53 226.4,-957.74 218.07,-956.86 209.91,-955.91 201.93,-954.88 194.16,-953.79 186.63,-952.64 179.34,-951.43 172.33,-950.16 165.61,-948.83 159.2,-947.46 153.11,-946.03 147.37,-944.56 141.97,-943.05 136.95,-941.49 132.3,-939.9 128.04,-938.27 124.18,-936.59 120.72,-934.89 117.68,-933.14 115.04,-931.37 112.83,-929.56 111.03,-927.72 109.66,-925.85 108.71,-923.95 108.18,-922.02 108.07,-920.07 108.37,-918.09 109.09,-916.09 110.21,-914.07 111.73,-912.03 113.65,-909.98 115.96,-907.92 118.64,-905.85 121.69,-903.78 125.1,-901.71 128.86,-899.64 132.96,-897.59 137.39,-895.55 142.13,-893.54 147.18,-891.56 152.51,-889.61 158.13,-887.71 164.01,-885.86 170.14,-884.06 176.51,-882.33 183.1,-880.68 189.9,-879.1 196.88,-877.61 204.05,-876.22 211.37,-874.93 218.83,-873.75 226.43,-872.69 234.13,-871.75 241.92,-870.94 249.79,-870.27 257.71,-869.74 265.67,-869.36 273.65,-869.13 281.64,-869.06 289.6,-869.14 297.52,-869.39 305.39,-869.79 313.18,-870.36 320.88,-871.09 328.45,-871.99 335.9,-873.05 343.18,-874.26 350.29,-875.63 357.2,-877.15 363.89,-878.81 370.35,-880.62 376.55,-882.56 382.48,-884.62 388.12,-886.81 393.45,-889.1 398.45,-891.49 403.1,-893.98 407.39,-896.54 411.31,-899.18 414.84,-901.87 417.97,-904.61 420.68,-907.39 422.96,-910.2"/>
<text text-anchor="middle" x="265.63" y="-913.52" font-family="sans-serif" font-size="16.00">DevolucionesContexto</text>
</g>
<!-- DevolucionesContexto&#45;&gt;AlmacenamientoContexto -->
<g id="edge15" class="edge">
<title>DevolucionesContexto&#45;&gt;AlmacenamientoContexto</title>
<path fill="none" stroke="black" stroke-width="2" d="M379.9,-883.72C458.61,-861.27 563.21,-831.43 644.38,-808.28"/>
<text text-anchor="middle" x="575.63" y="-841.12" font-family="sans-serif" font-size="12.00">Shared Kernel</text>
</g>
<!-- DevolucionesContexto&#45;&gt;SeguimientoPedidosContexto -->
<g id="edge16" class="edge">
<title>DevolucionesContexto&#45;&gt;SeguimientoPedidosContexto</title>
<path fill="none" stroke="black" stroke-width="2" d="M138.57,-894.99C72.19,-875.78 4.63,-839.68 4.63,-772.27 4.63,-772.27 4.63,-772.27 4.63,-186.43 4.63,-133.64 50.52,-99.65 100,-78.34"/>
<text text-anchor="middle" x="46.63" y="-477.65" font-family="sans-serif" font-size="12.00">Shared Kernel</text>
</g>
<!-- GestionDeProductosContexto -->
<g id="node16" class="node">
<title>GestionDeProductosContexto</title>
<polygon fill="none" stroke="black" stroke-width="2" points="1646,-663.24 1635.02,-661.73 1624.41,-660.12 1614.2,-658.43 1604.44,-656.65 1595.17,-654.8 1586.43,-652.89 1578.25,-650.91 1570.67,-648.88 1563.72,-646.8 1557.42,-644.68 1551.8,-642.53 1546.87,-640.35 1542.67,-638.14 1539.19,-635.92 1536.45,-633.69 1534.45,-631.46 1533.2,-629.23 1532.69,-627.01 1532.92,-624.8 1533.89,-622.61 1535.57,-620.45 1537.96,-618.31 1541.03,-616.2 1544.76,-614.13 1549.13,-612.11 1554.12,-610.12 1559.69,-608.19 1565.81,-606.31 1572.45,-604.48 1579.58,-602.71 1587.16,-601 1595.15,-599.36 1603.52,-597.79 1612.23,-596.28 1621.24,-594.85 1630.51,-593.49 1640.01,-592.21 1649.7,-591.01 1659.55,-589.89 1669.51,-588.86 1679.55,-587.91 1689.65,-587.05 1699.77,-586.28 1709.88,-585.6 1719.96,-585.02 1729.97,-584.53 1739.9,-584.14 1749.72,-583.85 1759.41,-583.66 1768.96,-583.57 1778.34,-583.58 1787.54,-583.7 1796.55,-583.92 1805.35,-584.25 1813.94,-584.69 1822.31,-585.24 1830.45,-585.89 1838.35,-586.65 1846.01,-587.52 1853.41,-588.5 1860.57,-589.58 1867.47,-590.76 1874.11,-592.05 1880.49,-593.44 1886.6,-594.93 1892.44,-596.52 1898.01,-598.2 1903.29,-599.97 1908.29,-601.83 1913,-603.77 1917.42,-605.79 1921.53,-607.88 1925.33,-610.03 1928.81,-612.25 1931.96,-614.53 1934.77,-616.85 1937.22,-619.22 1939.32,-621.62 1941.04,-624.05 1942.37,-626.5 1943.3,-628.96 1943.82,-631.43 1943.9,-633.89 1943.55,-636.34 1942.75,-638.78 1941.48,-641.18 1939.73,-643.55 1937.49,-645.87 1934.75,-648.14 1931.5,-650.35 1927.75,-652.49 1923.47,-654.55 1918.67,-656.53 1913.34,-658.42 1907.49,-660.21 1901.12,-661.9 1894.23,-663.47 1886.84,-664.94 1878.95,-666.28 1870.57,-667.49 1861.73,-668.57 1852.45,-669.53 1842.74,-670.34 1832.63,-671.02 1822.14,-671.56 1811.32,-671.96 1800.18,-672.21 1788.77,-672.32 1777.13,-672.29 1765.29,-672.12 1753.3,-671.81 1741.19,-671.36 1729.03,-670.78 1716.84,-670.07 1704.68,-669.22 1692.6,-668.26 1680.64,-667.17 1668.86,-665.97 1657.29,-664.66 1646,-663.24"/>
<text text-anchor="middle" x="1752.63" y="-622.4" font-family="sans-serif" font-size="16.00">GestionDeProductosContexto</text>
</g>
<!-- GestionDeProductosContexto&#45;&gt;CatalogoProductosContexto -->
<g id="edge18" class="edge">
<title>GestionDeProductosContexto&#45;&gt;CatalogoProductosContexto</title>
<path fill="none" stroke="black" stroke-width="2" d="M1685.56,-587.32C1652.05,-568.4 1611.31,-545.39 1576.43,-525.69"/>
<text text-anchor="middle" x="1675.63" y="-550.98" font-family="sans-serif" font-size="12.00">Shared Kernel</text>
</g>
<!-- GestionDeProductosContexto&#45;&gt;CatalogoInternoContexto -->
<g id="edge17" class="edge">
<title>GestionDeProductosContexto&#45;&gt;CatalogoInternoContexto</title>
<path fill="none" stroke="black" stroke-width="2" d="M1797.75,-583.71C1818.35,-564.76 1842.71,-542.36 1863.34,-523.4"/>
<text text-anchor="middle" x="1877.63" y="-550.98" font-family="sans-serif" font-size="12.00">Shared Kernel</text>
</g>
<!-- LocalizacionContexto -->
<g id="node17" class="node">
<title>LocalizacionContexto</title>
<polygon fill="none" stroke="black" stroke-width="2" points="2505.3,-958.29 2496.05,-959.38 2486.71,-960.34 2477.3,-961.19 2467.88,-961.9 2458.47,-962.48 2449.11,-962.93 2439.83,-963.24 2430.67,-963.41 2421.67,-963.44 2412.85,-963.33 2404.24,-963.08 2395.86,-962.68 2387.75,-962.14 2379.93,-961.46 2372.42,-960.65 2365.24,-959.7 2358.41,-958.61 2351.93,-957.4 2345.83,-956.06 2340.11,-954.6 2334.78,-953.02 2329.86,-951.33 2325.33,-949.54 2321.21,-947.65 2317.5,-945.67 2314.19,-943.61 2311.28,-941.47 2308.77,-939.26 2306.66,-936.99 2304.92,-934.67 2303.57,-932.3 2302.59,-929.9 2301.96,-927.47 2301.69,-925.01 2301.76,-922.55 2302.16,-920.08 2302.88,-917.62 2303.91,-915.17 2305.24,-912.74 2306.86,-910.34 2308.76,-907.97 2310.93,-905.65 2313.37,-903.37 2316.06,-901.15 2319,-899 2322.18,-896.91 2325.59,-894.89 2329.23,-892.95 2333.1,-891.09 2337.19,-889.32 2341.49,-887.64 2346.01,-886.05 2350.74,-884.56 2355.67,-883.17 2360.8,-881.88 2366.14,-880.7 2371.68,-879.62 2377.41,-878.64 2383.33,-877.77 2389.44,-877.01 2395.73,-876.36 2402.2,-875.81 2408.85,-875.38 2415.66,-875.05 2422.63,-874.82 2429.74,-874.7 2437,-874.69 2444.38,-874.78 2451.87,-874.97 2459.47,-875.26 2467.14,-875.65 2474.89,-876.14 2482.68,-876.72 2490.5,-877.4 2498.33,-878.17 2506.14,-879.03 2513.91,-879.98 2521.61,-881.01 2529.22,-882.13 2536.72,-883.33 2544.06,-884.61 2551.24,-885.97 2558.2,-887.4 2564.94,-888.91 2571.41,-890.48 2577.59,-892.12 2583.45,-893.83 2588.97,-895.6 2594.11,-897.43 2598.84,-899.31 2603.15,-901.24 2607,-903.23 2610.39,-905.26 2613.27,-907.32 2615.65,-909.43 2617.49,-911.57 2618.79,-913.73 2619.54,-915.92 2619.72,-918.13 2619.33,-920.35 2618.36,-922.58 2616.82,-924.82 2614.7,-927.04 2612.01,-929.26 2608.75,-931.47 2604.95,-933.65 2600.6,-935.8 2595.73,-937.92 2590.35,-940 2584.49,-942.03 2578.16,-944.01 2571.4,-945.92 2564.23,-947.77 2556.68,-949.55 2548.79,-951.24 2540.58,-952.85 2532.09,-954.36 2523.35,-955.78 2514.41,-957.09 2505.3,-958.29"/>
<text text-anchor="middle" x="2449.63" y="-913.52" font-family="sans-serif" font-size="16.00">LocalizacionContexto</text>
</g>
<!-- TraduccionContexto -->
<g id="node18" class="node">
<title>TraduccionContexto</title>
<polygon fill="none" stroke="black" stroke-width="2" points="2503.27,-730.65 2512.15,-731.66 2520.84,-732.78 2529.28,-734 2537.45,-735.32 2545.31,-736.73 2552.83,-738.23 2559.99,-739.82 2566.74,-741.48 2573.08,-743.21 2578.96,-745.01 2584.38,-746.87 2589.31,-748.79 2593.74,-750.77 2597.66,-752.78 2601.04,-754.84 2603.89,-756.93 2606.2,-759.05 2607.97,-761.2 2609.19,-763.36 2609.88,-765.54 2610.03,-767.72 2609.66,-769.91 2608.77,-772.09 2607.38,-774.26 2605.5,-776.42 2603.15,-778.57 2600.34,-780.69 2597.11,-782.78 2593.46,-784.85 2589.43,-786.87 2585.03,-788.85 2580.3,-790.79 2575.25,-792.68 2569.9,-794.52 2564.3,-796.29 2558.46,-798.01 2552.4,-799.66 2546.16,-801.24 2539.76,-802.74 2533.22,-804.17 2526.56,-805.52 2519.81,-806.78 2512.98,-807.96 2506.11,-809.05 2499.2,-810.04 2492.28,-810.94 2485.35,-811.74 2478.44,-812.44 2471.56,-813.04 2464.73,-813.52 2457.94,-813.91 2451.22,-814.18 2444.57,-814.34 2438,-814.39 2431.52,-814.33 2425.13,-814.15 2418.84,-813.85 2412.66,-813.44 2406.58,-812.92 2400.61,-812.28 2394.76,-811.53 2389.03,-810.66 2383.42,-809.69 2377.93,-808.6 2372.58,-807.4 2367.36,-806.1 2362.28,-804.7 2357.35,-803.2 2352.56,-801.6 2347.94,-799.9 2343.48,-798.12 2339.19,-796.26 2335.08,-794.31 2331.17,-792.3 2327.46,-790.21 2323.97,-788.07 2320.7,-785.86 2317.67,-783.61 2314.9,-781.31 2312.39,-778.98 2310.16,-776.62 2308.23,-774.23 2306.61,-771.83 2305.32,-769.43 2304.37,-767.02 2303.77,-764.62 2303.54,-762.24 2303.69,-759.88 2304.24,-757.55 2305.19,-755.26 2306.55,-753.02 2308.34,-750.83 2310.56,-748.69 2313.22,-746.63 2316.31,-744.63 2319.85,-742.72 2323.83,-740.89 2328.25,-739.16 2333.1,-737.52 2338.38,-735.98 2344.08,-734.55 2350.19,-733.23 2356.69,-732.02 2363.57,-730.94 2370.8,-729.97 2378.37,-729.13 2386.25,-728.41 2394.42,-727.82 2402.85,-727.36 2411.51,-727.02 2420.37,-726.82 2429.39,-726.75 2438.55,-726.8 2447.8,-726.98 2457.11,-727.29 2466.45,-727.73 2475.77,-728.28 2485.04,-728.95 2494.22,-729.75 2503.27,-730.65"/>
<text text-anchor="middle" x="2449.63" y="-767.47" font-family="sans-serif" font-size="16.00">TraduccionContexto</text>
</g>
<!-- LocalizacionContexto&#45;&gt;TraduccionContexto -->
<g id="edge19" class="edge">
<title>LocalizacionContexto&#45;&gt;TraduccionContexto</title>
<path fill="none" stroke="black" stroke-width="2" d="M2449.63,-874.65C2449.63,-855.71 2449.63,-833.33 2449.63,-814.34"/>
<text text-anchor="middle" x="2484.13" y="-841.12" font-family="sans-serif" font-size="12.00">Partnership</text>
</g>
<!-- OrdenesContexto -->
<g id="node19" class="node">
<title>OrdenesContexto</title>
<polygon fill="none" stroke="black" stroke-width="2" points="2890.35,-893.76 2895.04,-896.17 2899.39,-898.62 2903.4,-901.12 2907.03,-903.65 2910.27,-906.2 2913.11,-908.76 2915.54,-911.32 2917.53,-913.88 2919.1,-916.42 2920.21,-918.93 2920.88,-921.41 2921.09,-923.86 2920.84,-926.25 2920.14,-928.59 2918.98,-930.87 2917.37,-933.08 2915.31,-935.22 2912.82,-937.29 2909.9,-939.27 2906.56,-941.16 2902.83,-942.97 2898.7,-944.68 2894.2,-946.31 2889.35,-947.83 2884.17,-949.26 2878.68,-950.59 2872.89,-951.82 2866.84,-952.95 2860.55,-953.98 2854.04,-954.91 2847.34,-955.75 2840.47,-956.49 2833.45,-957.13 2826.33,-957.67 2819.11,-958.12 2811.82,-958.48 2804.5,-958.75 2797.17,-958.93 2789.85,-959.01 2782.56,-959.01 2775.33,-958.93 2768.17,-958.76 2761.12,-958.5 2754.19,-958.17 2747.4,-957.75 2740.77,-957.25 2734.31,-956.67 2728.04,-956.01 2721.98,-955.27 2716.13,-954.45 2710.51,-953.56 2705.13,-952.58 2700,-951.53 2695.12,-950.4 2690.51,-949.2 2686.17,-947.92 2682.1,-946.56 2678.31,-945.12 2674.8,-943.61 2671.58,-942.03 2668.64,-940.38 2665.98,-938.65 2663.62,-936.86 2661.53,-935 2659.74,-933.07 2658.23,-931.08 2657,-929.03 2656.05,-926.93 2655.39,-924.77 2655,-922.57 2654.88,-920.33 2655.05,-918.04 2655.48,-915.73 2656.18,-913.39 2657.15,-911.03 2658.39,-908.66 2659.89,-906.28 2661.66,-903.9 2663.69,-901.54 2665.97,-899.19 2668.51,-896.87 2671.31,-894.58 2674.36,-892.34 2677.66,-890.15 2681.21,-888.02 2685,-885.96 2689.03,-883.97 2693.3,-882.08 2697.8,-880.28 2702.54,-878.58 2707.49,-876.99 2712.66,-875.52 2718.04,-874.18 2723.62,-872.97 2729.39,-871.89 2735.34,-870.96 2741.46,-870.18 2747.75,-869.55 2754.17,-869.08 2760.74,-868.77 2767.41,-868.61 2774.19,-868.62 2781.06,-868.8 2787.99,-869.14 2794.97,-869.63 2801.97,-870.29 2808.98,-871.11 2815.98,-872.08 2822.94,-873.21 2829.84,-874.48 2836.65,-875.89 2843.36,-877.43 2849.94,-879.11 2856.37,-880.9 2862.62,-882.81 2868.66,-884.82 2874.48,-886.93 2880.05,-889.13 2885.34,-891.41 2890.35,-893.76"/>
<text text-anchor="middle" x="2779.63" y="-913.52" font-family="sans-serif" font-size="16.00">OrdenesContexto</text>
</g>
<!-- PagosContexto -->
<g id="node20" class="node">
<title>PagosContexto</title>
<polygon fill="none" stroke="black" stroke-width="2" points="2896.3,-769.45 2896.72,-772.33 2896.82,-775.2 2896.6,-778.04 2896.05,-780.84 2895.17,-783.6 2893.97,-786.31 2892.44,-788.94 2890.59,-791.49 2888.43,-793.96 2885.95,-796.33 2883.17,-798.6 2880.1,-800.76 2876.73,-802.79 2873.09,-804.71 2869.17,-806.49 2864.99,-808.14 2860.57,-809.65 2855.91,-811.02 2851.03,-812.25 2845.94,-813.34 2840.66,-814.27 2835.2,-815.07 2829.59,-815.72 2823.82,-816.23 2817.93,-816.59 2811.93,-816.82 2805.84,-816.92 2799.67,-816.88 2793.44,-816.72 2787.18,-816.43 2780.91,-816.03 2774.63,-815.51 2768.37,-814.89 2762.14,-814.16 2755.98,-813.34 2749.88,-812.42 2743.88,-811.42 2737.99,-810.34 2732.22,-809.18 2726.6,-807.96 2721.13,-806.66 2715.84,-805.31 2710.74,-803.9 2705.84,-802.44 2701.15,-800.94 2696.7,-799.39 2692.48,-797.8 2688.52,-796.17 2684.82,-794.51 2681.4,-792.81 2678.25,-791.09 2675.39,-789.34 2672.82,-787.56 2670.56,-785.76 2668.6,-783.94 2666.95,-782.09 2665.61,-780.23 2664.59,-778.35 2663.88,-776.45 2663.49,-774.53 2663.42,-772.6 2663.66,-770.65 2664.21,-768.7 2665.08,-766.73 2666.25,-764.75 2667.72,-762.77 2669.49,-760.79 2671.55,-758.8 2673.89,-756.82 2676.51,-754.84 2679.4,-752.87 2682.55,-750.92 2685.96,-748.98 2689.6,-747.07 2693.48,-745.19 2697.58,-743.33 2701.89,-741.52 2706.41,-739.76 2711.11,-738.05 2715.98,-736.39 2721.02,-734.8 2726.21,-733.29 2731.54,-731.86 2736.99,-730.51 2742.55,-729.26 2748.21,-728.11 2753.95,-727.06 2759.76,-726.14 2765.63,-725.33 2771.53,-724.65 2777.45,-724.11 2783.39,-723.7 2789.32,-723.44 2795.23,-723.33 2801.11,-723.37 2806.93,-723.57 2812.69,-723.92 2818.38,-724.43 2823.96,-725.1 2829.44,-725.93 2834.79,-726.93 2840.01,-728.08 2845.08,-729.38 2849.98,-730.84 2854.7,-732.45 2859.23,-734.2 2863.55,-736.09 2867.66,-738.11 2871.54,-740.26 2875.18,-742.53 2878.57,-744.9 2881.7,-747.37 2884.55,-749.93 2887.13,-752.57 2889.42,-755.28 2891.41,-758.04 2893.1,-760.86 2894.48,-763.7 2895.55,-766.57 2896.3,-769.45"/>
<text text-anchor="middle" x="2779.63" y="-767.47" font-family="sans-serif" font-size="16.00">PagosContexto</text>
</g>
<!-- OrdenesContexto&#45;&gt;PagosContexto -->
<g id="edge20" class="edge">
<title>OrdenesContexto&#45;&gt;PagosContexto</title>
<path fill="none" stroke="black" stroke-width="2" d="M2779.63,-868.75C2779.63,-851.87 2779.63,-832.95 2779.63,-816.37"/>
<text text-anchor="middle" x="2814.13" y="-841.12" font-family="sans-serif" font-size="12.00">Partnership</text>
</g>
<!-- PedidosyTransaccionesContexto -->
<g id="node21" class="node">
<title>PedidosyTransaccionesContexto</title>
<polygon fill="none" stroke="black" stroke-width="2" points="78.32,-356.33 71.05,-353.87 64.34,-351.35 58.21,-348.81 52.7,-346.23 47.82,-343.64 43.61,-341.04 40.07,-338.44 37.23,-335.86 35.11,-333.3 33.71,-330.77 33.04,-328.27 33.11,-325.82 33.92,-323.43 35.48,-321.09 37.76,-318.82 40.77,-316.62 44.5,-314.5 48.94,-312.47 54.06,-310.52 59.84,-308.66 66.27,-306.89 73.32,-305.22 80.96,-303.65 89.16,-302.18 97.88,-300.81 107.11,-299.54 116.78,-298.38 126.88,-297.32 137.36,-296.36 148.18,-295.5 159.3,-294.74 170.68,-294.08 182.27,-293.52 194.03,-293.06 205.93,-292.69 217.91,-292.42 229.94,-292.24 241.98,-292.15 253.99,-292.15 265.92,-292.23 277.75,-292.4 289.43,-292.66 300.93,-292.99 312.22,-293.41 323.27,-293.91 334.04,-294.49 344.52,-295.15 354.67,-295.88 364.48,-296.69 373.91,-297.58 382.96,-298.54 391.6,-299.58 399.83,-300.7 407.62,-301.88 414.96,-303.15 421.86,-304.48 428.29,-305.89 434.25,-307.37 439.74,-308.92 444.75,-310.55 449.28,-312.24 453.33,-314 456.9,-315.82 459.99,-317.71 462.6,-319.66 464.74,-321.67 466.4,-323.74 467.59,-325.86 468.32,-328.03 468.58,-330.24 468.38,-332.49 467.73,-334.77 466.63,-337.08 465.07,-339.42 463.08,-341.77 460.65,-344.13 457.79,-346.5 454.49,-348.86 450.77,-351.2 446.63,-353.53 442.07,-355.82 437.11,-358.08 431.73,-360.29 425.96,-362.45 419.78,-364.54 413.23,-366.56 406.28,-368.5 398.97,-370.35 391.29,-372.1 383.25,-373.75 374.87,-375.28 366.16,-376.69 357.12,-377.97 347.78,-379.12 338.15,-380.13 328.25,-380.99 318.09,-381.7 307.69,-382.26 297.09,-382.65 286.29,-382.89 275.33,-382.96 264.23,-382.87 253.02,-382.62 241.73,-382.2 230.39,-381.62 219.03,-380.88 207.69,-379.97 196.4,-378.92 185.2,-377.71 174.12,-376.36 163.2,-374.87 152.47,-373.24 141.99,-371.48 131.77,-369.61 121.87,-367.63 112.31,-365.54 103.15,-363.35 94.4,-361.09 86.12,-358.74 78.32,-356.33"/>
<text text-anchor="middle" x="263.63" y="-330.23" font-family="sans-serif" font-size="16.00">PedidosyTransaccionesContexto</text>
</g>
<!-- PedidosyTransaccionesContexto&#45;&gt;AnalisisYReporteContexto -->
<g id="edge22" class="edge">
<title>PedidosyTransaccionesContexto&#45;&gt;AnalisisYReporteContexto</title>
<path fill="none" stroke="black" stroke-width="2" d="M348.59,-295.23C396.36,-273.97 455.81,-247.53 503.59,-226.27"/>
<text text-anchor="middle" x="512.13" y="-257.55" font-family="sans-serif" font-size="12.00"> &#160;&#160;&#160;&#160;&#160;&#160;&#160;&#160;&#160;&#160;&#160;&#160;&#160;&#160;&#160;&#160;&#160;&#160;&#160;&#160;&#160;&#160;&#160;&#160;&#160;&#160;&#160;&#160;&#160;&#160;&#160;&#160;&#160;&#160;&#160;&#160;&#160;&#160;&#160;</text>
<polygon fill="white" stroke="transparent" points="496.59,-217.27 496.59,-234.27 510.59,-234.27 510.59,-217.27 496.59,-217.27"/>
<text text-anchor="start" x="498.59" y="-222.67" font-family="sans-serif" font-size="12.00">D</text>
<polygon fill="white" stroke="transparent" points="341.59,-286.23 341.59,-303.23 355.59,-303.23 355.59,-286.23 341.59,-286.23"/>
<text text-anchor="start" x="343.59" y="-291.63" font-family="sans-serif" font-size="12.00">U</text>
</g>
<!-- PedidosyTransaccionesContexto&#45;&gt;SeguimientoPedidosContexto -->
<g id="edge21" class="edge">
<title>PedidosyTransaccionesContexto&#45;&gt;SeguimientoPedidosContexto</title>
<path fill="none" stroke="black" stroke-width="2" d="M246.19,-291.8C239.81,-274.87 233.27,-254.87 229.63,-236.15 219.86,-185.99 218.6,-127.07 219.14,-88.23"/>
<text text-anchor="middle" x="305.13" y="-184.33" font-family="sans-serif" font-size="12.00"> &#160;&#160;&#160;&#160;&#160;&#160;&#160;&#160;&#160;&#160;&#160;&#160;&#160;&#160;&#160;&#160;&#160;&#160;&#160;&#160;&#160;&#160;&#160;&#160;&#160;&#160;&#160;&#160;&#160;&#160;&#160;&#160;&#160;&#160;&#160;&#160;&#160;&#160;&#160;</text>
<polygon fill="white" stroke="transparent" points="212.14,-79.23 212.14,-96.23 226.14,-96.23 226.14,-79.23 212.14,-79.23"/>
<text text-anchor="start" x="214.14" y="-84.63" font-family="sans-serif" font-size="12.00">D</text>
<polygon fill="white" stroke="transparent" points="239.19,-282.8 239.19,-299.8 253.19,-299.8 253.19,-282.8 239.19,-282.8"/>
<text text-anchor="start" x="241.19" y="-288.2" font-family="sans-serif" font-size="12.00">U</text>
</g>
<!-- PerfilClienteContexto -->
<g id="node22" class="node">
<title>PerfilClienteContexto</title>
<polygon fill="none" stroke="black" stroke-width="2" points="2553.41,-318.07 2557.14,-320.72 2560.46,-323.4 2563.36,-326.1 2565.81,-328.8 2567.81,-331.5 2569.35,-334.18 2570.42,-336.84 2571,-339.46 2571.11,-342.05 2570.72,-344.58 2569.85,-347.04 2568.49,-349.44 2566.64,-351.77 2564.31,-354.01 2561.51,-356.16 2558.24,-358.22 2554.51,-360.18 2550.33,-362.04 2545.73,-363.79 2540.71,-365.43 2535.29,-366.95 2529.5,-368.37 2523.35,-369.66 2516.86,-370.85 2510.06,-371.91 2502.97,-372.86 2495.61,-373.69 2488.02,-374.41 2480.22,-375.02 2472.24,-375.51 2464.1,-375.9 2455.84,-376.18 2447.48,-376.36 2439.06,-376.44 2430.59,-376.42 2422.11,-376.31 2413.65,-376.1 2405.23,-375.81 2396.88,-375.42 2388.63,-374.96 2380.5,-374.41 2372.51,-373.79 2364.7,-373.09 2357.07,-372.32 2349.66,-371.48 2342.48,-370.57 2335.55,-369.59 2328.88,-368.55 2322.5,-367.44 2316.42,-366.26 2310.64,-365.03 2305.19,-363.74 2300.07,-362.38 2295.29,-360.97 2290.86,-359.49 2286.78,-357.96 2283.07,-356.38 2279.71,-354.74 2276.73,-353.04 2274.12,-351.29 2271.87,-349.48 2270,-347.63 2268.5,-345.72 2267.36,-343.77 2266.59,-341.77 2266.18,-339.73 2266.13,-337.65 2266.44,-335.54 2267.1,-333.39 2268.1,-331.21 2269.44,-329.01 2271.12,-326.79 2273.13,-324.55 2275.46,-322.31 2278.1,-320.07 2281.06,-317.83 2284.32,-315.6 2287.87,-313.39 2291.71,-311.21 2295.84,-309.06 2300.24,-306.96 2304.9,-304.9 2309.82,-302.9 2314.99,-300.97 2320.41,-299.12 2326.05,-297.34 2331.91,-295.66 2337.99,-294.08 2344.27,-292.61 2350.74,-291.25 2357.38,-290.02 2364.2,-288.91 2371.17,-287.94 2378.28,-287.12 2385.51,-286.43 2392.86,-285.91 2400.3,-285.53 2407.83,-285.32 2415.42,-285.27 2423.05,-285.38 2430.71,-285.66 2438.38,-286.1 2446.04,-286.71 2453.66,-287.48 2461.23,-288.41 2468.73,-289.5 2476.13,-290.75 2483.42,-292.15 2490.56,-293.69 2497.54,-295.37 2504.33,-297.18 2510.91,-299.12 2517.27,-301.18 2523.36,-303.34 2529.18,-305.6 2534.71,-307.96 2539.91,-310.39 2544.78,-312.89 2549.28,-315.46 2553.41,-318.07"/>
<text text-anchor="middle" x="2412.63" y="-330.23" font-family="sans-serif" font-size="16.00">PerfilClienteContexto</text>
</g>
<!-- PerfilClienteContexto&#45;&gt;ServicioClienteContexto -->
<g id="edge23" class="edge">
<title>PerfilClienteContexto&#45;&gt;ServicioClienteContexto</title>
<path fill="none" stroke="black" stroke-width="2" d="M2309.91,-302.87C2288.7,-296.84 2266.47,-290.67 2245.63,-285.15 2158.33,-262.04 2059.69,-238.05 1982.46,-219.75"/>
<text text-anchor="middle" x="2246.13" y="-257.55" font-family="sans-serif" font-size="12.00"> &#160;&#160;&#160;&#160;&#160;&#160;&#160;&#160;&#160;&#160;&#160;&#160;&#160;&#160;&#160;&#160;&#160;&#160;&#160;&#160;&#160;&#160;&#160;&#160;&#160;&#160;&#160;&#160;&#160;&#160;&#160;&#160;&#160;&#160;&#160;&#160;&#160;&#160;&#160;</text>
<polygon fill="white" stroke="transparent" points="1975.46,-210.75 1975.46,-227.75 1989.46,-227.75 1989.46,-210.75 1975.46,-210.75"/>
<text text-anchor="start" x="1977.46" y="-216.15" font-family="sans-serif" font-size="12.00">D</text>
<polygon fill="white" stroke="transparent" points="2302.91,-293.87 2302.91,-310.87 2316.91,-310.87 2316.91,-293.87 2302.91,-293.87"/>
<text text-anchor="start" x="2304.91" y="-299.27" font-family="sans-serif" font-size="12.00">U</text>
</g>
<!-- PreferenciasClienteContexto -->
<g id="node23" class="node">
<title>PreferenciasClienteContexto</title>
<polygon fill="none" stroke="black" stroke-width="2" points="1763.58,-300.24 1773.4,-302.04 1782.81,-303.92 1791.79,-305.87 1800.28,-307.89 1808.27,-309.97 1815.7,-312.1 1822.56,-314.28 1828.81,-316.5 1834.43,-318.75 1839.4,-321.01 1843.69,-323.3 1847.28,-325.59 1850.18,-327.89 1852.36,-330.18 1853.82,-332.46 1854.56,-334.72 1854.58,-336.96 1853.89,-339.18 1852.48,-341.36 1850.38,-343.5 1847.6,-345.6 1844.15,-347.65 1840.05,-349.65 1835.33,-351.6 1830.02,-353.49 1824.14,-355.32 1817.71,-357.08 1810.78,-358.78 1803.38,-360.41 1795.54,-361.97 1787.29,-363.45 1778.68,-364.86 1769.74,-366.2 1760.51,-367.45 1751.03,-368.62 1741.33,-369.72 1731.45,-370.73 1721.44,-371.65 1711.31,-372.49 1701.12,-373.25 1690.89,-373.92 1680.66,-374.5 1670.46,-374.98 1660.31,-375.38 1650.25,-375.69 1640.3,-375.9 1630.48,-376.02 1620.83,-376.04 1611.35,-375.97 1602.06,-375.8 1592.99,-375.53 1584.15,-375.16 1575.55,-374.7 1567.21,-374.13 1559.13,-373.47 1551.32,-372.7 1543.8,-371.83 1536.56,-370.87 1529.61,-369.8 1522.96,-368.63 1516.61,-367.37 1510.57,-366.01 1504.83,-364.55 1499.4,-363 1494.28,-361.36 1489.48,-359.63 1484.99,-357.82 1480.82,-355.92 1476.98,-353.95 1473.45,-351.9 1470.26,-349.78 1467.4,-347.6 1464.87,-345.37 1462.69,-343.07 1460.86,-340.74 1459.38,-338.36 1458.26,-335.95 1457.52,-333.52 1457.15,-331.06 1457.17,-328.6 1457.59,-326.14 1458.4,-323.68 1459.63,-321.24 1461.28,-318.82 1463.36,-316.44 1465.88,-314.09 1468.83,-311.79 1472.24,-309.55 1476.1,-307.38 1480.42,-305.28 1485.2,-303.26 1490.44,-301.34 1496.14,-299.51 1502.31,-297.78 1508.92,-296.17 1515.99,-294.67 1523.5,-293.3 1531.43,-292.05 1539.78,-290.94 1548.53,-289.96 1557.67,-289.12 1567.16,-288.43 1576.99,-287.89 1587.14,-287.49 1597.57,-287.24 1608.26,-287.14 1619.17,-287.19 1630.27,-287.39 1641.52,-287.73 1652.89,-288.22 1664.33,-288.86 1675.8,-289.63 1687.26,-290.53 1698.68,-291.57 1709.99,-292.73 1721.17,-294.02 1732.16,-295.41 1742.92,-296.92 1753.41,-298.53 1763.58,-300.24"/>
<text text-anchor="middle" x="1640.63" y="-330.23" font-family="sans-serif" font-size="16.00">PreferenciasClienteContexto</text>
</g>
<!-- PreferenciasClienteContexto&#45;&gt;ServicioClienteContexto -->
<g id="edge24" class="edge">
<title>PreferenciasClienteContexto&#45;&gt;ServicioClienteContexto</title>
<path fill="none" stroke="black" stroke-width="2" d="M1699.94,-291.6C1728.97,-271.32 1763.71,-247.05 1792.21,-227.15"/>
<text text-anchor="middle" x="1826.13" y="-257.55" font-family="sans-serif" font-size="12.00"> &#160;&#160;&#160;&#160;&#160;&#160;&#160;&#160;&#160;&#160;&#160;&#160;&#160;&#160;&#160;&#160;&#160;&#160;&#160;&#160;&#160;&#160;&#160;&#160;&#160;&#160;&#160;&#160;&#160;&#160;&#160;&#160;&#160;&#160;&#160;&#160;&#160;&#160;&#160;</text>
<polygon fill="white" stroke="transparent" points="1785.21,-218.15 1785.21,-235.15 1799.21,-235.15 1799.21,-218.15 1785.21,-218.15"/>
<text text-anchor="start" x="1787.21" y="-223.55" font-family="sans-serif" font-size="12.00">D</text>
<polygon fill="white" stroke="transparent" points="1692.94,-282.6 1692.94,-299.6 1706.94,-299.6 1706.94,-282.6 1692.94,-282.6"/>
<text text-anchor="start" x="1694.94" y="-288" font-family="sans-serif" font-size="12.00">U</text>
</g>
<!-- PromocionesContexto -->
<g id="node24" class="node">
<title>PromocionesContexto</title>
<polygon fill="none" stroke="black" stroke-width="2" points="1608.29,-755.08 1611.89,-752.4 1615.87,-749.78 1620.21,-747.23 1624.9,-744.77 1629.91,-742.39 1635.24,-740.12 1640.87,-737.96 1646.77,-735.93 1652.93,-734.01 1659.33,-732.24 1665.95,-730.6 1672.77,-729.11 1679.78,-727.78 1686.94,-726.6 1694.25,-725.58 1701.69,-724.72 1709.22,-724.02 1716.85,-723.49 1724.53,-723.12 1732.26,-722.91 1740.02,-722.86 1747.79,-722.98 1755.55,-723.24 1763.27,-723.66 1770.96,-724.23 1778.58,-724.94 1786.11,-725.79 1793.55,-726.76 1800.88,-727.86 1808.08,-729.08 1815.13,-730.41 1822.01,-731.84 1828.73,-733.36 1835.25,-734.97 1841.56,-736.66 1847.65,-738.43 1853.51,-740.25 1859.12,-742.14 1864.47,-744.07 1869.55,-746.04 1874.34,-748.05 1878.84,-750.09 1883.02,-752.15 1886.89,-754.22 1890.42,-756.31 1893.61,-758.4 1896.46,-760.49 1898.94,-762.57 1901.05,-764.65 1902.79,-766.71 1904.15,-768.76 1905.12,-770.78 1905.69,-772.79 1905.87,-774.77 1905.64,-776.73 1905,-778.66 1903.96,-780.55 1902.51,-782.42 1900.65,-784.26 1898.38,-786.06 1895.7,-787.82 1892.63,-789.55 1889.16,-791.24 1885.29,-792.9 1881.04,-794.51 1876.42,-796.09 1871.43,-797.62 1866.09,-799.11 1860.4,-800.56 1854.39,-801.95 1848.06,-803.3 1841.44,-804.59 1834.53,-805.83 1827.36,-807.01 1819.95,-808.13 1812.32,-809.18 1804.49,-810.17 1796.48,-811.08 1788.32,-811.92 1780.03,-812.68 1771.64,-813.35 1763.17,-813.93 1754.64,-814.42 1746.09,-814.81 1737.54,-815.1 1729.02,-815.28 1720.56,-815.35 1712.17,-815.3 1703.9,-815.14 1695.76,-814.85 1687.78,-814.44 1679.99,-813.9 1672.41,-813.23 1665.07,-812.43 1657.99,-811.49 1651.19,-810.43 1644.69,-809.23 1638.52,-807.89 1632.7,-806.43 1627.24,-804.83 1622.15,-803.11 1617.46,-801.27 1613.18,-799.31 1609.31,-797.23 1605.88,-795.05 1602.88,-792.77 1600.33,-790.39 1598.23,-787.92 1596.59,-785.38 1595.41,-782.77 1594.69,-780.1 1594.43,-777.37 1594.62,-774.61 1595.27,-771.82 1596.37,-769.01 1597.9,-766.19 1599.87,-763.38 1602.27,-760.58 1605.08,-757.81 1608.29,-755.08"/>
<text text-anchor="middle" x="1752.63" y="-767.47" font-family="sans-serif" font-size="16.00">PromocionesContexto</text>
</g>
<!-- PromocionesContexto&#45;&gt;GestionDeProductosContexto -->
<g id="edge25" class="edge">
<title>PromocionesContexto&#45;&gt;GestionDeProductosContexto</title>
<path fill="none" stroke="black" stroke-width="2" d="M1752.63,-723.02C1752.63,-706.58 1752.63,-688.2 1752.63,-671.97"/>
<text text-anchor="middle" x="1787.13" y="-695.21" font-family="sans-serif" font-size="12.00">Partnership</text>
</g>
<!-- RegistroClienteContexto -->
<g id="node25" class="node">
<title>RegistroClienteContexto</title>
<polygon fill="none" stroke="black" stroke-width="2" points="1908.61,-356.33 1902.88,-353.87 1897.59,-351.35 1892.77,-348.81 1888.42,-346.23 1884.58,-343.64 1881.26,-341.04 1878.47,-338.44 1876.24,-335.86 1874.56,-333.3 1873.46,-330.77 1872.93,-328.27 1872.99,-325.82 1873.63,-323.43 1874.85,-321.09 1876.65,-318.82 1879.02,-316.62 1881.96,-314.5 1885.46,-312.47 1889.49,-310.52 1894.05,-308.66 1899.12,-306.89 1904.67,-305.22 1910.69,-303.65 1917.15,-302.18 1924.03,-300.81 1931.29,-299.54 1938.92,-298.38 1946.88,-297.32 1955.13,-296.36 1963.66,-295.5 1972.42,-294.74 1981.38,-294.08 1990.52,-293.52 1999.79,-293.06 2009.16,-292.69 2018.6,-292.42 2028.08,-292.24 2037.57,-292.15 2047.03,-292.15 2056.44,-292.23 2065.75,-292.4 2074.96,-292.66 2084.02,-292.99 2092.92,-293.41 2101.62,-293.91 2110.11,-294.49 2118.37,-295.15 2126.37,-295.88 2134.09,-296.69 2141.53,-297.58 2148.66,-298.54 2155.47,-299.58 2161.95,-300.7 2168.09,-301.88 2173.88,-303.15 2179.31,-304.48 2184.37,-305.89 2189.07,-307.37 2193.39,-308.92 2197.34,-310.55 2200.91,-312.24 2204.11,-314 2206.92,-315.82 2209.35,-317.71 2211.41,-319.66 2213.1,-321.67 2214.41,-323.74 2215.35,-325.86 2215.92,-328.03 2216.12,-330.24 2215.97,-332.49 2215.45,-334.77 2214.58,-337.08 2213.36,-339.42 2211.79,-341.77 2209.88,-344.13 2207.62,-346.5 2205.02,-348.86 2202.09,-351.2 2198.83,-353.53 2195.24,-355.82 2191.32,-358.08 2187.09,-360.29 2182.54,-362.45 2177.67,-364.54 2172.51,-366.56 2167.04,-368.5 2161.27,-370.35 2155.22,-372.1 2148.89,-373.75 2142.28,-375.28 2135.42,-376.69 2128.3,-377.97 2120.94,-379.12 2113.35,-380.13 2105.55,-380.99 2097.54,-381.7 2089.35,-382.26 2080.99,-382.65 2072.48,-382.89 2063.85,-382.96 2055.1,-382.87 2046.27,-382.62 2037.37,-382.2 2028.44,-381.62 2019.49,-380.88 2010.55,-379.97 2001.66,-378.92 1992.83,-377.71 1984.1,-376.36 1975.49,-374.87 1967.04,-373.24 1958.78,-371.48 1950.73,-369.61 1942.93,-367.63 1935.4,-365.54 1928.17,-363.35 1921.28,-361.09 1914.75,-358.74 1908.61,-356.33"/>
<text text-anchor="middle" x="2054.63" y="-330.23" font-family="sans-serif" font-size="16.00">RegistroClienteContexto</text>
</g>
<!-- RegistroClienteContexto&#45;&gt;ServicioClienteContexto -->
<g id="edge26" class="edge">
<title>RegistroClienteContexto&#45;&gt;ServicioClienteContexto</title>
<path fill="none" stroke="black" stroke-width="2" d="M1997.51,-293.14C1968.67,-272.99 1933.77,-248.61 1904.91,-228.45"/>
<text text-anchor="middle" x="2033.13" y="-257.55" font-family="sans-serif" font-size="12.00"> &#160;&#160;&#160;&#160;&#160;&#160;&#160;&#160;&#160;&#160;&#160;&#160;&#160;&#160;&#160;&#160;&#160;&#160;&#160;&#160;&#160;&#160;&#160;&#160;&#160;&#160;&#160;&#160;&#160;&#160;&#160;&#160;&#160;&#160;&#160;&#160;&#160;&#160;&#160;</text>
<polygon fill="white" stroke="transparent" points="1897.91,-219.45 1897.91,-236.45 1911.91,-236.45 1911.91,-219.45 1897.91,-219.45"/>
<text text-anchor="start" x="1899.91" y="-224.85" font-family="sans-serif" font-size="12.00">D</text>
<polygon fill="white" stroke="transparent" points="1990.51,-284.14 1990.51,-301.14 2004.51,-301.14 2004.51,-284.14 1990.51,-284.14"/>
<text text-anchor="start" x="1992.51" y="-289.54" font-family="sans-serif" font-size="12.00">U</text>
</g>
</g>
</svg>
